{
  "asset": {
    "generator": "Khronos glTF Blender I/O v4.0.44",
    "version": "2.0"
  },
  "scene": 0,
  "scenes": [
    {
      "name": "Scene",
      "nodes": [
        0
      ]
    }
  ],
  "nodes": [
    {
      "mesh": 0,
      "name": "Prop_Rail_2"
    }
  ],
  "materials": [
    {
      "doubleSided": true,
      "name": "MI_Trim_02_Rails",
      "normalTexture": {
        "index": 0
      },
      "pbrMetallicRoughness": {
        "baseColorTexture": {
          "index": 1
        },
        "metallicRoughnessTexture": {
          "index": 2
        }
      }
    }
  ],
  "meshes": [
    {
      "name": "Cylinder.028",
      "primitives": [
        {
          "attributes": {
            "POSITION": 0,
            "NORMAL": 1,
            "TEXCOORD_0": 2
          },
          "indices": 3,
          "material": 0
        }
      ]
    }
  ],
  "textures": [
    {
      "sampler": 0,
      "source": 0
    },
    {
      "sampler": 0,
      "source": 1
    },
    {
      "sampler": 0,
      "source": 2
    }
  ],
  "images": [
    {
      "mimeType": "image/png",
      "name": "T_Trim_02_Normal",
      "uri": "../../../../textures/quaternius-modular-sci-fi-megakit-standard/t-trim-02-normal-7faaa7059192f43a.png"
    },
    {
      "mimeType": "image/png",
      "name": "T_Trim_02_BaseColor_Red",
      "uri": "../../../../textures/quaternius-modular-sci-fi-megakit-standard/t-trim-02-basecolor-red-4a08abf8dc0a5bf5.png"
    },
    {
      "mimeType": "image/png",
      "name": "T_Trim_02_ORM",
      "uri": "../../../../textures/quaternius-modular-sci-fi-megakit-standard/t-trim-02-orm-2a433e6a7fbcec37.png"
    }
  ],
  "accessors": [
    {
      "bufferView": 0,
      "componentType": 5126,
      "count": 576,
      "max": [
        0.030919194221496582,
        0.8620645999908447,
        -0.026813507080078125
      ],
      "min": [
        -0.03568173199892044,
        5.960464477539063e-08,
        -1.9731864929199219
      ],
      "type": "VEC3"
    },
    {
      "bufferView": 1,
      "componentType": 5126,
      "count": 576,
      "type": "VEC3"
    },
    {
      "bufferView": 2,
      "componentType": 5126,
      "count": 576,
      "type": "VEC2"
    },
    {
      "bufferView": 3,
      "componentType": 5123,
      "count": 2760,
      "type": "SCALAR"
    }
  ],
  "bufferViews": [
    {
      "buffer": 0,
      "byteLength": 6912,
      "byteOffset": 0,
      "target": 34962
    },
    {
      "buffer": 0,
      "byteLength": 6912,
      "byteOffset": 6912,
      "target": 34962
    },
    {
      "buffer": 0,
      "byteLength": 4608,
      "byteOffset": 13824,
      "target": 34962
    },
    {
      "buffer": 0,
      "byteLength": 5520,
      "byteOffset": 18432,
      "target": 34963
    }
  ],
  "samplers": [
    {
      "magFilter": 9729,
      "minFilter": 9987
    }
  ],
  "buffers": [
    {
      "byteLength": 23952,
      "uri": "Prop_Rail_2.bin"
    }
  ]
}
