# Blender 3.3.1
# www.blender.org
mtllib model.mtl
o Pipe5
v 1.000000 0.000000 1.000000
v 0.707107 0.707107 0.707107
v -0.707107 -0.707107 0.707107
v -1.000000 -0.000000 1.000000
v 0.000000 -1.000000 0.000000
v 0.707107 -0.707107 0.707107
v 0.707107 -0.707107 -0.707107
v -0.707107 -0.707107 -0.707107
v 1.000000 0.000000 -1.000000
v -1.000000 -0.000000 -1.000000
v 0.707107 0.707107 -0.707107
v 0.000000 1.000000 -1.000000
v -0.707107 0.707107 -0.707107
v -0.707107 0.707107 0.707107
v -1.000000 1.000000 -0.000000
v 0.000000 1.000000 1.000000
v 1.000000 1.000000 0.000000
v 0.000000 4.680000 -1.000000
v -0.707107 4.656569 -0.707107
v 1.000000 4.680000 0.000000
v 0.707107 4.656569 0.707107
v 0.000000 4.680000 1.000000
v -0.707107 4.656569 0.707107
v -1.000000 4.680000 -0.000000
v 0.707107 4.656569 -0.707107
v -4.613640 -0.707107 0.707107
v -4.613640 -0.707107 -0.707107
v -4.640000 -0.000000 -1.000000
v -4.550000 -1.000000 -0.000000
v -4.640000 -0.000000 1.000000
v -4.613640 0.707107 -0.707107
v -4.613640 0.707107 0.707107
v -4.640000 1.000000 -0.000000
v -0.707107 0.707107 4.613640
v 0.707107 -0.707107 4.613640
v 0.000000 -1.000000 4.550000
v -1.000000 -0.000000 4.640000
v 0.707107 0.707107 4.613640
v 1.000000 -0.000000 4.640000
v -0.707107 -0.707107 4.613640
v -0.000000 1.000000 4.640000
v 4.660000 0.000000 1.000000
v 4.635104 0.707107 0.707107
v 4.635104 0.707107 -0.707107
v 4.575000 -1.000000 0.000000
v 4.635104 -0.707107 -0.707107
v 4.635104 -0.707107 0.707107
v 4.660000 0.000000 -1.000000
v 4.660000 1.000000 0.000000
v 0.707107 -0.707107 -4.617504
v 1.000000 0.000000 -4.643600
v -0.707106 0.707107 -4.617504
v 0.000000 -1.000000 -4.554500
v -0.707107 -0.707107 -4.617504
v -1.000000 0.000000 -4.643600
v 0.707107 0.707107 -4.617504
v 0.000000 1.000000 -4.643600
v 5.000000 0.900000 0.000000
v 0.000000 0.900000 -5.000000
v 5.000000 0.636396 0.636396
v 0.636396 0.636396 -5.000000
v 5.000000 0.000000 0.900000
v 0.900000 0.000000 -5.000000
v 5.000000 -0.636396 0.636396
v 0.636396 -0.636396 -5.000000
v 5.000000 -0.900000 0.000000
v 0.000000 -0.900000 -5.000000
v 5.000000 -0.636396 -0.636396
v -0.636396 -0.636396 -5.000000
v 5.000000 0.000000 -0.900000
v -0.900000 0.000000 -5.000000
v -0.636396 0.636396 -5.000000
v 5.000000 0.636396 -0.636396
v -0.000000 0.900000 5.000000
v -5.000000 0.900000 -0.000000
v 0.636396 0.636396 5.000000
v -5.000000 0.636396 0.636396
v 0.900000 -0.000000 5.000000
v -5.000000 -0.000000 0.900000
v 0.636396 -0.636396 5.000000
v -5.000000 -0.636396 0.636396
v 0.000000 -0.900000 5.000000
v -5.000000 -0.900000 -0.000000
v -5.000000 -0.636396 -0.636396
v -0.636396 -0.636396 5.000000
v -0.900000 -0.000000 5.000000
v -5.000000 -0.000000 -0.900000
v -0.636396 0.636396 5.000000
v -5.000000 0.636396 -0.636396
v 0.929289 0.000000 0.929289
v 0.649372 0.649372 0.649372
v -0.673334 -0.619250 0.673334
v -0.929289 -0.000000 0.929289
v 0.000000 -0.900000 0.000000
v 0.673334 -0.619250 0.673334
v 0.673334 -0.619250 -0.673334
v -0.673334 -0.619250 -0.673334
v 0.929290 0.000000 -0.929289
v -0.929289 -0.000000 -0.929289
v 0.649372 0.649372 -0.649372
v 0.000000 0.929289 -0.929289
v -0.649372 0.649372 -0.649372
v -0.649372 0.649372 0.649372
v -0.000000 5.000000 -0.900000
v 0.636396 5.000000 -0.636396
v 0.900000 5.000000 0.000000
v 0.636396 5.000000 0.636396
v 0.000000 5.000000 0.900000
v -0.636396 5.000000 0.636396
v -0.900000 5.000000 -0.000000
v -0.636396 5.000000 -0.636396
v -0.929289 0.929289 -0.000000
v 0.000000 0.929289 0.929289
v 0.929289 0.929289 0.000000
v 1.060660 5.000000 -1.060660
v -0.000000 5.000000 -1.500000
v 0.000000 4.680000 -1.500000
v 1.500000 5.000000 -0.000000
v 1.060660 5.000000 1.060660
v -0.000000 5.000000 1.500000
v -1.060660 5.000000 1.060660
v -1.500000 5.000000 0.000000
v -1.060660 5.000000 -1.060660
v -1.060660 4.656569 -1.060660
v 1.500000 4.680000 0.000000
v 1.060660 4.656569 1.060660
v -0.000000 4.680000 1.500000
v -1.060660 4.656569 1.060660
v -1.500000 4.680000 -0.000000
v 1.060660 4.656569 -1.060660
v -5.000000 1.500000 -0.000000
v -5.000000 1.060660 1.060660
v -5.000000 0.000000 1.500000
v -5.000000 -1.060660 1.060660
v -5.000000 -1.500000 -0.000000
v -5.000000 -1.060660 -1.060660
v -5.000000 0.000000 -1.500000
v -5.000000 1.060660 -1.060660
v -4.550000 -1.500000 -0.000000
v -4.613640 -1.060660 1.060660
v -4.613640 -1.060660 -1.060660
v -4.640000 0.000000 -1.500000
v -4.640000 0.000000 1.500000
v -4.613640 1.060660 -1.060660
v -4.613640 1.060660 1.060660
v -4.640000 1.500000 -0.000000
v 5.000000 1.500000 0.000000
v 5.000000 1.060660 1.060660
v 5.000000 -0.000000 1.500000
v 5.000000 -1.060660 1.060660
v 5.000000 -1.500000 0.000000
v 5.000000 -1.060660 -1.060660
v 5.000000 -0.000000 -1.500000
v 5.000000 1.060660 -1.060660
v 4.660000 -0.000000 1.500000
v 4.635104 1.060660 1.060660
v 4.635104 1.060660 -1.060660
v 4.575000 -1.500000 0.000000
v 4.635104 -1.060660 -1.060660
v 4.635104 -1.060660 1.060660
v 4.660000 -0.000000 -1.500000
v 4.660000 1.500000 0.000000
v -0.000000 1.500000 5.000000
v 1.060660 1.060660 5.000000
v 1.500000 -0.000000 5.000000
v 1.060660 -1.060660 5.000000
v 0.000000 -1.500000 5.000000
v -1.060660 -1.060660 5.000000
v -1.500000 -0.000000 5.000000
v -1.060660 1.060660 5.000000
v -0.000000 1.500000 4.640000
v -1.060660 1.060660 4.613640
v 1.060660 -1.060660 4.613640
v 0.000000 -1.500000 4.550000
v -1.500000 -0.000000 4.640000
v 1.060660 1.060660 4.613640
v 1.500000 -0.000000 4.640000
v -1.060660 -1.060660 4.613640
v 0.000000 1.500000 -5.000000
v 1.060660 1.060660 -5.000000
v 1.500000 0.000000 -5.000000
v 1.060660 -1.060660 -5.000000
v 0.000000 -1.500000 -5.000000
v -1.060660 -1.060660 -5.000000
v -1.500000 0.000000 -5.000000
v -1.060660 1.060660 -5.000000
v 1.060660 -1.060660 -4.617504
v 1.500000 0.000000 -4.643600
v -1.060660 1.060660 -4.617504
v 0.000000 -1.500000 -4.554500
v -1.060660 -1.060660 -4.617504
v -1.500000 0.000000 -4.643600
v 1.060660 1.060660 -4.617504
v 0.000000 1.500000 -4.643600
vn -0.0000 -0.0000 -1.0000
vn 0.9996 0.0254 0.0105
vn -0.9997 -0.0240 -0.0100
vn -1.0000 -0.0000 -0.0000
vn -0.9997 0.0100 0.0240
vn -0.0000 -0.0000 1.0000
vn 0.9978 0.0254 -0.0613
vn 0.9996 0.0254 -0.0105
vn -0.9997 0.0100 -0.0240
vn 1.0000 -0.0000 -0.0000
vn 0.9239 -0.3827 -0.0000
vn 0.3827 -0.9239 -0.0000
vn -0.0613 0.0254 -0.9978
vn 0.0252 0.0104 0.9996
vn -0.3827 -0.9239 -0.0000
vn -0.9239 -0.3827 -0.0000
vn -0.0000 0.9239 0.3827
vn -0.0000 0.9239 -0.3827
vn -0.3827 0.9239 -0.0000
vn -0.0252 0.0104 0.9996
vn -0.9980 0.0240 -0.0579
vn 0.3827 0.9239 -0.0000
vn 0.3903 -0.0052 0.9207
vn -0.9239 -0.0000 0.3827
vn -0.3827 -0.0000 0.9239
vn 0.3827 -0.0000 0.9239
vn 0.9239 -0.0000 0.3827
vn 0.9239 -0.0000 -0.3827
vn 0.3827 -0.0000 -0.9239
vn -0.0000 1.0000 -0.0000
vn -0.3827 -0.0000 -0.9239
vn -0.0094 -0.9997 -0.0226
vn 0.0226 -0.9997 0.0094
vn -0.0226 -0.9997 0.0094
vn -0.9239 -0.0000 -0.3827
vn -0.0000 -0.9239 0.3827
vn 0.9996 -0.0254 -0.0105
vn -0.0000 0.3827 -0.9239
vn -0.0000 -0.3827 -0.9239
vn -0.0000 -0.9239 -0.3827
vn -0.0000 -0.3827 0.9239
vn -0.0000 0.3827 0.9239
vn -0.0105 0.0254 -0.9996
vn -0.9239 0.3827 -0.0000
vn -0.0105 -0.0254 -0.9996
vn 0.9239 0.3827 -0.0000
vn 0.0104 -0.0252 0.9996
vn -0.3903 -0.9207 0.0052
vn -0.3903 -0.9207 -0.0052
vn -0.0052 -0.3903 -0.9207
vn 0.0052 -0.3903 -0.9207
vn -0.0065 0.3835 -0.9235
vn 0.0065 0.3835 -0.9235
vn 0.0002 0.9234 -0.3839
vn -0.0002 0.9234 0.3839
vn -0.0065 0.3835 0.9235
vn 0.0065 0.3835 0.9235
vn -0.0052 -0.3903 0.9207
vn 0.0002 0.9234 0.3839
vn -0.9207 -0.3903 0.0052
vn -0.9207 -0.3903 -0.0052
vn -0.9235 0.3835 0.0065
vn -0.9235 0.3835 -0.0065
vn -0.3839 0.9234 -0.0002
vn -0.3839 0.9234 0.0002
vn 0.3839 0.9234 -0.0002
vn 0.3839 0.9234 0.0002
vn 0.9235 0.3835 0.0065
vn 0.9235 0.3835 -0.0065
vn -0.0052 -0.9207 0.3903
vn 0.0052 -0.3903 0.9207
vn 0.0052 -0.9207 -0.3903
vn 0.9207 -0.3903 -0.0052
vn 0.9207 -0.3903 0.0052
vn 0.3903 -0.9207 -0.0052
vn 0.0052 -0.9207 0.3903
vn -0.0052 -0.9207 -0.3903
vn 0.3903 -0.9207 0.0052
vn -0.0002 0.9234 -0.3839
vn 0.9207 -0.0052 0.3903
vn 0.9207 -0.0052 -0.3903
vn 0.3903 -0.0052 -0.9207
vn -0.3903 -0.0052 -0.9207
vn -0.9207 -0.0052 -0.3903
vn -0.9207 -0.0052 0.3903
vn -0.3903 -0.0052 0.9207
vn -0.0094 -0.9997 0.0226
vn 0.0226 -0.9997 -0.0094
vn -0.0226 -0.9997 -0.0094
vn 0.0094 -0.9997 0.0226
vn 0.0094 -0.9997 -0.0226
vn 0.9996 -0.0254 0.0105
vn 0.9978 0.0254 0.0613
vn 0.9996 0.0105 0.0254
vn 0.9996 0.0105 -0.0254
vn -0.9997 0.0240 -0.0100
vn -0.9980 0.0240 0.0579
vn -0.9997 0.0240 0.0100
vn -0.9997 -0.0240 0.0100
vn 0.0613 0.0254 -0.9978
vn 0.0105 0.0254 -0.9996
vn 0.0105 -0.0254 -0.9996
vn -0.0254 0.0105 -0.9996
vn 0.0254 0.0105 -0.9996
vn -0.0104 -0.0252 0.9996
vn -0.0104 0.0252 0.9996
vn -0.0607 0.0251 0.9978
vn 0.0607 0.0251 0.9978
vn 0.0104 0.0252 0.9996
vt 0.900244 0.400398
vt 0.042092 0.837819
vt 0.897017 0.139016
vt 0.794634 0.410454
vt 0.837410 0.572044
vt 0.753202 0.928691
vt 0.878843 0.409257
vt 0.063493 0.846678
vt 0.921620 0.450689
vt 0.447201 0.135034
vt 0.921620 0.890438
vt 0.900244 0.881579
vt 0.900243 0.459548
vt 0.416953 0.135019
vt 0.921620 0.409257
vt 0.416968 0.104772
vt 0.020716 0.846678
vt 0.386705 0.135005
vt 0.104925 0.727112
vt 0.837410 0.775067
vt 0.855585 0.139787
vt 0.921620 0.611083
vt 0.416938 0.165267
vt 0.126301 0.735971
vt 0.816035 0.783927
vt 0.900244 0.619942
vt 0.834208 0.130927
vt 0.595862 0.809521
vt 0.794634 0.572044
vt 0.794634 0.613477
vt 0.939794 0.139016
vt 0.147702 0.727112
vt 0.794634 0.775067
vt 0.816022 0.622323
vt 0.573742 0.818380
vt 0.189134 0.846382
vt 0.837410 0.613477
vt 0.345510 0.786319
vt 0.878843 0.611083
vt 0.553270 0.809521
vt 0.812808 0.139787
vt 0.710610 0.928691
vt 0.302733 0.786319
vt 0.837411 0.410454
vt 0.231911 0.846382
vt 0.878843 0.890438
vt 0.878843 0.450689
vt 0.324121 0.777471
vt 0.210523 0.836738
vt 0.816022 0.401608
vt 0.731082 0.919832
vt 0.816022 0.563198
vt 0.918405 0.131018
vt 0.816022 0.733635
vt 0.458344 0.360159
vt 0.837410 0.732939
vt 0.345510 0.666856
vt 0.481495 0.360159
vt 0.816022 0.451886
vt 0.441974 0.320638
vt 0.794634 0.290991
vt 0.837410 0.452582
vt 0.458344 0.304268
vt 0.816022 0.290296
vt 0.481495 0.304268
vt 0.302733 0.666856
vt 0.837411 0.290991
vt 0.497865 0.320638
vt 0.324121 0.666159
vt 0.497865 0.343789
vt 0.794634 0.452582
vt 0.794634 0.732939
vt 0.441974 0.343789
vt 0.530715 0.218630
vt 0.921620 0.772274
vt 0.316705 0.320641
vt 0.356226 0.304270
vt 0.921620 0.729247
vt 0.500452 0.248863
vt 0.372597 0.320641
vt 0.900244 0.730045
vt 0.514223 0.232385
vt 0.333074 0.304268
vt 0.900244 0.771477
vt 0.316706 0.343792
vt 0.189134 0.728729
vt 0.878843 0.729247
vt 0.372596 0.343791
vt 0.231911 0.728729
vt 0.878843 0.772274
vt 0.333076 0.360161
vt 0.210523 0.727112
vt 0.356227 0.360162
vt 0.710610 0.810527
vt 0.878843 0.568853
vt 0.051059 0.317516
vt 0.921620 0.291093
vt 0.500564 0.021258
vt 0.074209 0.373407
vt 0.514318 0.037750
vt 0.051058 0.373409
vt 0.900243 0.569651
vt 0.034690 0.333884
vt 0.753202 0.810527
vt 0.878843 0.291093
vt 0.090580 0.333886
vt 0.900244 0.290296
vt 0.090580 0.357036
vt 0.530797 0.051521
vt 0.921620 0.568853
vt 0.034689 0.357036
vt 0.731082 0.809730
vt 0.074211 0.317515
vt 0.042092 0.727112
vt 0.372597 0.445912
vt 0.897017 0.020716
vt 0.063493 0.727865
vt 0.372596 0.469062
vt 0.333076 0.485432
vt 0.939794 0.020716
vt 0.147702 0.845925
vt 0.319149 0.037119
vt 0.333074 0.429539
vt 0.302733 0.050949
vt 0.104925 0.845925
vt 0.316705 0.445912
vt 0.332995 0.020716
vt 0.020716 0.727865
vt 0.356226 0.429541
vt 0.126301 0.846678
vt 0.316706 0.469064
vt 0.356227 0.485433
vt 0.918405 0.020790
vt 0.303026 0.218600
vt 0.837410 0.893348
vt 0.159958 0.357036
vt 0.816035 0.894138
vt 0.159958 0.333884
vt 0.553270 0.927802
vt 0.812808 0.021505
vt 0.215849 0.333886
vt 0.319491 0.232385
vt 0.176326 0.373409
vt 0.855585 0.021505
vt 0.333259 0.248863
vt 0.199478 0.373407
vt 0.834208 0.020716
vt 0.215849 0.357036
vt 0.595862 0.927802
vt 0.176328 0.317516
vt 0.794634 0.893348
vt 0.199479 0.317515
vt 0.573742 0.928591
vt 0.201791 0.554082
vt 0.087785 0.481150
vt 0.040358 0.554082
vt 0.162752 0.460314
vt 0.466500 0.797701
vt 0.221041 0.554082
vt 0.073052 0.495883
vt 0.059608 0.554082
vt 0.753201 0.595038
vt 0.177485 0.445581
vt 0.052216 0.495883
vt 0.447263 0.797759
vt 0.198321 0.445581
vt 0.733963 0.595096
vt 0.428001 0.797816
vt 0.020716 0.048806
vt 0.037483 0.481150
vt 0.714702 0.595153
vt 0.234137 0.020716
vt 0.213054 0.460314
vt 0.033773 0.034642
vt 0.037483 0.460314
vt 0.247193 0.033717
vt 0.213054 0.481150
vt 0.732876 0.020716
vt 0.047880 0.021524
vt 0.052216 0.445581
vt 0.198321 0.495883
vt 0.261301 0.047762
vt 0.633986 0.636365
vt 0.073052 0.445581
vt 0.752137 0.020773
vt 0.177485 0.495883
vt 0.653247 0.636422
vt 0.672485 0.636480
vt 0.021109 0.554082
vt 0.162752 0.481150
vt 0.771375 0.020831
vt 0.182541 0.554082
vt 0.087785 0.460314
vt 0.121075 0.685680
vt 0.495070 0.593171
vt 0.653628 0.594933
vt 0.444768 0.447067
vt 0.140324 0.685680
vt 0.691444 0.020831
vt 0.495070 0.572335
vt 0.753201 0.636700
vt 0.672878 0.594933
vt 0.444768 0.467903
vt 0.672205 0.020773
vt 0.480337 0.557602
vt 0.733964 0.636642
vt 0.459502 0.482636
vt 0.459502 0.557602
vt 0.652945 0.020716
vt 0.020716 0.235064
vt 0.480337 0.482636
vt 0.714702 0.636585
vt 0.234137 0.261302
vt 0.033773 0.248065
vt 0.444768 0.572335
vt 0.247193 0.247139
vt 0.495070 0.467903
vt 0.261301 0.234021
vt 0.714702 0.422008
vt 0.495070 0.447067
vt 0.047880 0.262110
vt 0.553270 0.768089
vt 0.444768 0.593171
vt 0.572531 0.768031
vt 0.459502 0.607904
vt 0.480337 0.432334
vt 0.733963 0.421951
vt 0.480337 0.607904
vt 0.591769 0.767974
vt 0.101825 0.685680
vt 0.459502 0.432334
vt 0.753201 0.421893
vt 0.634379 0.594933
vt 0.446896 0.674629
vt 0.671839 0.143903
vt 0.140717 0.554082
vt 0.466500 0.666103
vt 0.691444 0.152429
vt 0.221433 0.685679
vt 0.592554 0.594944
vt 0.633986 0.421903
vt 0.714832 0.767458
vt 0.553399 0.637215
vt 0.141042 0.170188
vt 0.733597 0.759772
vt 0.572164 0.644902
vt 0.140483 0.140891
vt 0.428131 0.666943
vt 0.653075 0.151589
vt 0.112302 0.141572
vt 0.733006 0.151589
vt 0.714832 0.464280
vt 0.141042 0.112706
vt 0.714832 0.291135
vt 0.169783 0.141323
vt 0.634115 0.767238
vt 0.751771 0.143903
vt 0.733596 0.471966
vt 0.733597 0.298821
vt 0.652881 0.759552
vt 0.060000 0.685679
vt 0.771375 0.152429
vt 0.753201 0.463440
vt 0.182149 0.685679
vt 0.673270 0.421903
vt 0.572229 0.152324
vt 0.040358 0.677213
vt 0.591871 0.143845
vt 0.611513 0.152324
vt 0.753201 0.290295
vt 0.672485 0.768077
vt 0.633986 0.463336
vt 0.020716 0.685679
vt 0.553270 0.421904
vt 0.753201 0.768298
vt 0.673270 0.463336
vt 0.591769 0.636376
vt 0.101432 0.554082
vt 0.592554 0.421904
vt 0.553270 0.594944
vt 0.591871 0.020716
vt 0.334116 0.557616
vt 0.672878 0.290306
vt 0.572621 0.020728
vt 0.319438 0.572294
vt 0.653628 0.290296
vt 0.319438 0.593117
vt 0.334116 0.607885
vt 0.592162 0.463347
vt 0.634379 0.290306
vt 0.354875 0.607949
vt 0.572912 0.463336
vt 0.592161 0.290307
vt 0.553662 0.463347
vt 0.369554 0.593270
vt 0.572912 0.290296
vt 0.369554 0.572448
vt 0.611121 0.020728
vt 0.553662 0.290307
vt 0.354875 0.557679
vt 0.653628 0.471803
vt 0.572912 0.413424
vt 0.121075 0.562549
vt 0.572912 0.586464
vt 0.201791 0.677213
vt 0.653628 0.413424
vt 0.302733 0.565302
vt 0.963052 0.712408
vt 0.963052 0.882171
vt 0.327197 0.540838
vt 0.963071 0.744491
vt 0.972751 0.744491
vt 0.452556 0.374131
vt 0.302733 0.600006
vt 0.963071 0.850088
vt 0.327197 0.624621
vt 0.963052 0.818005
vt 0.647682 0.915118
vt 0.361795 0.624727
vt 0.647663 0.947201
vt 0.386259 0.600262
vt 0.647682 0.979284
vt 0.963052 0.670975
vt 0.386259 0.565558
vt 0.963069 0.638893
vt 0.361795 0.540944
vt 0.963052 0.606810
vt 0.963052 0.776573
vt 0.973440 0.606810
vt 0.973440 0.776573
vt 0.487282 0.374131
vt 0.972751 0.850088
vt 0.428001 0.314850
vt 0.973440 0.818005
vt 0.637294 0.915118
vt 0.452556 0.290295
vt 0.487282 0.290295
vt 0.637983 0.947201
vt 0.511837 0.314850
vt 0.637294 0.979284
vt 0.973440 0.670975
vt 0.972749 0.638893
vt 0.511837 0.349576
vt 0.973440 0.712408
vt 0.973440 0.882171
vt 0.428001 0.349576
vt 0.428001 0.440122
vt 0.315603 0.859833
vt 0.428001 0.474848
vt 0.481120 0.903414
vt 0.314368 0.891916
vt 0.452556 0.499403
vt 0.481120 0.871312
vt 0.487282 0.499403
vt 0.481120 0.839248
vt 0.812808 0.245384
vt 0.511837 0.474848
vt 0.812808 0.213301
vt 0.511837 0.440122
vt 0.812808 0.181219
vt 0.922759 0.245384
vt 0.487282 0.415567
vt 0.922759 0.213321
vt 0.452556 0.415567
vt 0.922759 0.181219
vt 0.314368 0.827751
vt 0.826419 0.213301
vt 0.327286 0.290295
vt 0.492806 0.839248
vt 0.824494 0.245384
vt 0.302733 0.314853
vt 0.362013 0.290297
vt 0.824494 0.181219
vt 0.934445 0.245384
vt 0.386569 0.314853
vt 0.933648 0.213321
vt 0.492009 0.871312
vt 0.302733 0.349580
vt 0.934445 0.181219
vt 0.302733 0.827751
vt 0.386569 0.349578
vt 0.492806 0.903414
vt 0.302733 0.891916
vt 0.327288 0.374134
vt 0.304762 0.859833
vt 0.362015 0.374135
vt 0.128072 0.920193
vt 0.104552 0.488095
vt 0.974089 0.459781
vt 0.126837 0.952276
vt 0.079997 0.512650
vt 0.045271 0.512650
vt 0.974089 0.427679
vt 0.020716 0.488095
vt 0.974089 0.395615
vt 0.357036 0.827751
vt 0.020716 0.453369
vt 0.357036 0.859833
vt 0.045271 0.428814
vt 0.974089 0.565378
vt 0.357036 0.891916
vt 0.079997 0.428814
vt 0.974089 0.533315
vt 0.104552 0.453369
vt 0.974089 0.501213
vt 0.126837 0.888110
vt 0.963805 0.427679
vt 0.386569 0.440124
vt 0.963052 0.459781
vt 0.137826 0.952276
vt 0.386569 0.474849
vt 0.327288 0.499405
vt 0.963052 0.501213
vt 0.137826 0.888110
vt 0.369891 0.859833
vt 0.327286 0.415567
vt 0.963052 0.565378
vt 0.368073 0.891916
vt 0.302733 0.440124
vt 0.963052 0.395615
vt 0.368073 0.827751
vt 0.362013 0.415569
vt 0.963805 0.533315
vt 0.302733 0.474851
vt 0.362015 0.499406
vt 0.138311 0.920193
vt 0.511837 0.600116
vt 0.073718 0.921289
vt 0.511837 0.565390
vt 0.189134 0.951979
vt 0.073718 0.888111
vt 0.487282 0.540835
vt 0.189134 0.919877
vt 0.452556 0.540835
vt 0.650905 0.809521
vt 0.189134 0.887814
vt 0.428001 0.565390
vt 0.650905 0.841603
vt 0.428001 0.600116
vt 0.428001 0.903414
vt 0.650905 0.873686
vt 0.452556 0.624671
vt 0.428001 0.871349
vt 0.487282 0.624671
vt 0.428001 0.839248
vt 0.073718 0.951998
vt 0.084607 0.921289
vt 0.079998 0.303543
vt 0.439688 0.839248
vt 0.085404 0.951998
vt 0.045272 0.303543
vt 0.639219 0.809521
vt 0.200820 0.887814
vt 0.079997 0.387380
vt 0.637294 0.841603
vt 0.045270 0.387382
vt 0.020717 0.328097
vt 0.438890 0.871349
vt 0.200820 0.951979
vt 0.085404 0.888111
vt 0.104553 0.328099
vt 0.200023 0.919877
vt 0.104553 0.362824
vt 0.020716 0.362824
vt 0.439688 0.903414
vt 0.639219 0.873686
vt 0.145985 0.453369
vt 0.974621 0.323474
vt 0.170540 0.428814
vt 0.032286 0.952276
vt 0.974621 0.290295
vt 0.205266 0.428814
vt 0.032286 0.920174
vt 0.229821 0.453369
vt 0.032286 0.888110
vt 0.867851 0.181219
vt 0.229821 0.488095
vt 0.867851 0.213301
vt 0.205266 0.512650
vt 0.867851 0.245384
vt 0.253823 0.951979
vt 0.170540 0.512650
vt 0.253823 0.919915
vt 0.145985 0.488095
vt 0.253823 0.887814
vt 0.974621 0.354183
vt 0.020716 0.888110
vt 0.879421 0.181219
vt 0.145985 0.362824
vt 0.021505 0.920174
vt 0.145986 0.328097
vt 0.242253 0.887814
vt 0.963052 0.354183
vt 0.229821 0.328099
vt 0.881327 0.213301
vt 0.170538 0.387382
vt 0.879421 0.245384
vt 0.242253 0.951979
vt 0.205266 0.387380
vt 0.243042 0.919915
vt 0.229821 0.362824
vt 0.170541 0.303543
vt 0.020716 0.952276
vt 0.963052 0.290295
vt 0.205267 0.303543
vt 0.963841 0.323474
s 0
usemtl Material.007
f 63/166/1 181/472/1 182/474/1 65/173/1
f 26/76/2 30/85/2 143/378/2 140/371/2
f 48/131/3 44/119/3 157/412/3 161/424/3
f 75/197/4 131/347/4 138/364/4 89/231/4
f 44/119/5 49/132/5 162/425/5 157/412/5
f 166/434/6 80/208/6 82/215/6 167/437/6
f 63/166/1 61/163/1 180/469/1 181/472/1
f 27/77/7 29/83/7 139/368/7 141/372/7
f 185/482/1 71/186/1 69/181/1 184/479/1
f 28/80/8 27/77/8 141/372/8 142/375/8
f 49/132/9 43/118/9 156/411/9 162/425/9
f 153/402/10 154/404/10 73/193/10 70/184/10
f 83/217/4 135/357/4 134/354/4 81/211/4
f 64/170/10 62/164/10 149/392/10 150/394/10
f 39/107/11 35/97/11 6/15/11 1/1/11
f 53/142/12 50/134/12 7/18/12 5/14/12
f 40/111/13 36/101/13 174/456/13 178/464/13
f 52/141/14 57/152/14 194/505/14 189/494/14
f 36/100/15 40/109/15 3/10/15 5/14/15
f 55/147/16 54/144/16 8/21/16 10/27/16
f 40/110/16 37/102/16 4/13/16 3/9/16
f 186/484/1 72/190/1 71/186/1 185/482/1
f 67/177/1 183/477/1 184/479/1 69/181/1
f 43/116/17 49/133/17 17/53/17 2/3/17
f 169/442/6 86/225/6 88/228/6 170/444/6
f 31/86/18 33/92/18 15/49/18 13/36/18
f 34/94/19 41/112/19 16/51/19 14/42/19
f 57/152/20 56/150/20 193/502/20 194/505/20
f 137/362/4 87/226/4 89/231/4 138/364/4
f 165/432/6 78/205/6 80/208/6 166/434/6
f 45/123/21 46/126/21 159/419/21 158/416/21
f 56/149/22 57/153/22 12/35/22 11/28/22
f 101/268/23 104/281/23 111/298/23 102/269/23
f 23/66/24 24/69/24 15/48/24 14/43/24
f 22/64/25 23/67/25 14/44/25 16/50/25
f 21/61/26 22/64/26 16/50/26 2/4/26
f 20/59/27 21/62/27 2/5/27 17/52/27
f 25/71/28 20/59/28 17/52/28 11/29/28
f 18/54/29 25/72/29 11/30/29 12/34/29
f 109/295/30 121/321/30 120/319/30 108/291/30
f 12/34/31 13/37/31 19/56/31 18/54/31
f 24/70/32 23/68/32 128/339/32 129/343/32
f 119/316/30 107/288/30 108/291/30 120/319/30
f 23/68/33 22/65/33 127/337/33 128/339/33
f 123/326/30 111/300/30 104/282/30 116/310/30
f 22/65/34 21/63/34 126/336/34 127/337/34
f 118/314/30 106/287/30 107/288/30 119/316/30
f 13/38/35 15/48/35 24/69/35 19/57/35
f 3/10/36 26/74/36 29/82/36 5/14/36
f 31/88/37 28/80/37 142/375/37 144/381/37
f 14/45/17 15/49/17 33/92/17 32/89/17
f 10/26/38 28/81/38 31/87/38 13/39/38
f 8/22/39 27/78/39 28/81/39 10/26/39
f 5/14/40 29/82/40 27/79/40 8/23/40
f 4/12/41 30/84/41 26/75/41 3/11/41
f 14/46/42 32/90/42 30/84/42 4/12/42
f 2/6/22 16/51/22 41/112/22 38/104/22
f 37/103/43 40/111/43 178/464/43 175/457/43
f 4/13/44 37/102/44 34/95/44 14/47/44
f 133/352/4 79/207/4 81/211/4 134/354/4
f 34/96/45 37/103/45 175/457/45 172/451/45
f 6/16/12 35/98/12 36/100/12 5/14/12
f 136/359/4 84/220/4 87/226/4 137/362/4
f 2/7/46 38/105/46 39/107/46 1/1/46
f 7/18/40 46/124/40 45/122/40 5/14/40
f 153/402/10 70/184/10 68/180/10 152/399/10
f 11/31/18 17/53/18 49/133/18 44/120/18
f 11/32/38 44/121/38 48/130/38 9/24/38
f 9/24/39 48/130/39 46/125/39 7/19/39
f 5/14/36 45/122/36 47/127/36 6/16/36
f 6/17/41 47/128/41 42/114/41 1/2/41
f 1/2/42 42/114/42 43/117/42 2/8/42
f 56/150/47 51/138/47 188/491/47 193/502/47
f 13/40/19 12/35/19 57/153/19 52/139/19
f 13/41/44 52/140/44 55/147/44 10/27/44
f 170/444/6 88/228/6 74/195/6 163/427/6
f 8/23/15 54/145/15 53/142/15 5/14/15
f 62/164/10 60/160/10 148/391/10 149/392/10
f 7/20/11 50/135/11 51/137/11 9/25/11
f 9/25/46 51/137/46 56/151/46 11/33/46
f 61/161/48 100/261/48 101/267/48 59/156/48
f 91/236/49 76/198/49 74/194/49 113/303/49
f 90/234/50 91/237/50 60/158/50 62/165/50
f 103/275/51 93/245/51 79/206/51 77/201/51
f 95/248/52 90/234/52 62/165/52 64/168/52
f 93/245/53 92/242/53 81/212/53 79/206/53
f 94/247/54 95/250/54 64/169/54 66/174/54
f 94/247/55 97/255/55 84/218/55 83/216/55
f 98/257/56 96/251/56 68/178/56 70/185/56
f 97/254/57 99/259/57 87/227/57 84/219/57
f 100/262/58 98/257/58 70/185/58 73/191/58
f 96/253/59 94/247/59 66/174/59 68/179/59
f 98/258/60 100/263/60 61/162/60 63/167/60
f 91/238/61 90/235/61 78/204/61 76/199/61
f 96/252/62 98/258/62 63/167/62 65/171/62
f 78/204/63 90/235/63 95/249/63 80/209/63
f 67/176/64 94/247/64 96/253/64 65/172/64
f 95/250/65 94/247/65 82/214/65 80/210/65
f 97/255/66 94/247/66 67/176/66 69/182/66
f 82/214/67 94/247/67 92/244/67 85/221/67
f 71/187/68 99/260/68 97/256/68 69/183/68
f 85/222/69 92/243/69 93/246/69 86/224/69
f 100/264/70 73/192/70 58/154/70 114/305/70
f 99/259/71 102/270/71 89/232/71 87/227/71
f 103/276/72 77/202/72 75/196/72 112/301/72
f 93/246/73 103/277/73 88/229/73 86/224/73
f 102/271/74 99/260/74 71/187/74 72/188/74
f 88/230/75 103/278/75 113/303/75 74/194/75
f 89/233/76 102/272/76 112/301/76 75/196/76
f 60/159/77 91/239/77 114/305/77 58/154/77
f 102/273/78 72/189/78 59/156/78 101/267/78
f 92/244/79 94/247/79 83/216/79 81/213/79
f 102/274/80 111/299/80 110/296/80 112/302/80
f 109/293/81 103/279/81 112/302/81 110/296/81
f 108/292/82 113/304/82 103/280/82 109/294/82
f 107/289/83 91/240/83 113/304/83 108/292/83
f 106/286/84 114/306/84 91/241/84 107/290/84
f 105/283/85 100/265/85 114/306/85 106/286/85
f 104/281/86 101/268/86 100/266/86 105/284/86
f 180/469/1 61/163/1 59/157/1 179/467/1
f 64/170/10 150/394/10 151/397/10 66/175/10
f 65/173/1 182/474/1 183/477/1 67/177/1
f 152/399/10 68/180/10 66/175/10 151/397/10
f 76/200/6 164/429/6 163/427/6 74/195/6
f 132/349/4 131/347/4 75/197/4 77/203/4
f 165/432/6 164/429/6 76/200/6 78/205/6
f 132/349/4 77/203/4 79/207/4 133/352/4
f 136/359/4 135/357/4 83/217/4 84/220/4
f 168/439/6 167/437/6 82/215/6 85/223/6
f 168/439/6 85/223/6 86/225/6 169/442/6
f 73/193/10 154/404/10 147/388/10 58/155/10
f 179/467/1 59/157/1 72/190/1 186/484/1
f 115/307/30 116/310/30 104/282/30 105/285/30
f 115/307/30 105/285/30 106/287/30 118/314/30
f 122/324/30 121/321/30 109/295/30 110/297/30
f 122/324/30 110/297/30 111/300/30 123/326/30
f 124/329/35 129/342/35 122/325/35 123/327/35
f 117/312/31 124/330/31 123/328/31 116/311/31
f 116/311/29 115/308/29 130/344/29 117/312/29
f 115/309/28 118/315/28 125/332/28 130/345/28
f 118/315/27 119/317/27 126/334/27 125/332/27
f 119/318/26 120/320/26 127/338/26 126/335/26
f 120/320/25 121/322/25 128/340/25 127/338/25
f 121/323/24 122/325/24 129/342/24 128/341/24
f 19/58/87 24/70/87 129/343/87 124/331/87
f 18/55/88 19/58/88 124/331/88 117/313/88
f 25/73/89 18/55/89 117/313/89 130/346/89
f 20/60/90 25/73/90 130/346/90 125/333/90
f 21/63/91 20/60/91 125/333/91 126/336/91
f 145/382/42 132/350/42 133/353/42 143/377/42
f 143/377/41 133/353/41 134/355/41 140/369/41
f 139/367/40 135/358/40 136/360/40 141/373/40
f 141/374/39 136/361/39 137/363/39 142/376/39
f 142/376/38 137/363/38 138/365/38 144/379/38
f 145/383/17 146/385/17 131/348/17 132/351/17
f 140/370/36 134/356/36 135/358/36 139/367/36
f 138/366/18 131/348/18 146/385/18 144/380/18
f 30/85/92 32/91/92 145/384/92 143/378/92
f 29/83/93 26/76/93 140/371/93 139/368/93
f 33/93/94 31/88/94 144/381/94 146/386/94
f 32/91/95 33/93/95 146/386/95 145/384/95
f 155/407/42 149/393/42 148/389/42 156/409/42
f 160/420/41 150/395/41 149/393/41 155/407/41
f 158/415/36 151/398/36 150/396/36 160/421/36
f 161/423/39 153/403/39 152/400/39 159/417/39
f 157/413/38 154/405/38 153/403/38 161/423/38
f 157/414/18 162/426/18 147/387/18 154/406/18
f 159/418/40 152/401/40 151/398/40 158/415/40
f 148/390/17 147/387/17 162/426/17 156/410/17
f 46/126/96 48/131/96 161/424/96 159/419/96
f 47/129/97 45/123/97 158/416/97 160/422/97
f 42/115/98 47/129/98 160/422/98 155/408/98
f 43/118/99 42/115/99 155/408/99 156/411/99
f 176/459/46 164/430/46 165/433/46 177/462/46
f 173/452/12 166/435/12 167/438/12 174/455/12
f 175/458/44 169/443/44 170/445/44 172/449/44
f 176/460/22 171/447/22 163/428/22 164/431/22
f 170/446/19 163/428/19 171/447/19 172/450/19
f 168/440/16 169/443/16 175/458/16 178/465/16
f 167/438/15 168/441/15 178/466/15 174/455/15
f 165/433/11 166/436/11 173/453/11 177/462/11
f 36/101/100 35/99/100 173/454/100 174/456/100
f 35/99/101 39/108/101 177/463/101 173/454/101
f 39/108/102 38/106/102 176/461/102 177/463/102
f 38/106/103 41/113/103 171/448/103 176/461/103
f 41/113/104 34/96/104 172/451/104 171/448/104
f 188/490/46 181/473/46 180/470/46 193/503/46
f 187/487/11 182/475/11 181/473/11 188/490/11
f 191/497/15 184/480/15 183/478/15 190/495/15
f 189/492/44 186/485/44 185/483/44 192/500/44
f 189/493/19 194/506/19 179/468/19 186/486/19
f 180/471/22 179/468/22 194/506/22 193/504/22
f 185/483/16 184/481/16 191/498/16 192/500/16
f 183/478/12 182/476/12 187/488/12 190/495/12
f 55/148/105 52/141/105 189/494/105 192/501/105
f 54/146/106 55/148/106 192/501/106 191/499/106
f 53/143/107 54/146/107 191/499/107 190/496/107
f 50/136/108 53/143/108 190/496/108 187/489/108
f 51/138/109 50/136/109 187/489/109 188/491/109
f 58/155/10 147/388/10 148/391/10 60/160/10
