# Blender 3.3.1
# www.blender.org
mtllib model.mtl
o Pipe6
v 1.000000 0.000000 1.000000
v 0.707107 0.707107 0.707107
v -1.000000 -0.000000 1.000000
v 1.000000 0.000000 -1.000000
v -1.000000 -0.000000 -1.000000
v 0.707107 0.707107 -0.707107
v 0.000000 1.000000 -1.000000
v -0.707107 0.707107 -0.707107
v -0.707107 0.707107 0.707107
v -1.000000 1.000000 -0.000000
v 0.000000 1.000000 1.000000
v 1.000000 1.000000 0.000000
v 0.707107 -0.707107 0.707107
v 0.707107 -0.707107 -0.707107
v 0.000000 -1.000000 -1.000000
v -0.707107 -0.707107 -0.707107
v -0.707107 -0.707107 0.707107
v -1.000000 -1.000000 -0.000000
v 0.000000 -1.000000 1.000000
v 1.000000 -1.000000 0.000000
v 0.000000 4.660000 -1.000000
v -0.707107 4.635104 -0.707107
v 1.000000 4.660000 0.000000
v 0.707107 4.635104 0.707107
v 0.000000 4.660000 1.000000
v -0.707107 4.635104 0.707107
v -1.000000 4.660000 -0.000000
v 0.707107 4.635104 -0.707107
v 4.660000 0.000000 1.000000
v 4.635104 0.707107 0.707107
v 4.635104 0.707107 -0.707107
v 4.660000 0.000000 -1.000000
v 4.660000 1.000000 0.000000
v 4.635104 -0.707106 0.707107
v 4.635104 -0.707106 -0.707107
v 4.660000 -1.000000 0.000000
v -0.707107 0.707107 4.635104
v -1.000000 -0.000000 4.660000
v 0.707107 0.707107 4.635104
v 1.000000 0.000000 4.660000
v -0.000000 1.000000 4.660000
v -0.707107 -0.707107 4.635104
v 0.707107 -0.707107 4.635104
v 0.000000 -1.000000 4.660000
v -4.640000 -0.000000 -1.000000
v -4.640000 -0.000000 1.000000
v -4.613640 0.707107 -0.707107
v -4.613640 0.707107 0.707107
v -4.640000 1.000000 -0.000000
v -4.613640 -0.707107 -0.707107
v -4.613640 -0.707107 0.707107
v -4.640000 -1.000000 -0.000000
v 1.000000 0.000000 -4.660000
v -0.707106 0.707107 -4.635104
v -1.000000 -0.000000 -4.660000
v 0.707107 0.707107 -4.635104
v 0.000000 1.000000 -4.660000
v -0.707106 -0.707107 -4.635104
v 0.707107 -0.707107 -4.635104
v 0.000000 -1.000000 -4.660000
v 0.000000 -4.640000 -1.000000
v -0.707106 -4.613640 -0.707107
v 1.000000 -4.640000 0.000000
v 0.707107 -4.613640 0.707107
v 0.000000 -4.640000 1.000000
v -0.707106 -4.613640 0.707107
v -1.000000 -4.640000 -0.000000
v 0.707107 -4.613640 -0.707107
v 5.000000 0.900000 0.000000
v 0.000000 0.900000 -5.000000
v 5.000000 0.636396 0.636396
v 0.636396 0.636396 -5.000000
v 5.000000 0.000000 0.900000
v 0.900000 0.000000 -5.000000
v 5.000000 0.000000 -0.900000
v -0.900000 -0.000000 -5.000000
v -0.636396 0.636396 -5.000000
v 5.000000 0.636396 -0.636396
v -0.000000 0.900000 5.000000
v -5.000000 0.900000 -0.000000
v 0.636396 0.636396 5.000000
v -5.000000 0.636396 0.636396
v 0.900000 0.000000 5.000000
v -5.000000 -0.000000 0.900000
v -0.900000 -0.000000 5.000000
v -5.000000 -0.000000 -0.900000
v -0.636396 0.636396 5.000000
v -5.000000 0.636396 -0.636396
v 0.929289 0.000000 0.929289
v 0.649372 0.649372 0.649372
v -0.929289 -0.000000 0.929289
v 0.929290 0.000000 -0.929289
v -0.929289 -0.000000 -0.929289
v 0.649372 0.649372 -0.649372
v 0.000000 0.929289 -0.929289
v -0.649372 0.649372 -0.649372
v -0.649372 0.649372 0.649372
v -0.000000 5.000000 -0.900000
v 0.636396 5.000000 -0.636396
v 0.900000 5.000000 0.000000
v 0.636396 5.000000 0.636396
v 0.000000 5.000000 0.900000
v -0.636396 5.000000 0.636396
v -0.900000 5.000000 -0.000000
v -0.636396 5.000000 -0.636396
v -0.929289 0.929289 -0.000000
v 0.000000 0.929289 0.929289
v 0.929289 0.929289 0.000000
v 5.000000 -0.900000 0.000000
v 0.000000 -0.900000 -5.000000
v 5.000000 -0.636396 0.636396
v 0.636396 -0.636396 -5.000000
v -0.636396 -0.636396 -5.000000
v 5.000000 -0.636396 -0.636396
v 0.000000 -0.900000 5.000000
v -5.000000 -0.900000 -0.000000
v 0.636396 -0.636396 5.000000
v -5.000000 -0.636397 0.636396
v -0.636396 -0.636396 5.000000
v -5.000000 -0.636397 -0.636396
v 0.649372 -0.649372 0.649372
v 0.649372 -0.649372 -0.649372
v 0.000000 -0.929289 -0.929289
v -0.649372 -0.649372 -0.649372
v -0.649372 -0.649372 0.649372
v 0.000000 -5.000000 -0.900000
v 0.636397 -5.000000 -0.636396
v 0.900000 -5.000000 0.000000
v 0.636397 -5.000000 0.636396
v 0.000000 -5.000000 0.900000
v -0.636396 -5.000000 0.636396
v -0.899999 -5.000000 0.000000
v -0.636396 -5.000000 -0.636396
v -0.929289 -0.929289 -0.000000
v 0.000000 -0.929289 0.929289
v 0.929289 -0.929289 0.000000
v 1.060660 5.000000 -1.060660
v 0.000000 5.000000 -1.500000
v 0.000000 4.660000 -1.500000
v 1.500000 5.000000 0.000000
v 1.060660 5.000000 1.060660
v 0.000000 5.000000 1.500000
v -1.060660 5.000000 1.060660
v -1.500000 5.000000 0.000000
v -1.060660 5.000000 -1.060660
v -1.060660 4.635104 -1.060660
v 1.500000 4.660000 0.000000
v 1.060660 4.635104 1.060660
v 0.000000 4.660000 1.500000
v -1.060660 4.635104 1.060660
v -1.500000 4.660000 -0.000000
v 1.060660 4.635104 -1.060660
v 1.060661 -5.000000 -1.060660
v 0.000001 -5.000000 -1.500000
v 0.000001 -4.640000 -1.500000
v 1.500000 -5.000000 0.000000
v 1.060661 -5.000000 1.060660
v 0.000001 -5.000000 1.500000
v -1.060660 -5.000000 1.060660
v -1.499999 -5.000000 0.000000
v -1.060660 -5.000000 -1.060660
v -1.060660 -4.613640 -1.060660
v 1.500000 -4.640000 0.000000
v 1.060661 -4.613640 1.060660
v 0.000001 -4.640000 1.500000
v -1.060660 -4.613640 1.060660
v -1.499999 -4.640000 -0.000000
v 1.060661 -4.613640 -1.060660
v -5.000000 1.500000 -0.000000
v -5.000000 1.060660 1.060660
v -5.000000 -0.000000 1.500000
v -5.000000 -0.000000 -1.500000
v -5.000000 1.060660 -1.060660
v -5.000000 -1.500001 -0.000000
v -5.000000 -1.060661 1.060660
v -5.000000 -1.060661 -1.060660
v -4.640000 -0.000000 -1.500000
v -4.640000 -0.000000 1.500000
v -4.613640 1.060660 -1.060660
v -4.613640 1.060660 1.060660
v -4.640000 1.500000 -0.000000
v -4.613640 -1.060661 -1.060660
v -4.613640 -1.060661 1.060660
v -4.640000 -1.500001 -0.000000
v 5.000000 1.500000 0.000000
v 5.000000 1.060660 1.060660
v 5.000000 0.000000 1.500000
v 5.000000 0.000000 -1.500000
v 5.000000 1.060660 -1.060660
v 5.000000 -1.500000 0.000000
v 5.000000 -1.060660 1.060660
v 5.000000 -1.060660 -1.060660
v 4.660000 0.000000 1.500000
v 4.635104 1.060660 1.060660
v 4.635104 1.060660 -1.060660
v 4.660000 0.000000 -1.500000
v 4.660000 1.500000 0.000000
v 4.635104 -1.060660 1.060660
v 4.635104 -1.060660 -1.060660
v 4.660000 -1.500000 0.000000
v 0.000000 1.500000 5.000000
v 1.060660 1.060660 5.000000
v 1.500000 0.000000 5.000000
v -1.500000 -0.000000 5.000000
v -1.060660 1.060660 5.000000
v 0.000000 1.500000 4.660000
v 0.000000 -1.500000 5.000000
v 1.060660 -1.060660 5.000000
v -1.060660 -1.060660 5.000000
v 0.000000 -1.500000 4.660000
v -1.060660 1.060660 4.635104
v -1.500000 -0.000000 4.660000
v 1.060660 1.060660 4.635104
v 1.500000 0.000000 4.660000
v -1.060660 -1.060660 4.635104
v 1.060660 -1.060660 4.635104
v 0.000000 1.500000 -5.000000
v 1.060660 1.060660 -5.000000
v 1.500000 0.000000 -5.000000
v -1.500000 -0.000000 -5.000000
v -1.060660 1.060660 -5.000000
v 0.000000 -1.500000 -5.000000
v 1.060660 -1.060660 -5.000000
v -1.060660 -1.060660 -5.000000
v 1.500000 0.000000 -4.660000
v -1.060660 1.060660 -4.635104
v -1.500000 -0.000000 -4.660000
v 1.060660 1.060660 -4.635104
v 0.000000 1.500000 -4.660000
v -1.060660 -1.060660 -4.635104
v 1.060660 -1.060660 -4.635104
v 0.000000 -1.500000 -4.660000
vn -0.0000 -0.0000 -1.0000
vn -1.0000 -0.0000 -0.0000
vn -0.9997 -0.0240 -0.0100
vn 0.9996 0.0254 -0.0105
vn -0.9997 0.0100 0.0240
vn 1.0000 -0.0000 -0.0000
vn 0.0240 -0.0100 0.9997
vn 0.0100 0.0240 -0.9997
vn -0.0000 0.9239 0.3827
vn -0.0000 -0.0000 1.0000
vn -0.0000 0.9239 -0.3827
vn -0.3827 0.9239 -0.0000
vn 0.3827 0.9239 -0.0000
vn -0.0100 -0.9997 0.0240
vn -0.9239 -0.0000 0.3827
vn -0.3827 -0.0000 0.9239
vn 0.3827 -0.0000 0.9239
vn 0.9239 -0.0000 0.3827
vn 0.9239 -0.0000 -0.3827
vn 0.3827 -0.0000 -0.9239
vn -0.0100 -0.9997 -0.0240
vn 0.9996 -0.0105 -0.0254
vn -0.9997 0.0100 -0.0240
vn -0.0240 -0.0100 0.9997
vn -0.0100 0.0240 -0.9997
vn 0.0100 -0.0240 0.9997
vn -0.0000 -0.9239 0.3827
vn -0.0000 -0.9239 -0.3827
vn -0.3827 -0.9239 -0.0000
vn 0.0240 -0.0100 -0.9997
vn 0.3827 -0.9239 -0.0000
vn 0.0254 0.9996 -0.0105
vn -0.0000 -1.0000 -0.0000
vn -0.3827 -0.0000 -0.9239
vn -0.0000 1.0000 -0.0000
vn 0.0240 -0.9997 0.0100
vn -0.0240 -0.9997 0.0100
vn 0.0100 -0.9997 -0.0240
vn -0.9239 -0.0000 -0.3827
vn -0.9997 0.0240 0.0100
vn -0.0000 -0.3827 -0.9239
vn -0.0000 -0.3827 0.9239
vn -0.9997 0.0240 -0.0100
vn -0.0000 0.3827 -0.9239
vn -0.0000 0.3827 0.9239
vn -0.9239 -0.3827 -0.0000
vn 0.9239 -0.3827 -0.0000
vn -0.9239 0.3827 -0.0000
vn 0.9239 0.3827 -0.0000
vn 0.9996 -0.0105 0.0254
vn 0.9996 -0.0254 0.0105
vn -0.0100 -0.0240 0.9997
vn -0.0105 0.9996 0.0254
vn -0.0105 0.9996 -0.0254
vn 0.0254 0.9996 0.0105
vn -0.3903 0.9207 -0.0052
vn -0.3903 0.9207 0.0052
vn -0.0052 -0.3903 -0.9207
vn 0.0052 -0.3903 -0.9207
vn -0.0052 -0.3903 0.9207
vn 0.3903 0.0052 0.9207
vn 0.0052 0.9207 0.3903
vn -0.9207 -0.3903 0.0052
vn -0.9207 -0.3903 -0.0052
vn -0.0052 -0.9207 0.3903
vn 0.0052 -0.3903 0.9207
vn 0.0052 -0.9207 -0.3903
vn 0.9207 -0.3903 -0.0052
vn 0.9207 -0.3903 0.0052
vn 0.3903 -0.9207 -0.0052
vn 0.3903 -0.9207 0.0052
vn -0.0052 0.9207 -0.3903
vn 0.9207 -0.0052 0.3903
vn 0.9207 -0.0052 -0.3903
vn 0.3903 -0.0052 -0.9207
vn -0.3903 -0.0052 -0.9207
vn -0.9207 -0.0052 -0.3903
vn -0.9207 -0.0052 0.3903
vn -0.3903 -0.0052 0.9207
vn -0.0052 -0.9207 -0.3903
vn 0.0052 -0.9207 0.3903
vn -0.0052 0.3903 -0.9207
vn 0.0052 0.3903 -0.9207
vn -0.0052 0.3903 0.9207
vn -0.3903 -0.9207 0.0052
vn -0.3903 -0.9207 -0.0052
vn -0.9207 0.3903 0.0052
vn -0.9207 0.3903 -0.0052
vn -0.0052 0.9207 0.3903
vn 0.0052 0.3903 0.9207
vn 0.0052 0.9207 -0.3903
vn 0.9207 0.3903 -0.0052
vn 0.9207 0.3903 0.0052
vn 0.3903 0.9207 -0.0052
vn 0.3903 0.9207 0.0052
vn 0.9207 0.0052 0.3903
vn 0.9207 0.0052 -0.3903
vn 0.3903 0.0052 -0.9207
vn -0.3903 0.0052 -0.9207
vn -0.9207 0.0052 -0.3903
vn -0.9207 0.0052 0.3903
vn -0.3903 0.0052 0.9207
vn 0.3903 -0.0052 0.9207
vn 0.0240 -0.9997 -0.0100
vn -0.0240 -0.9997 -0.0100
vn 0.0100 -0.9997 0.0240
vn -0.0254 0.9996 -0.0105
vn 0.0105 0.9996 0.0254
vn 0.0105 0.9996 -0.0254
vn -0.0254 0.9996 0.0105
vn 0.9996 0.0254 0.0105
vn 0.9996 0.0105 0.0254
vn 0.9996 0.0105 -0.0254
vn 0.9996 -0.0254 -0.0105
vn -0.9997 -0.0240 0.0100
vn -0.9997 -0.0100 -0.0240
vn -0.9997 -0.0100 0.0240
vn -0.0240 0.0100 -0.9997
vn 0.0240 0.0100 -0.9997
vn -0.0100 -0.0240 -0.9997
vn 0.0100 -0.0240 -0.9997
vn -0.0240 -0.0100 -0.9997
vn -0.0100 0.0240 0.9997
vn 0.0100 0.0240 0.9997
vn -0.0240 0.0100 0.9997
vn 0.0240 0.0100 0.9997
vt 0.155684 0.776231
vt 0.853611 0.796575
vt 0.793118 0.124327
vt 0.835275 0.511864
vt 0.791708 0.355398
vt 0.174019 0.783826
vt 0.254343 0.783826
vt 0.835275 0.804170
vt 0.544380 0.817202
vt 0.891778 0.116213
vt 0.853113 0.347803
vt 0.383734 0.817379
vt 0.934418 0.347284
vt 0.624703 0.817202
vt 0.791624 0.409363
vt 0.755037 0.355398
vt 0.058497 0.743162
vt 0.829790 0.124327
vt 0.835360 0.355398
vt 0.402069 0.824974
vt 0.040162 0.735049
vt 0.773288 0.416958
vt 0.137348 0.929460
vt 0.021826 0.743162
vt 0.791624 0.658017
vt 0.952171 0.354879
vt 0.754952 0.409363
vt 0.606367 0.824797
vt 0.217671 0.783826
vt 0.754952 0.658017
vt 0.871947 0.511864
vt 0.562716 0.824797
vt 0.174019 0.929460
vt 0.873442 0.123808
vt 0.773288 0.650422
vt 0.155684 0.921865
vt 0.853611 0.504269
vt 0.236007 0.776231
vt 0.773373 0.347803
vt 0.811454 0.116732
vt 0.871947 0.658017
vt 0.058497 0.888796
vt 0.835276 0.949804
vt 0.137348 0.783826
vt 0.791624 0.701668
vt 0.871947 0.804170
vt 0.482393 0.824797
vt 0.871947 0.949804
vt 0.915599 0.510553
vt 0.835275 0.658017
vt 0.871940 0.355398
vt 0.365398 0.824974
vt 0.464057 0.817202
vt 0.933934 0.503514
vt 0.254343 0.929460
vt 0.915591 0.354879
vt 0.445721 0.824797
vt 0.643039 0.824797
vt 0.952270 0.510553
vt 0.754952 0.949804
vt 0.754952 0.701668
vt 0.791624 0.949804
vt 0.021826 0.888796
vt 0.526044 0.824797
vt 0.217671 0.929460
vt 0.910113 0.123808
vt 0.236007 0.921865
vt 0.773288 0.942209
vt 0.040162 0.881201
vt 0.773288 0.709263
vt 0.853611 0.942209
vt 0.853611 0.650422
vt 0.040162 0.640380
vt 0.047838 0.312762
vt 0.021826 0.641562
vt 0.791624 0.556161
vt 0.067684 0.312762
vt 0.773373 0.252896
vt 0.033804 0.278882
vt 0.835275 0.410008
vt 0.791708 0.253542
vt 0.047838 0.264848
vt 0.853611 0.409363
vt 0.067684 0.264848
vt 0.754952 0.556161
vt 0.871947 0.410008
vt 0.081718 0.278882
vt 0.081718 0.298728
vt 0.773288 0.555515
vt 0.755037 0.253542
vt 0.058497 0.641562
vt 0.033804 0.298728
vt 0.155684 0.681325
vt 0.278882 0.312762
vt 0.793118 0.022471
vt 0.174019 0.681971
vt 0.264848 0.298729
vt 0.278882 0.264848
vt 0.829790 0.022471
vt 0.835360 0.253542
vt 0.298728 0.264848
vt 0.853113 0.252896
vt 0.264848 0.278882
vt 0.811454 0.021826
vt 0.871947 0.556161
vt 0.137348 0.681971
vt 0.298728 0.312762
vt 0.835275 0.556161
vt 0.871940 0.253542
vt 0.312762 0.278882
vt 0.853611 0.555515
vt 0.312762 0.298728
vt 0.217671 0.681971
vt 0.562716 0.722941
vt 0.380352 0.067671
vt 0.544380 0.722295
vt 0.394378 0.081712
vt 0.254343 0.681971
vt 0.835275 0.702314
vt 0.394403 0.033798
vt 0.853611 0.701668
vt 0.414250 0.033808
vt 0.236007 0.681325
vt 0.380422 0.047849
vt 0.754952 0.803524
vt 0.414140 0.081687
vt 0.526044 0.722941
vt 0.791624 0.803524
vt 0.871947 0.702314
vt 0.428191 0.047814
vt 0.773288 0.804170
vt 0.428205 0.067671
vt 0.934418 0.252896
vt 0.149326 0.047838
vt 0.891778 0.021826
vt 0.197240 0.067684
vt 0.137348 0.828161
vt 0.952171 0.253580
vt 0.163360 0.033804
vt 0.174019 0.828161
vt 0.873442 0.022510
vt 0.197240 0.047838
vt 0.155684 0.827477
vt 0.183207 0.033804
vt 0.254343 0.828161
vt 0.149326 0.067684
vt 0.915591 0.253580
vt 0.217671 0.828161
vt 0.910113 0.022510
vt 0.183206 0.081718
vt 0.163360 0.081718
vt 0.236007 0.827477
vt 0.383734 0.722473
vt 0.278882 0.197240
vt 0.754952 0.511218
vt 0.606367 0.722941
vt 0.278882 0.149326
vt 0.624703 0.722295
vt 0.298728 0.149326
vt 0.791624 0.511218
vt 0.402069 0.723118
vt 0.264848 0.183207
vt 0.773288 0.511864
vt 0.264848 0.163360
vt 0.445721 0.722941
vt 0.643039 0.722941
vt 0.312762 0.163360
vt 0.482393 0.722941
vt 0.365398 0.723118
vt 0.298729 0.197240
vt 0.312762 0.183206
vt 0.464057 0.722295
vt 0.933934 0.409363
vt 0.067684 0.081718
vt 0.952270 0.409508
vt 0.047838 0.081718
vt 0.754952 0.848505
vt 0.853611 0.847821
vt 0.081718 0.047838
vt 0.058497 0.787498
vt 0.835276 0.848505
vt 0.067684 0.033804
vt 0.040162 0.786814
vt 0.047838 0.033804
vt 0.791624 0.848505
vt 0.021826 0.787498
vt 0.033804 0.047838
vt 0.033804 0.067684
vt 0.773288 0.847821
vt 0.871947 0.848505
vt 0.915599 0.409508
vt 0.081718 0.067684
vt 0.385231 0.566006
vt 0.036200 0.395396
vt 0.617217 0.409363
vt 0.382735 0.182186
vt 0.678020 0.565829
vt 0.401733 0.566006
vt 0.048830 0.382766
vt 0.382735 0.164330
vt 0.523386 0.409363
vt 0.633720 0.409363
vt 0.066692 0.382766
vt 0.694964 0.565829
vt 0.395339 0.151727
vt 0.539889 0.409363
vt 0.617217 0.565829
vt 0.048830 0.425889
vt 0.231515 0.368392
vt 0.413162 0.194865
vt 0.248018 0.368392
vt 0.600715 0.409363
vt 0.395339 0.194834
vt 0.633720 0.565829
vt 0.368729 0.566006
vt 0.036200 0.413258
vt 0.617218 0.365711
vt 0.151722 0.164352
vt 0.038664 0.596729
vt 0.066692 0.151722
vt 0.594473 0.021826
vt 0.633720 0.365711
vt 0.151722 0.182214
vt 0.048830 0.151722
vt 0.678020 0.522177
vt 0.055167 0.596729
vt 0.577970 0.021826
vt 0.164352 0.194844
vt 0.036200 0.164352
vt 0.694964 0.522177
vt 0.154186 0.368392
vt 0.182214 0.151722
vt 0.462560 0.252896
vt 0.079322 0.182214
vt 0.137684 0.368392
vt 0.600715 0.365711
vt 0.164352 0.151722
vt 0.446057 0.252896
vt 0.022162 0.596729
vt 0.079322 0.164352
vt 0.695017 0.671386
vt 0.577970 0.127382
vt 0.677708 0.678644
vt 0.594809 0.134641
vt 0.749467 0.134382
vt 0.214677 0.637673
vt 0.402069 0.678821
vt 0.634056 0.252896
vt 0.695018 0.416621
vt 0.154186 0.473948
vt 0.617217 0.671386
vt 0.539889 0.514919
vt 0.462560 0.358453
vt 0.231515 0.473948
vt 0.634056 0.678644
vt 0.523050 0.522178
vt 0.368392 0.678821
vt 0.248354 0.637673
vt 0.638461 0.134641
vt 0.634056 0.522178
vt 0.617217 0.514919
vt 0.655299 0.127382
vt 0.445721 0.365711
vt 0.248354 0.481207
vt 0.600379 0.522178
vt 0.137348 0.637673
vt 0.021826 0.483914
vt 0.672138 0.134641
vt 0.677708 0.409363
vt 0.055503 0.483914
vt 0.137348 0.481207
vt 0.600379 0.252896
vt 0.171025 0.637673
vt 0.715790 0.134382
vt 0.182214 0.310366
vt 0.655299 0.021826
vt 0.194844 0.297736
vt 0.248018 0.524858
vt 0.638797 0.021826
vt 0.231516 0.524858
vt 0.194844 0.279874
vt 0.749130 0.021826
vt 0.215013 0.524858
vt 0.182214 0.267244
vt 0.732628 0.022309
vt 0.164352 0.267244
vt 0.170689 0.524858
vt 0.716126 0.021826
vt 0.151722 0.279874
vt 0.151722 0.297736
vt 0.154186 0.524858
vt 0.137684 0.524858
vt 0.164352 0.310366
vt 0.671801 0.021826
vt 0.154186 0.630415
vt 0.038664 0.491173
vt 0.732628 0.127655
vt 0.617218 0.260155
vt 0.231516 0.630415
vt 0.385231 0.671563
vt 0.694546 0.252896
vt 0.079322 0.413258
vt 0.462560 0.409363
vt 0.425766 0.164407
vt 0.678044 0.252896
vt 0.710941 0.565829
vt 0.079322 0.395396
vt 0.446057 0.409363
vt 0.556391 0.409363
vt 0.413162 0.151759
vt 0.215013 0.368392
vt 0.479062 0.409363
vt 0.425766 0.182262
vt 0.600715 0.565829
vt 0.711048 0.252896
vt 0.066692 0.425889
vt 0.500641 0.134641
vt 0.194844 0.182214
vt 0.539889 0.365711
vt 0.048830 0.194844
vt 0.484139 0.134641
vt 0.561468 0.021826
vt 0.182214 0.194844
vt 0.710942 0.522177
vt 0.523386 0.365711
vt 0.036200 0.182214
vt 0.194844 0.164352
vt 0.170689 0.368392
vt 0.517144 0.134641
vt 0.066692 0.194844
vt 0.556391 0.365711
vt 0.479062 0.252896
vt 0.483803 0.021826
vt 0.677708 0.365711
vt 0.711301 0.678644
vt 0.561132 0.134641
vt 0.368392 0.365888
vt 0.523050 0.565829
vt 0.445721 0.522178
vt 0.600379 0.678644
vt 0.556727 0.522178
vt 0.711385 0.365711
vt 0.556727 0.565829
vt 0.402069 0.522355
vt 0.462560 0.514919
vt 0.385231 0.515096
vt 0.368392 0.522355
vt 0.556727 0.252896
vt 0.479398 0.365711
vt 0.214677 0.481207
vt 0.479398 0.522178
vt 0.445721 0.565829
vt 0.711301 0.409363
vt 0.523050 0.252896
vt 0.171025 0.481207
vt 0.517480 0.021826
vt 0.479398 0.565829
vt 0.402069 0.365888
vt 0.385231 0.409540
vt 0.279874 0.079322
vt 0.556391 0.678644
vt 0.401733 0.409540
vt 0.267244 0.066692
vt 0.539889 0.678644
vt 0.267244 0.048830
vt 0.279874 0.036200
vt 0.368729 0.253380
vt 0.523386 0.678644
vt 0.297736 0.036200
vt 0.385231 0.252896
vt 0.479062 0.678644
vt 0.401733 0.253380
vt 0.310366 0.048830
vt 0.462560 0.678644
vt 0.310366 0.066692
vt 0.368729 0.409540
vt 0.446057 0.678644
vt 0.297736 0.079322
vt 0.539889 0.260155
vt 0.462560 0.573088
vt 0.500641 0.029084
vt 0.385231 0.358135
vt 0.694546 0.358453
vt 0.539889 0.573088
vt 0.209219 0.303690
vt 0.292811 0.368392
vt 0.925061 0.654174
vt 0.188168 0.324741
vt 0.292006 0.395896
vt 0.300800 0.395896
vt 0.042876 0.324741
vt 0.209219 0.273921
vt 0.925061 0.681678
vt 0.188168 0.252870
vt 0.925061 0.709182
vt 0.925061 0.752833
vt 0.158398 0.252870
vt 0.925061 0.780337
vt 0.137348 0.273921
vt 0.925061 0.807841
vt 0.925061 0.555516
vt 0.137348 0.303690
vt 0.925061 0.583019
vt 0.158398 0.324741
vt 0.925061 0.610523
vt 0.292811 0.423399
vt 0.915599 0.610523
vt 0.302249 0.423399
vt 0.072646 0.324741
vt 0.916244 0.681678
vt 0.021826 0.273921
vt 0.042876 0.252870
vt 0.915599 0.709182
vt 0.915599 0.752833
vt 0.072646 0.252870
vt 0.916244 0.780337
vt 0.093696 0.273921
vt 0.915599 0.807841
vt 0.915599 0.555516
vt 0.093696 0.303690
vt 0.916244 0.583019
vt 0.302249 0.368392
vt 0.915599 0.654174
vt 0.021826 0.303690
vt 0.252870 0.072646
vt 0.302123 0.467051
vt 0.686690 0.722295
vt 0.273921 0.093696
vt 0.301317 0.494555
vt 0.292006 0.494555
vt 0.072646 0.093696
vt 0.252870 0.042876
vt 0.686690 0.749799
vt 0.273921 0.021826
vt 0.686690 0.777303
vt 0.297994 0.779984
vt 0.303690 0.021826
vt 0.297994 0.807487
vt 0.324741 0.042876
vt 0.297994 0.834991
vt 0.297994 0.681325
vt 0.324741 0.072646
vt 0.297994 0.708829
vt 0.303690 0.093696
vt 0.297994 0.736332
vt 0.302123 0.522058
vt 0.042876 0.093696
vt 0.308013 0.736332
vt 0.292130 0.522058
vt 0.696025 0.749799
vt 0.093696 0.042876
vt 0.696709 0.777303
vt 0.308013 0.779984
vt 0.072646 0.021826
vt 0.307329 0.807487
vt 0.042876 0.021826
vt 0.021826 0.042876
vt 0.308013 0.834991
vt 0.308013 0.681325
vt 0.021826 0.072646
vt 0.307329 0.708829
vt 0.292130 0.467051
vt 0.696709 0.722295
vt 0.093696 0.072646
vt 0.072646 0.137348
vt 0.686690 0.848458
vt 0.042876 0.137348
vt 0.292006 0.620717
vt 0.686690 0.820954
vt 0.021826 0.158398
vt 0.292006 0.593213
vt 0.093696 0.188168
vt 0.499391 0.895078
vt 0.093696 0.158398
vt 0.499391 0.868448
vt 0.686690 0.875962
vt 0.042876 0.209219
vt 0.445721 0.895952
vt 0.021826 0.188168
vt 0.292006 0.565710
vt 0.445721 0.923456
vt 0.072646 0.209219
vt 0.499391 0.923318
vt 0.445721 0.868448
vt 0.508726 0.895078
vt 0.137348 0.042876
vt 0.301341 0.593213
vt 0.209219 0.072646
vt 0.509410 0.868448
vt 0.696709 0.875962
vt 0.158398 0.021826
vt 0.302024 0.620717
vt 0.696709 0.820954
vt 0.209219 0.042876
vt 0.696025 0.848458
vt 0.188168 0.021826
vt 0.137348 0.072646
vt 0.509410 0.923318
vt 0.455740 0.868448
vt 0.302024 0.565710
vt 0.455740 0.923456
vt 0.188168 0.093696
vt 0.158398 0.093696
vt 0.455056 0.895952
vt 0.925061 0.878996
vt 0.021826 0.389443
vt 0.978174 0.807841
vt 0.925061 0.851492
vt 0.042876 0.368392
vt 0.072646 0.368392
vt 0.978174 0.780337
vt 0.042876 0.440263
vt 0.978174 0.878121
vt 0.021826 0.419212
vt 0.978174 0.851492
vt 0.925061 0.906500
vt 0.093696 0.419212
vt 0.307456 0.906146
vt 0.093696 0.389443
vt 0.978174 0.752833
vt 0.307456 0.933650
vt 0.072646 0.440263
vt 0.978174 0.906362
vt 0.307456 0.878643
vt 0.969358 0.780337
vt 0.273921 0.324741
vt 0.968712 0.807841
vt 0.915599 0.851492
vt 0.252870 0.303690
vt 0.273921 0.252870
vt 0.968712 0.851492
vt 0.915599 0.906500
vt 0.303690 0.252870
vt 0.969358 0.878121
vt 0.252870 0.273921
vt 0.916244 0.878996
vt 0.968712 0.752833
vt 0.297994 0.933650
vt 0.303690 0.324741
vt 0.968712 0.906362
vt 0.297994 0.878643
vt 0.324741 0.273921
vt 0.298640 0.906146
vt 0.324741 0.303690
vt 0.137348 0.158398
vt 0.606367 0.895952
vt 0.137348 0.188168
vt 0.978174 0.555516
vt 0.606367 0.868448
vt 0.158398 0.209219
vt 0.978174 0.583019
vt 0.188168 0.137348
vt 0.953765 0.049329
vt 0.158398 0.137348
vt 0.953765 0.021826
vt 0.606367 0.923456
vt 0.615183 0.895952
vt 0.368476 0.042893
vt 0.209219 0.188168
vt 0.374860 0.896129
vt 0.188168 0.209219
vt 0.978174 0.610523
vt 0.374860 0.868625
vt 0.209219 0.158398
vt 0.953765 0.076833
vt 0.374860 0.923633
vt 0.366044 0.896129
vt 0.440151 0.072627
vt 0.963227 0.021826
vt 0.615829 0.923456
vt 0.368392 0.072635
vt 0.962581 0.049329
vt 0.389410 0.093687
vt 0.968712 0.555516
vt 0.615829 0.868448
vt 0.389469 0.021826
vt 0.969358 0.583019
vt 0.419218 0.021833
vt 0.419074 0.093659
vt 0.963227 0.076833
vt 0.365398 0.923633
vt 0.968712 0.610523
vt 0.365398 0.868625
vt 0.440151 0.042850
vt 0.368392 0.188112
vt 0.696152 0.947117
vt 0.368392 0.158353
vt 0.953765 0.120485
vt 0.696152 0.919613
vt 0.389397 0.137348
vt 0.953765 0.147988
vt 0.419103 0.209245
vt 0.562524 0.895952
vt 0.389397 0.209192
vt 0.562524 0.868448
vt 0.696152 0.974621
vt 0.440109 0.158480
vt 0.968712 0.681678
vt 0.419103 0.137401
vt 0.953765 0.175492
vt 0.968712 0.654174
vt 0.440109 0.188239
vt 0.562524 0.923456
vt 0.968712 0.709182
vt 0.962581 0.147988
vt 0.273921 0.209219
vt 0.553061 0.868448
vt 0.686690 0.974621
vt 0.273921 0.137348
vt 0.553707 0.895952
vt 0.303690 0.137348
vt 0.963227 0.120485
vt 0.686690 0.919613
vt 0.252870 0.188168
vt 0.687336 0.947117
vt 0.252870 0.158398
vt 0.553061 0.923456
vt 0.978174 0.709182
vt 0.324741 0.158398
vt 0.963227 0.175492
vt 0.978174 0.654174
vt 0.303690 0.209219
vt 0.324741 0.188168
vt 0.977529 0.681678
s 0
usemtl Material.006
f 72/200/1 218/587/1 219/590/1 74/205/1
f 120/330/2 176/482/2 174/477/2 116/320/2
f 32/101/3 31/98/3 195/530/3 196/533/3
f 45/134/4 50/146/4 182/497/4 177/486/4
f 31/98/5 33/103/5 197/535/5 195/530/5
f 187/510/6 73/203/6 71/199/6 186/509/6
f 171/470/2 170/467/2 82/224/2 84/229/2
f 60/171/7 58/167/7 230/619/7 232/623/7
f 43/130/8 40/122/8 214/578/8 216/584/8
f 30/95/9 33/104/9 12/40/9 2/3/9
f 202/547/10 81/223/10 83/228/10 203/550/10
f 47/137/11 49/143/11 10/36/11 8/23/11
f 37/113/12 41/123/12 11/38/12 9/29/12
f 224/602/1 220/592/1 76/210/1 113/313/1
f 120/330/2 86/234/2 172/472/2 176/482/2
f 56/160/13 57/163/13 7/22/13 6/15/13
f 22/77/14 27/88/14 151/420/14 146/409/14
f 26/85/15 27/89/15 10/35/15 9/30/15
f 25/83/16 26/86/16 9/31/16 11/37/16
f 24/80/17 25/83/17 11/37/17 2/4/17
f 23/78/18 24/81/18 2/5/18 12/39/18
f 28/90/19 23/78/19 12/39/19 6/16/19
f 21/73/20 28/91/20 6/17/20 7/21/20
f 27/88/21 26/87/21 150/417/21 151/420/21
f 72/200/1 70/196/1 217/585/1 218/587/1
f 52/151/22 51/150/22 183/502/22 184/503/22
f 33/103/23 30/97/23 194/529/23 197/535/23
f 78/216/6 189/514/6 185/506/6 69/194/6
f 223/599/1 112/310/1 74/205/1 219/590/1
f 59/170/24 60/171/24 232/623/24 231/622/24
f 38/117/25 42/126/25 215/579/25 212/573/25
f 56/162/26 53/154/26 225/606/26 228/614/26
f 169/465/2 80/220/2 82/224/2 170/467/2
f 34/105/27 13/41/27 20/72/27 36/111/27
f 119/327/10 85/232/10 204/552/10 209/564/10
f 50/145/28 16/55/28 18/67/28 52/152/28
f 42/125/29 17/61/29 19/70/29 44/131/29
f 119/327/10 209/564/10 207/559/10 115/318/10
f 42/126/30 44/132/30 210/568/30 215/579/30
f 59/168/31 14/47/31 15/53/31 60/172/31
f 62/176/32 61/174/32 155/431/32 162/447/32
f 66/185/15 17/62/15 18/68/15 67/189/15
f 65/183/16 19/69/16 17/63/16 66/186/16
f 64/180/17 13/42/17 19/69/17 65/183/17
f 63/178/18 20/71/18 13/43/18 64/181/18
f 68/190/19 14/48/19 20/71/19 63/178/19
f 61/173/20 15/54/20 14/49/20 68/191/20
f 130/369/33 158/437/33 159/439/33 131/373/33
f 7/21/34 8/24/34 22/75/34 21/73/34
f 105/293/35 145/404/35 144/402/35 104/290/35
f 26/87/36 25/84/36 149/415/36 150/417/36
f 100/281/35 140/392/35 137/385/35 99/277/35
f 25/84/37 24/82/37 148/412/37 149/415/37
f 143/399/35 103/289/35 104/290/35 144/402/35
f 24/82/38 23/79/38 147/411/38 148/412/38
f 8/25/39 10/35/39 27/89/39 22/76/39
f 29/94/40 34/107/40 198/539/40 193/526/40
f 14/50/28 35/108/28 36/111/28 20/72/28
f 14/51/41 4/11/41 32/102/41 35/109/41
f 1/1/42 13/44/42 34/106/42 29/93/42
f 35/110/43 32/101/43 196/533/43 199/542/43
f 6/18/11 12/40/11 33/104/11 31/99/11
f 6/19/44 31/100/44 32/102/44 4/11/44
f 1/1/45 29/93/45 30/96/45 2/6/45
f 13/45/31 43/128/31 44/131/31 19/70/31
f 171/470/2 84/229/2 118/326/2 175/479/2
f 3/9/46 17/64/46 42/127/46 38/116/46
f 13/46/47 1/2/47 40/121/47 43/129/47
f 2/7/13 11/38/13 41/123/13 39/118/13
f 138/388/35 98/275/35 99/277/35 137/385/35
f 3/9/48 38/116/48 37/114/48 9/32/48
f 2/8/49 39/119/49 40/121/49 1/2/49
f 50/146/50 52/151/50 184/503/50 182/497/50
f 17/65/27 51/148/27 52/152/27 18/67/27
f 5/13/41 16/56/41 50/147/41 45/133/41
f 17/66/42 3/10/42 46/135/42 51/149/42
f 46/136/51 48/142/51 180/494/51 178/488/51
f 9/33/9 10/36/9 49/143/9 48/140/9
f 5/13/44 45/133/44 47/138/44 8/26/44
f 9/34/45 48/141/45 46/135/45 3/10/45
f 191/519/6 111/307/6 73/203/6 187/510/6
f 16/57/29 58/165/29 60/172/29 15/53/29
f 16/58/46 5/14/46 55/158/46 58/166/46
f 4/12/47 14/52/47 59/169/47 53/153/47
f 55/159/52 54/157/52 226/609/52 227/611/52
f 8/27/12 7/22/12 57/163/12 54/155/12
f 8/28/48 54/156/48 55/158/48 5/14/48
f 4/12/49 53/153/49 56/161/49 6/20/49
f 15/54/34 61/173/34 62/175/34 16/59/34
f 67/188/53 62/176/53 162/447/53 167/460/53
f 130/369/33 129/366/33 157/434/33 158/437/33
f 161/444/33 154/428/33 126/360/33 133/378/33
f 66/187/54 67/188/54 167/460/54 166/457/54
f 157/434/33 129/366/33 128/365/33 156/432/33
f 65/184/55 66/187/55 166/457/55 165/456/55
f 16/60/39 62/177/39 67/189/39 18/68/39
f 121/333/56 135/381/56 115/317/56 117/321/56
f 112/308/57 110/303/57 123/345/57 122/339/57
f 89/241/58 90/243/58 71/197/58 73/204/58
f 97/269/59 91/249/59 84/230/59 82/225/59
f 94/255/60 92/251/60 75/207/60 78/214/60
f 123/346/61 124/347/61 133/376/61 126/359/61
f 120/331/62 116/319/62 134/379/62 124/348/62
f 92/252/63 94/256/63 72/201/63 74/206/63
f 90/244/64 89/242/64 83/227/64 81/221/64
f 94/257/65 78/215/65 69/193/65 108/300/65
f 93/253/66 96/263/66 88/238/66 86/233/66
f 97/270/67 82/226/67 80/219/67 106/296/67
f 91/250/68 97/271/68 87/235/68 85/231/68
f 96/264/69 93/254/69 76/209/69 77/211/69
f 87/236/70 97/272/70 107/298/70 79/217/70
f 96/265/71 77/212/71 70/195/71 95/261/71
f 111/305/72 109/301/72 136/383/72 121/334/72
f 96/266/73 105/292/73 104/291/73 106/295/73
f 103/287/74 97/273/74 106/295/74 104/291/74
f 102/285/75 107/297/75 97/274/75 103/288/75
f 101/282/76 90/245/76 107/297/76 102/285/76
f 100/280/77 108/299/77 90/246/77 101/283/77
f 99/278/78 94/258/78 108/299/78 100/280/78
f 98/276/79 95/262/79 94/259/79 99/279/79
f 71/198/80 90/247/80 108/300/80 69/193/80
f 88/239/81 96/267/81 106/296/81 80/219/81
f 89/241/82 73/204/82 111/306/82 121/335/82
f 125/353/83 118/324/83 84/230/83 91/249/83
f 122/340/84 114/314/84 75/207/84 92/251/84
f 72/202/85 94/260/85 95/261/85 70/195/85
f 90/248/86 81/222/86 79/217/86 107/298/86
f 92/252/87 74/206/87 112/309/87 122/341/87
f 121/336/88 117/322/88 83/227/88 89/242/88
f 122/342/89 136/383/89 109/301/89 114/315/89
f 93/253/90 86/233/90 120/332/90 124/349/90
f 125/354/91 134/379/91 116/319/91 118/325/91
f 91/250/92 85/231/92 119/328/92 125/355/92
f 124/350/93 113/311/93 76/209/93 93/254/93
f 119/329/94 115/317/94 135/381/94 125/356/94
f 124/351/95 123/345/95 110/303/95 113/312/95
f 124/352/96 134/380/96 132/374/96 133/377/96
f 131/371/97 132/374/97 134/380/97 125/357/97
f 130/370/98 131/372/98 125/358/98 135/382/98
f 129/367/99 130/370/99 135/382/99 121/337/99
f 128/364/100 129/368/100 121/338/100 136/384/100
f 127/361/101 128/364/101 136/384/101 122/343/101
f 126/359/102 127/362/102 122/344/102 123/346/102
f 76/210/1 220/592/1 221/594/1 77/213/1
f 75/208/6 188/512/6 189/514/6 78/216/6
f 201/545/10 79/218/10 81/223/10 202/547/10
f 205/554/10 204/552/10 85/232/10 87/237/10
f 173/474/2 172/472/2 86/234/2 88/240/2
f 173/474/2 88/240/2 80/220/2 169/465/2
f 77/213/1 221/594/1 217/585/1 70/196/1
f 205/554/10 87/237/10 79/218/10 201/545/10
f 101/284/35 141/394/35 140/392/35 100/281/35
f 142/397/35 141/394/35 101/284/35 102/286/35
f 142/397/35 102/286/35 103/289/35 143/399/35
f 138/388/35 145/404/35 105/293/35 98/275/35
f 191/519/6 190/517/6 109/302/6 111/307/6
f 222/597/1 110/304/1 112/310/1 223/599/1
f 114/316/6 192/522/6 188/512/6 75/208/6
f 115/318/10 207/559/10 208/561/10 117/323/10
f 116/320/2 174/477/2 175/479/2 118/326/2
f 203/550/10 83/228/10 117/323/10 208/561/10
f 109/302/6 190/517/6 192/522/6 114/316/6
f 224/602/1 113/313/1 110/304/1 222/597/1
f 126/360/33 154/428/33 153/425/33 127/363/33
f 156/432/33 128/365/33 127/363/33 153/425/33
f 131/373/33 159/439/33 160/442/33 132/375/33
f 161/444/33 133/378/33 132/375/33 160/442/33
f 95/262/103 98/276/103 105/294/103 96/268/103
f 146/407/39 151/421/39 144/403/39 145/405/39
f 139/390/34 146/408/34 145/406/34 138/389/34
f 138/389/20 137/386/20 152/422/20 139/390/20
f 137/387/19 140/393/19 147/410/19 152/423/19
f 140/393/18 141/395/18 148/413/18 147/410/18
f 141/396/17 142/398/17 149/416/17 148/414/17
f 142/398/16 143/400/16 150/418/16 149/416/16
f 143/401/15 144/403/15 151/421/15 150/419/15
f 21/74/104 22/77/104 146/409/104 139/391/104
f 28/92/105 21/74/105 139/391/105 152/424/105
f 23/79/106 28/92/106 152/424/106 147/411/106
f 162/448/39 161/445/39 160/443/39 167/461/39
f 155/430/34 154/429/34 161/446/34 162/449/34
f 154/429/20 155/430/20 168/462/20 153/426/20
f 153/427/19 168/463/19 163/450/19 156/433/19
f 156/433/18 163/450/18 164/452/18 157/435/18
f 157/436/17 164/453/17 165/455/17 158/438/17
f 158/438/16 165/455/16 166/458/16 159/440/16
f 159/441/15 166/459/15 167/461/15 160/443/15
f 61/174/107 68/192/107 168/464/107 155/431/107
f 68/192/108 63/179/108 163/451/108 168/464/108
f 63/179/109 64/182/109 164/454/109 163/451/109
f 64/182/110 65/184/110 165/456/110 164/454/110
f 180/492/45 170/468/45 171/471/45 178/487/45
f 177/485/44 172/473/44 173/475/44 179/489/44
f 180/493/9 181/495/9 169/466/9 170/469/9
f 183/500/42 178/487/42 171/471/42 175/480/42
f 177/485/41 182/498/41 176/483/41 172/473/41
f 183/501/27 175/481/27 174/478/27 184/504/27
f 176/484/28 182/499/28 184/504/28 174/478/28
f 173/476/11 169/466/11 181/495/11 179/490/11
f 51/150/111 46/136/111 178/488/111 183/502/111
f 49/144/112 47/139/112 179/491/112 181/496/112
f 48/142/113 49/144/113 181/496/113 180/494/113
f 47/139/114 45/134/114 177/486/114 179/491/114
f 193/525/45 187/511/45 186/507/45 194/527/45
f 195/531/44 189/515/44 188/513/44 196/534/44
f 195/532/11 197/536/11 185/505/11 189/516/11
f 193/525/42 198/537/42 191/520/42 187/511/42
f 199/540/41 196/534/41 188/513/41 192/523/41
f 199/541/28 192/524/28 190/518/28 200/543/28
f 191/521/27 198/538/27 200/543/27 190/518/27
f 186/508/9 185/505/9 197/536/9 194/528/9
f 30/97/115 29/94/115 193/526/115 194/529/115
f 34/107/116 36/112/116 200/544/116 198/539/116
f 36/112/117 35/110/117 199/542/117 200/544/117
f 213/574/49 202/548/49 203/551/49 214/577/49
f 212/572/48 204/553/48 205/555/48 211/569/48
f 213/575/13 206/557/13 201/546/13 202/549/13
f 216/582/47 214/577/47 203/551/47 208/562/47
f 212/572/46 215/580/46 209/565/46 204/553/46
f 216/583/31 208/563/31 207/560/31 210/567/31
f 209/566/29 215/581/29 210/567/29 207/560/29
f 205/556/12 201/546/12 206/557/12 211/570/12
f 39/120/118 41/124/118 206/558/118 213/576/118
f 41/124/119 37/115/119 211/571/119 206/558/119
f 37/115/120 38/117/120 212/573/120 211/571/120
f 40/122/121 39/120/121 213/576/121 214/578/121
f 44/132/122 43/130/122 216/584/122 210/568/122
f 225/605/49 219/591/49 218/588/49 228/612/49
f 226/607/48 221/595/48 220/593/48 227/610/48
f 226/608/12 229/615/12 217/586/12 221/596/12
f 225/605/47 231/620/47 223/600/47 219/591/47
f 230/617/46 227/610/46 220/593/46 224/603/46
f 230/618/29 224/604/29 222/598/29 232/624/29
f 223/601/31 231/621/31 232/624/31 222/598/31
f 218/589/13 217/586/13 229/615/13 228/613/13
f 58/167/123 55/159/123 227/611/123 230/619/123
f 53/154/124 59/170/124 231/622/124 225/606/124
f 57/164/125 56/162/125 228/614/125 229/616/125
f 54/157/126 57/164/126 229/616/126 226/609/126
f 71/199/6 69/194/6 185/506/6 186/509/6
