{
  "asset": {
    "generator": "Khronos glTF Blender I/O v4.0.44",
    "version": "2.0"
  },
  "scene": 0,
  "scenes": [
    {
      "name": "Scene",
      "nodes": [
        0
      ]
    }
  ],
  "nodes": [
    {
      "mesh": 0,
      "name": "ShortWall_Simple2_Corner_Outer"
    }
  ],
  "materials": [
    {
      "doubleSided": true,
      "name": "MI_Trim_02",
      "normalTexture": {
        "index": 0
      },
      "pbrMetallicRoughness": {
        "baseColorTexture": {
          "index": 1
        },
        "metallicRoughnessTexture": {
          "index": 2
        }
      }
    }
  ],
  "meshes": [
    {
      "name": "Plane.287",
      "primitives": [
        {
          "attributes": {
            "POSITION": 0,
            "NORMAL": 1,
            "TEXCOORD_0": 2
          },
          "indices": 3,
          "material": 0
        }
      ]
    }
  ],
  "textures": [
    {
      "sampler": 0,
      "source": 0
    },
    {
      "sampler": 0,
      "source": 1
    },
    {
      "sampler": 0,
      "source": 2
    }
  ],
  "images": [
    {
      "mimeType": "image/png",
      "name": "T_Trim_02_Normal",
      "uri": "../../../../textures/quaternius-modular-sci-fi-megakit-standard/t-trim-02-normal-7faaa7059192f43a.png"
    },
    {
      "mimeType": "image/png",
      "name": "T_Trim_02_BaseColor_Red",
      "uri": "../../../../textures/quaternius-modular-sci-fi-megakit-standard/t-trim-02-basecolor-red-4a08abf8dc0a5bf5.png"
    },
    {
      "mimeType": "image/png",
      "name": "T_Trim_02_ORM",
      "uri": "../../../../textures/quaternius-modular-sci-fi-megakit-standard/t-trim-02-orm-2a433e6a7fbcec37.png"
    }
  ],
  "accessors": [
    {
      "bufferView": 0,
      "componentType": 5126,
      "count": 36,
      "max": [
        -1.6466627130284905e-05,
        1.0000015497207642,
        -1.1285198979749111e-06
      ],
      "min": [
        -4.000000476837158,
        3.2584136988589307e-07,
        -4.000001430511475
      ],
      "type": "VEC3"
    },
    {
      "bufferView": 1,
      "componentType": 5126,
      "count": 36,
      "type": "VEC3"
    },
    {
      "bufferView": 2,
      "componentType": 5126,
      "count": 36,
      "type": "VEC2"
    },
    {
      "bufferView": 3,
      "componentType": 5123,
      "count": 96,
      "type": "SCALAR"
    }
  ],
  "bufferViews": [
    {
      "buffer": 0,
      "byteLength": 432,
      "byteOffset": 0,
      "target": 34962
    },
    {
      "buffer": 0,
      "byteLength": 432,
      "byteOffset": 432,
      "target": 34962
    },
    {
      "buffer": 0,
      "byteLength": 288,
      "byteOffset": 864,
      "target": 34962
    },
    {
      "buffer": 0,
      "byteLength": 192,
      "byteOffset": 1152,
      "target": 34963
    }
  ],
  "samplers": [
    {
      "magFilter": 9729,
      "minFilter": 9987
    }
  ],
  "buffers": [
    {
      "byteLength": 1344,
      "uri": "model.bin"
    }
  ]
}
