{
  "asset": {
    "generator": "Khronos glTF Blender I/O v4.0.44",
    "version": "2.0"
  },
  "scene": 0,
  "scenes": [
    {
      "name": "Scene",
      "nodes": [
        0
      ]
    }
  ],
  "nodes": [
    {
      "mesh": 0,
      "name": "Overhang_UnevenBrick_Corner"
    }
  ],
  "materials": [
    {
      "doubleSided": true,
      "name": "MI_Plaster",
      "normalTexture": {
        "index": 0
      },
      "pbrMetallicRoughness": {
        "baseColorTexture": {
          "index": 1
        },
        "metallicRoughnessTexture": {
          "index": 2
        }
      }
    },
    {
      "doubleSided": true,
      "name": "MI_WoodTrim",
      "normalTexture": {
        "index": 3
      },
      "pbrMetallicRoughness": {
        "baseColorTexture": {
          "index": 4
        },
        "metallicFactor": 0,
        "metallicRoughnessTexture": {
          "index": 5
        }
      }
    },
    {
      "doubleSided": true,
      "name": "MI_UnevenBrick",
      "normalTexture": {
        "index": 6
      },
      "pbrMetallicRoughness": {
        "baseColorTexture": {
          "index": 7
        },
        "metallicFactor": 0,
        "metallicRoughnessTexture": {
          "index": 8
        }
      }
    }
  ],
  "meshes": [
    {
      "name": "Plane.046",
      "primitives": [
        {
          "attributes": {
            "POSITION": 0,
            "NORMAL": 1,
            "TEXCOORD_0": 2
          },
          "indices": 3,
          "material": 0
        },
        {
          "attributes": {
            "POSITION": 4,
            "NORMAL": 5,
            "TEXCOORD_0": 6
          },
          "indices": 7,
          "material": 1
        },
        {
          "attributes": {
            "POSITION": 8,
            "NORMAL": 9,
            "TEXCOORD_0": 10
          },
          "indices": 11,
          "material": 2
        }
      ]
    }
  ],
  "textures": [
    {
      "sampler": 0,
      "source": 0
    },
    {
      "sampler": 0,
      "source": 1
    },
    {
      "sampler": 0,
      "source": 2
    },
    {
      "sampler": 0,
      "source": 3
    },
    {
      "sampler": 0,
      "source": 4
    },
    {
      "sampler": 0,
      "source": 5
    },
    {
      "sampler": 0,
      "source": 6
    },
    {
      "sampler": 0,
      "source": 7
    },
    {
      "sampler": 0,
      "source": 8
    }
  ],
  "images": [
    {
      "mimeType": "image/png",
      "name": "T_Plaster_Normal",
      "uri": "../../../../textures/quaternius-medieval-village-megakit-standard/t-plaster-normal-8b9617b561466cce.png"
    },
    {
      "mimeType": "image/png",
      "name": "T_Plaster_BaseColor",
      "uri": "../../../../textures/quaternius-medieval-village-megakit-standard/t-plaster-basecolor-98547ca83888307e.png"
    },
    {
      "mimeType": "image/png",
      "name": "T_Plaster_ORM",
      "uri": "../../../../textures/quaternius-medieval-village-megakit-standard/t-plaster-orm-7be9d64a6154ba12.png"
    },
    {
      "mimeType": "image/png",
      "name": "T_WoodTrim_Normal",
      "uri": "../../../../textures/quaternius-medieval-village-megakit-standard/t-woodtrim-normal-5847623e4ed6c206.png"
    },
    {
      "mimeType": "image/png",
      "name": "T_WoodTrim_BaseColor",
      "uri": "../../../../textures/quaternius-medieval-village-megakit-standard/t-woodtrim-basecolor-a59f410b07a9bc5f.png"
    },
    {
      "mimeType": "image/png",
      "name": "T_WoodTrim_Roughness",
      "uri": "../../../../textures/quaternius-medieval-village-megakit-standard/t-woodtrim-roughness-e888464fd4199d45.png"
    },
    {
      "mimeType": "image/png",
      "name": "T_UnevenBrick_Normal",
      "uri": "../../../../textures/quaternius-medieval-village-megakit-standard/t-unevenbrick-normal-bbf623cc35720d67.png"
    },
    {
      "mimeType": "image/png",
      "name": "T_UnevenBrick_BaseColor",
      "uri": "../../../../textures/quaternius-medieval-village-megakit-standard/t-unevenbrick-basecolor-ee0f096df6110e94.png"
    },
    {
      "mimeType": "image/png",
      "name": "T_UnevenBrick_Roughness",
      "uri": "../../../../textures/quaternius-medieval-village-megakit-standard/t-unevenbrick-roughness-da170cb92ac5479b.png"
    }
  ],
  "accessors": [
    {
      "bufferView": 0,
      "componentType": 5126,
      "count": 81,
      "max": [
        0.7096809148788452,
        2.8951454162597656,
        2
      ],
      "min": [
        -2,
        0,
        -0.7096808552742004
      ],
      "type": "VEC3"
    },
    {
      "bufferView": 1,
      "componentType": 5126,
      "count": 81,
      "type": "VEC3"
    },
    {
      "bufferView": 2,
      "componentType": 5126,
      "count": 81,
      "type": "VEC2"
    },
    {
      "bufferView": 3,
      "componentType": 5123,
      "count": 207,
      "type": "SCALAR"
    },
    {
      "bufferView": 4,
      "componentType": 5126,
      "count": 320,
      "max": [
        1.100797176361084,
        3.116764545440674,
        2
      ],
      "min": [
        -2,
        0.41332197189331055,
        -1.1007977724075317
      ],
      "type": "VEC3"
    },
    {
      "bufferView": 5,
      "componentType": 5126,
      "count": 320,
      "type": "VEC3"
    },
    {
      "bufferView": 6,
      "componentType": 5126,
      "count": 320,
      "type": "VEC2"
    },
    {
      "bufferView": 7,
      "componentType": 5123,
      "count": 786,
      "type": "SCALAR"
    },
    {
      "bufferView": 8,
      "componentType": 5126,
      "count": 99,
      "max": [
        1.0948179960250854,
        2.91355037689209,
        2
      ],
      "min": [
        -2,
        0,
        -1.094817876815796
      ],
      "type": "VEC3"
    },
    {
      "bufferView": 9,
      "componentType": 5126,
      "count": 99,
      "type": "VEC3"
    },
    {
      "bufferView": 10,
      "componentType": 5126,
      "count": 99,
      "type": "VEC2"
    },
    {
      "bufferView": 11,
      "componentType": 5123,
      "count": 267,
      "type": "SCALAR"
    }
  ],
  "bufferViews": [
    {
      "buffer": 0,
      "byteLength": 972,
      "byteOffset": 0,
      "target": 34962
    },
    {
      "buffer": 0,
      "byteLength": 972,
      "byteOffset": 972,
      "target": 34962
    },
    {
      "buffer": 0,
      "byteLength": 648,
      "byteOffset": 1944,
      "target": 34962
    },
    {
      "buffer": 0,
      "byteLength": 414,
      "byteOffset": 2592,
      "target": 34963
    },
    {
      "buffer": 0,
      "byteLength": 3840,
      "byteOffset": 3008,
      "target": 34962
    },
    {
      "buffer": 0,
      "byteLength": 3840,
      "byteOffset": 6848,
      "target": 34962
    },
    {
      "buffer": 0,
      "byteLength": 2560,
      "byteOffset": 10688,
      "target": 34962
    },
    {
      "buffer": 0,
      "byteLength": 1572,
      "byteOffset": 13248,
      "target": 34963
    },
    {
      "buffer": 0,
      "byteLength": 1188,
      "byteOffset": 14820,
      "target": 34962
    },
    {
      "buffer": 0,
      "byteLength": 1188,
      "byteOffset": 16008,
      "target": 34962
    },
    {
      "buffer": 0,
      "byteLength": 792,
      "byteOffset": 17196,
      "target": 34962
    },
    {
      "buffer": 0,
      "byteLength": 534,
      "byteOffset": 17988,
      "target": 34963
    }
  ],
  "samplers": [
    {
      "magFilter": 9729,
      "minFilter": 9987
    }
  ],
  "buffers": [
    {
      "byteLength": 18524,
      "uri": "model.bin"
    }
  ]
}
