# Blender 3.3.1
# www.blender.org
mtllib model.mtl
o Pipe4-2
v -0.000000 -1.000000 0.000000
v -0.707107 -0.707107 -0.707107
v -0.707107 -0.707107 0.707107
v -1.000000 0.000000 -1.000000
v -1.000000 -0.000000 1.000000
v -0.707107 0.707107 -0.707107
v -0.707106 0.707107 0.707107
v 0.000000 1.000000 -0.000000
v 0.707107 0.707107 0.707107
v 0.707107 0.707107 -0.707107
v 1.000000 0.000000 -1.000000
v 1.000000 0.000000 1.000000
v 0.707107 -0.707107 -0.707107
v 0.707107 -0.707107 0.707107
v -0.000002 -0.900000 -5.000000
v 5.000000 -0.900000 -0.000000
v 0.000002 -0.900000 5.000000
v -5.000000 -0.900000 0.000000
v -0.636398 -0.636396 -5.000000
v 5.000000 -0.636396 -0.636396
v -0.636395 -0.636396 5.000000
v -5.000000 -0.636396 -0.636396
v 5.000000 0.000000 -0.900000
v -0.900002 0.000000 -5.000000
v -5.000000 -0.000000 -0.900000
v -0.899998 -0.000000 5.000000
v -0.636398 0.636396 -5.000000
v 5.000000 0.636396 -0.636396
v -5.000000 0.636396 -0.636396
v -0.636395 0.636396 5.000000
v -0.000002 0.900000 -5.000000
v 5.000000 0.900000 -0.000000
v 0.000002 0.900000 5.000000
v -5.000000 0.900000 0.000000
v 5.000000 0.636396 0.636396
v 0.636395 0.636396 -5.000000
v 0.636398 0.636396 5.000000
v -5.000000 0.636396 0.636396
v 5.000000 0.000000 0.900000
v 0.899998 0.000000 -5.000000
v 0.900002 -0.000000 5.000000
v -5.000000 -0.000000 0.900000
v 5.000000 -0.636396 0.636396
v 0.636395 -0.636396 -5.000000
v 0.636398 -0.636396 5.000000
v -5.000000 -0.636396 0.636396
v -0.000000 -0.900000 0.000000
v -0.673334 -0.619250 -0.673334
v -0.673334 -0.619250 0.673334
v -0.929290 0.000000 -0.929289
v -0.929289 -0.000000 0.929289
v -0.673334 0.619250 -0.673334
v -0.673334 0.619250 0.673334
v 0.000000 0.900000 -0.000000
v 0.673334 0.619250 0.673334
v 0.673334 0.619250 -0.673334
v 0.929289 0.000000 -0.929289
v 0.929290 0.000000 0.929289
v 0.673334 -0.619250 -0.673334
v 0.673334 -0.619250 0.673334
v -4.550000 1.000000 0.000000
v -4.613640 0.707107 0.707107
v -4.640000 -0.000000 1.000000
v -4.613640 -0.707107 0.707107
v -4.550000 -1.000000 0.000000
v -4.640000 -0.000000 -1.000000
v -4.613640 0.707107 -0.707107
v -4.613640 -0.707107 -0.707107
v 0.000001 1.000000 4.575000
v 0.000001 -1.000000 4.575000
v -0.707105 -0.707107 4.635104
v -0.999999 -0.000000 4.660000
v 0.707108 0.707107 4.635104
v 1.000002 -0.000000 4.659999
v 0.707108 -0.707107 4.635104
v -0.707105 0.707107 4.635105
v 4.635104 0.707107 -0.707107
v 4.575000 1.000000 -0.000000
v 4.635104 0.707107 0.707107
v 4.575000 -1.000000 -0.000000
v 4.660000 0.000000 1.000000
v 4.635104 -0.707107 0.707107
v 4.635104 -0.707107 -0.707107
v 4.660000 0.000000 -1.000000
v -0.707108 0.707107 -4.635104
v -0.000001 -1.000000 -4.575000
v -1.000002 0.000000 -4.659999
v 0.707105 -0.707107 -4.635105
v -0.000001 1.000000 -4.575000
v 0.999999 0.000000 -4.660000
v -0.707108 -0.707107 -4.635104
v 0.707105 0.707107 -4.635104
v 0.000002 -1.500000 5.000000
v -1.060658 -1.060660 5.000000
v -1.499998 -0.000000 5.000000
v -1.060658 1.060660 5.000000
v 0.000002 1.500000 5.000000
v 1.060662 1.060660 5.000000
v 1.500002 -0.000000 5.000000
v 1.060662 -1.060660 5.000000
v 0.000001 1.500000 4.575000
v 0.000001 -1.500000 4.575000
v -1.060659 -1.060660 4.635105
v -1.499998 -0.000000 4.660000
v 1.060662 1.060660 4.635104
v 1.500002 -0.000000 4.659999
v 1.060662 -1.060660 4.635104
v -1.060659 1.060660 4.635105
v -0.000002 -1.500000 -5.000000
v -1.060662 -1.060660 -5.000000
v -1.500002 0.000000 -5.000000
v -1.060662 1.060660 -5.000000
v -0.000002 1.500000 -5.000000
v 1.060658 1.060660 -5.000000
v 1.499998 0.000000 -5.000000
v 1.060658 -1.060660 -5.000000
v -1.060662 1.060660 -4.635104
v -0.000001 -1.500000 -4.575000
v -1.500002 0.000000 -4.659999
v 1.060659 -1.060660 -4.635105
v -0.000001 1.500000 -4.575000
v 1.499998 0.000000 -4.660000
v -1.060662 -1.060660 -4.635104
v 1.060659 1.060660 -4.635105
v 5.000000 -1.500000 -0.000000
v 5.000000 -1.060660 -1.060660
v 5.000000 0.000000 -1.500000
v 5.000000 1.060660 -1.060660
v 5.000000 1.500000 -0.000000
v 5.000000 1.060660 1.060660
v 5.000000 0.000000 1.500000
v 5.000000 -1.060660 1.060660
v 4.635104 1.060660 -1.060660
v 4.575000 1.500000 -0.000000
v 4.635105 1.060660 1.060660
v 4.575000 -1.500000 -0.000000
v 4.660000 0.000000 1.500000
v 4.635105 -1.060660 1.060660
v 4.635104 -1.060660 -1.060661
v 4.660000 0.000000 -1.500000
v -5.000000 -1.500000 0.000000
v -5.000000 -1.060660 -1.060660
v -5.000000 -0.000000 -1.500000
v -5.000000 1.060660 -1.060660
v -5.000000 1.500000 0.000000
v -5.000000 1.060660 1.060660
v -5.000000 -0.000000 1.500000
v -5.000000 -1.060660 1.060660
v -4.550000 1.500000 0.000000
v -4.613639 1.060660 1.060661
v -4.640000 -0.000000 1.500000
v -4.613639 -1.060660 1.060660
v -4.550000 -1.500000 0.000000
v -4.640000 -0.000000 -1.500000
v -4.613640 1.060660 -1.060660
v -4.613640 -1.060660 -1.060660
vn -0.0000 -0.0000 1.0000
vn -0.3827 -0.9239 -0.0000
vn -0.0100 -0.0240 0.9997
vn -0.0579 0.0240 -0.9980
vn 1.0000 -0.0000 -0.0000
vn -0.0000 -0.0000 -1.0000
vn -0.0579 -0.0240 0.9980
vn -0.0100 0.0240 -0.9997
vn -1.0000 -0.0000 -0.0000
vn 0.9239 0.3827 -0.0000
vn 0.9239 -0.3827 -0.0000
vn 0.0579 -0.0240 0.9980
vn 0.3827 -0.9239 -0.0000
vn -0.0000 -0.9239 -0.3827
vn -0.0000 -0.3827 -0.9239
vn 0.9978 0.0254 0.0613
vn 0.9978 0.0254 -0.0613
vn -0.0000 0.9239 0.3827
vn -0.0000 0.3827 0.9239
vn -0.0000 -0.3827 0.9239
vn -0.9997 -0.0240 -0.0100
vn 0.9996 0.0254 -0.0105
vn 0.3839 0.9234 -0.0002
vn 0.3839 0.9234 0.0002
vn 0.9235 0.3835 0.0065
vn 0.9235 0.3835 -0.0065
vn 0.9235 -0.3835 0.0065
vn 0.9235 -0.3835 -0.0065
vn 0.3839 -0.9234 -0.0002
vn 0.3839 -0.9234 0.0002
vn -0.3839 -0.9234 -0.0002
vn -0.3839 -0.9234 0.0002
vn -0.9235 -0.3835 0.0065
vn -0.9235 -0.3835 -0.0065
vn -0.9235 0.3835 0.0065
vn -0.9235 0.3835 -0.0065
vn -0.3839 0.9234 -0.0002
vn -0.3839 0.9234 0.0002
vn 0.0002 0.9234 0.3839
vn -0.0002 0.9234 0.3839
vn -0.0065 0.3835 0.9235
vn 0.0065 0.3835 0.9235
vn -0.0065 -0.3835 0.9235
vn 0.0065 -0.3835 0.9235
vn 0.0002 -0.9234 0.3839
vn -0.0002 -0.9234 0.3839
vn 0.0002 -0.9234 -0.3839
vn -0.0002 -0.9234 -0.3839
vn -0.0065 -0.3835 -0.9235
vn 0.0065 -0.3835 -0.9235
vn -0.0065 0.3835 -0.9235
vn 0.0065 0.3835 -0.9235
vn 0.0002 0.9234 -0.3839
vn -0.0002 0.9234 -0.3839
vn -0.0000 -0.9239 0.3827
vn 0.9996 -0.0254 -0.0105
vn -0.0000 0.9239 -0.3827
vn -0.0000 0.3827 -0.9239
vn -0.0100 -0.0240 -0.9997
vn 0.3827 0.9239 -0.0000
vn -0.3827 0.9239 -0.0000
vn -0.9239 0.3827 -0.0000
vn -0.9239 -0.3827 -0.0000
vn -0.0579 -0.0240 -0.9980
vn -0.9980 -0.0240 -0.0579
vn -0.9980 -0.0240 0.0579
vn 0.0100 -0.0240 0.9997
vn 0.0579 0.0240 -0.9980
vn 0.0100 0.0240 -0.9997
vn 0.0100 -0.0240 -0.9997
vn 0.0579 -0.0240 -0.9980
vn -0.0100 0.0240 0.9997
vn -0.0579 0.0240 0.9980
vn 0.0579 0.0240 0.9980
vn 0.0100 0.0240 0.9997
vn -0.9997 0.0240 -0.0100
vn -0.9980 0.0240 -0.0579
vn -0.9980 0.0240 0.0579
vn -0.9997 0.0240 0.0100
vn -0.9997 -0.0240 0.0100
vn 0.9996 0.0254 0.0105
vn 0.9996 -0.0254 0.0105
vn 0.9978 -0.0254 0.0613
vn 0.9978 -0.0254 -0.0613
vt 0.460219 0.475443
vt 0.879981 0.159158
vt 0.445757 0.784983
vt 0.459302 0.511961
vt 0.584362 0.925292
vt 0.494712 0.476692
vt 0.357605 0.926005
vt 0.905207 0.148709
vt 0.470983 0.795433
vt 0.559135 0.914843
vt 0.382831 0.915556
vt 0.930434 0.159158
vt 0.188756 0.476692
vt 0.496210 0.784983
vt 0.533909 0.925292
vt 0.153346 0.511961
vt 0.408058 0.926005
vt 0.154263 0.475443
vt 0.195153 0.926005
vt 0.107001 0.784983
vt 0.117742 0.476214
vt 0.069302 0.926005
vt 0.710748 0.155428
vt 0.153151 0.440946
vt 0.044076 0.915556
vt 0.685522 0.165878
vt 0.220380 0.915556
vt 0.132228 0.795432
vt 0.018849 0.926005
vt 0.660295 0.155428
vt 0.423698 0.476214
vt 0.245606 0.926005
vt 0.157454 0.784983
vt 0.459108 0.440946
vt 0.035742 0.284850
vt 0.513960 0.685557
vt 0.286810 0.287226
vt 0.650539 0.515391
vt 0.286810 0.036147
vt 0.650539 0.651969
vt 0.035742 0.033771
vt 0.394758 0.668180
vt 0.018849 0.269626
vt 0.796874 0.018849
vt 0.531337 0.668180
vt 0.269917 0.303960
vt 0.767342 0.341659
vt 0.667915 0.498014
vt 0.269917 0.020924
vt 0.767342 0.880126
vt 0.650539 0.676544
vt 0.018849 0.050504
vt 0.850448 0.496015
vt 0.377381 0.685557
vt 0.790045 0.341659
vt 0.692490 0.498014
vt 0.819578 0.018849
vt 0.555911 0.668180
vt 0.873152 0.496015
vt 0.377381 0.710132
vt 0.790045 0.880126
vt 0.667915 0.693920
vt 0.842282 0.018849
vt 0.339572 0.053183
vt 0.573288 0.685557
vt 0.812749 0.341659
vt 0.590640 0.018849
vt 0.709867 0.515391
vt 0.895856 0.496015
vt 0.339572 0.272305
vt 0.394758 0.727508
vt 0.812749 0.880126
vt 0.590640 0.301886
vt 0.692490 0.693920
vt 0.354635 0.036147
vt 0.573288 0.710132
vt 0.605703 0.033771
vt 0.709867 0.539965
vt 0.605703 0.284850
vt 0.709867 0.676544
vt 0.354635 0.287226
vt 0.419332 0.727508
vt 0.622596 0.050504
vt 0.895856 0.688071
vt 0.692490 0.557342
vt 0.371528 0.020923
vt 0.850448 0.725770
vt 0.555911 0.727508
vt 0.622596 0.269626
vt 0.630763 0.905752
vt 0.709867 0.651969
vt 0.371528 0.303960
vt 0.812749 0.533714
vt 0.436709 0.710132
vt 0.873152 0.688071
vt 0.667915 0.557342
vt 0.873152 0.725770
vt 0.531337 0.727508
vt 0.653467 0.905752
vt 0.692490 0.634593
vt 0.790045 0.533714
vt 0.436709 0.685557
vt 0.850448 0.688071
vt 0.301873 0.272305
vt 0.650539 0.539965
vt 0.895856 0.725770
vt 0.050805 0.301886
vt 0.513960 0.710132
vt 0.676170 0.905752
vt 0.301873 0.053183
vt 0.667915 0.634593
vt 0.767342 0.533714
vt 0.050805 0.018849
vt 0.419332 0.668180
vt 0.161276 0.160498
vt 0.797486 0.173206
vt 0.126492 0.161144
vt 0.851060 0.341659
vt 0.767953 0.725770
vt 0.767953 0.688071
vt 0.160302 0.127652
vt 0.819578 0.164074
vt 0.873152 0.350790
vt 0.790045 0.734901
vt 0.790045 0.678939
vt 0.841670 0.173206
vt 0.895244 0.341659
vt 0.447333 0.161784
vt 0.812138 0.725770
vt 0.481143 0.195276
vt 0.812138 0.688071
vt 0.480169 0.160498
vt 0.631374 0.751396
vt 0.514954 0.161144
vt 0.895244 0.533714
vt 0.851060 0.880126
vt 0.812138 0.496015
vt 0.481143 0.127652
vt 0.873152 0.870995
vt 0.790045 0.486884
vt 0.653467 0.760527
vt 0.873152 0.542846
vt 0.895244 0.880126
vt 0.160302 0.195276
vt 0.767953 0.496015
vt 0.675559 0.751396
vt 0.851060 0.533714
vt 0.194112 0.161784
vt 0.268814 0.590452
vt 0.713163 0.404751
vt 0.251697 0.610705
vt 0.533909 0.785924
vt 0.693855 0.424059
vt 0.559135 0.784983
vt 0.666550 0.424059
vt 0.584362 0.785924
vt 0.593064 0.575436
vt 0.647243 0.404751
vt 0.647243 0.377446
vt 0.574770 0.590453
vt 0.693855 0.358139
vt 0.905207 0.018849
vt 0.287107 0.575436
vt 0.930434 0.019790
vt 0.713163 0.377446
vt 0.666550 0.358139
vt 0.879981 0.019790
vt 0.557654 0.610705
vt 0.039711 0.589540
vt 0.237828 0.711497
vt 0.574770 0.361348
vt 0.171908 0.684192
vt 0.593064 0.378732
vt 0.191216 0.664884
vt 0.357605 0.785872
vt 0.218521 0.664884
vt 0.382831 0.784983
vt 0.195153 0.785872
vt 0.019390 0.574175
vt 0.218521 0.730804
vt 0.220380 0.784983
vt 0.191216 0.730804
vt 0.245606 0.785872
vt 0.557459 0.342985
vt 0.171908 0.711497
vt 0.054995 0.609921
vt 0.408058 0.785872
vt 0.237828 0.684192
vt 0.696083 0.101249
vt 0.054259 0.341659
vt 0.710748 0.295562
vt 0.039082 0.359803
vt 0.723388 0.101249
vt 0.018849 0.376928
vt 0.107001 0.925117
vt 0.742695 0.081942
vt 0.345038 0.359803
vt 0.696083 0.035329
vt 0.132228 0.926005
vt 0.742695 0.054637
vt 0.157454 0.925117
vt 0.360216 0.341659
vt 0.723388 0.035329
vt 0.324806 0.376928
vt 0.660295 0.295562
vt 0.676775 0.054637
vt 0.685522 0.296450
vt 0.676775 0.081942
vt 0.081942 0.730804
vt 0.287107 0.378732
vt 0.496210 0.925117
vt 0.345668 0.589540
vt 0.035329 0.684192
vt 0.470983 0.926005
vt 0.054637 0.730804
vt 0.018849 0.785872
vt 0.325347 0.574175
vt 0.054637 0.664884
vt 0.101249 0.711497
vt 0.268814 0.361348
vt 0.044076 0.784983
vt 0.081942 0.664884
vt 0.445757 0.925117
vt 0.360951 0.609921
vt 0.035329 0.711497
vt 0.069302 0.785872
vt 0.101249 0.684192
vt 0.251503 0.342985
vt 0.630763 0.643778
vt 0.728911 0.789235
vt 0.630763 0.684735
vt 0.933555 0.757473
vt 0.726765 0.827075
vt 0.659724 0.713696
vt 0.933555 0.719634
vt 0.700681 0.713696
vt 0.933555 0.681794
vt 0.302740 0.724084
vt 0.729643 0.684735
vt 0.304886 0.686244
vt 0.729643 0.643778
vt 0.302740 0.648404
vt 0.933555 0.870852
vt 0.700681 0.614817
vt 0.933555 0.833012
vt 0.659724 0.614817
vt 0.726765 0.751396
vt 0.933555 0.795173
vt 0.319906 0.686244
vt 0.254308 0.718323
vt 0.713892 0.789235
vt 0.155428 0.677366
vt 0.184390 0.648404
vt 0.946573 0.757473
vt 0.713869 0.827075
vt 0.225347 0.648404
vt 0.945684 0.719634
vt 0.315636 0.648404
vt 0.946573 0.870852
vt 0.225347 0.747284
vt 0.945684 0.833012
vt 0.184390 0.747284
vt 0.713869 0.751396
vt 0.946573 0.795173
vt 0.155428 0.718323
vt 0.254308 0.677366
vt 0.946573 0.681794
vt 0.315636 0.724084
vt 0.750593 0.258611
vt 0.494184 0.677366
vt 0.748447 0.296450
vt 0.315758 0.950128
vt 0.523145 0.648404
vt 0.564103 0.648404
vt 0.315758 0.912288
vt 0.593064 0.677366
vt 0.315758 0.874448
vt 0.869960 0.296450
vt 0.593064 0.718323
vt 0.872107 0.258611
vt 0.564103 0.747284
vt 0.869960 0.220771
vt 0.975684 0.296450
vt 0.523145 0.747284
vt 0.975684 0.258611
vt 0.494184 0.718323
vt 0.748447 0.220771
vt 0.975684 0.220771
vt 0.088768 0.747284
vt 0.302740 0.874448
vt 0.857065 0.296450
vt 0.765613 0.258611
vt 0.018849 0.677366
vt 0.303628 0.912288
vt 0.047811 0.747284
vt 0.761343 0.220771
vt 0.962666 0.220771
vt 0.047811 0.648404
vt 0.117729 0.718323
vt 0.857087 0.258611
vt 0.963555 0.258611
vt 0.088768 0.648404
vt 0.761343 0.296450
vt 0.302740 0.950128
vt 0.018849 0.718323
vt 0.117729 0.677366
vt 0.857065 0.220771
vt 0.962666 0.296450
vt 0.630763 0.507199
vt 0.924968 0.260401
vt 0.659724 0.478238
vt 0.933555 0.568416
vt 0.924968 0.220771
vt 0.700681 0.478238
vt 0.933555 0.606256
vt 0.729643 0.507199
vt 0.933555 0.644095
vt 0.729032 0.939740
vt 0.729643 0.548156
vt 0.729032 0.904403
vt 0.700681 0.577118
vt 0.981151 0.094529
vt 0.729032 0.864774
vt 0.659724 0.577118
vt 0.981151 0.056689
vt 0.630763 0.548156
vt 0.924968 0.295738
vt 0.981151 0.018849
vt 0.689256 0.117729
vt 0.946573 0.644095
vt 0.716014 0.939740
vt 0.730214 0.117729
vt 0.713869 0.904403
vt 0.968132 0.094529
vt 0.716014 0.864774
vt 0.759175 0.088768
vt 0.909805 0.260401
vt 0.689256 0.018849
vt 0.969021 0.056689
vt 0.759175 0.047811
vt 0.911950 0.295738
vt 0.968132 0.018849
vt 0.730214 0.018849
vt 0.946573 0.568416
vt 0.911950 0.220771
vt 0.660295 0.047811
vt 0.945684 0.606256
vt 0.660295 0.088768
vt 0.386566 0.648404
vt 0.819366 0.256108
vt 0.357605 0.677366
vt 0.819366 0.295738
vt 0.947339 0.455037
vt 0.357605 0.718323
vt 0.947339 0.492877
vt 0.386566 0.747284
vt 0.947339 0.530717
vt 0.318794 0.761783
vt 0.427523 0.747284
vt 0.318794 0.797120
vt 0.456485 0.718323
vt 0.933555 0.417338
vt 0.318794 0.836749
vt 0.456485 0.677366
vt 0.933555 0.379499
vt 0.427523 0.648404
vt 0.819366 0.220771
vt 0.933555 0.341659
vt 0.302740 0.797120
vt 0.729643 0.411577
vt 0.947339 0.417338
vt 0.305011 0.836749
vt 0.700681 0.440539
vt 0.946398 0.379499
vt 0.659724 0.440539
vt 0.805582 0.220771
vt 0.947339 0.341659
vt 0.630763 0.411577
vt 0.630763 0.370620
vt 0.803312 0.256108
vt 0.700681 0.341659
vt 0.934495 0.492877
vt 0.933555 0.530717
vt 0.305011 0.761783
vt 0.729643 0.370620
vt 0.659724 0.341659
vt 0.805582 0.295738
vt 0.933555 0.455037
s 0
usemtl Material.001
f 37/91/1 98/241/1 97/239/1 33/80/1
f 70/171/2 71/173/2 3/6/2 1/1/2
f 87/215/3 85/209/3 117/289/3 119/295/3
f 71/174/4 70/172/4 102/252/4 103/253/4
f 23/56/5 127/314/5 128/316/5 28/68/5
f 44/108/6 116/286/6 109/270/6 15/36/6
f 85/209/7 89/219/7 121/299/7 117/289/7
f 72/176/8 71/174/8 103/253/8 104/256/8
f 20/48/5 16/38/5 125/309/5 126/311/5
f 38/94/9 42/102/9 147/364/9 146/361/9
f 90/221/10 92/226/10 10/22/10 11/25/10
f 73/178/10 74/181/10 12/27/10 9/19/10
f 88/216/11 90/221/11 11/25/11 13/29/11
f 74/181/11 75/183/11 14/32/11 12/27/11
f 89/219/12 92/227/12 124/306/12 121/299/12
f 75/184/13 70/171/13 1/1/13 14/34/13
f 80/197/14 1/1/14 13/31/14 83/204/14
f 39/96/5 131/324/5 132/326/5 43/105/5
f 83/205/15 13/30/15 11/26/15 84/207/15
f 65/159/16 64/158/16 152/378/16 153/379/16
f 21/51/1 94/231/1 93/229/1 17/40/1
f 32/78/5 129/319/5 130/321/5 35/85/5
f 18/42/9 141/349/9 148/366/9 46/114/9
f 68/166/17 65/159/17 153/379/17 156/386/17
f 79/194/18 78/192/18 8/18/18 9/21/18
f 61/149/18 62/151/18 7/16/18 8/18/18
f 81/199/19 79/195/19 9/20/19 12/28/19
f 62/152/19 63/154/19 5/10/19 7/15/19
f 82/201/20 81/199/20 12/28/20 14/33/20
f 63/154/20 64/156/20 3/5/20 5/10/20
f 84/208/21 77/189/21 133/329/21 140/348/21
f 66/161/22 68/166/22 156/386/22 154/381/22
f 48/117/23 47/115/23 15/35/23 19/43/23
f 17/39/24 47/115/24 49/121/24 21/49/24
f 50/122/25 48/116/25 19/44/25 24/57/25
f 49/119/26 51/124/26 26/61/26 21/50/26
f 52/126/27 50/122/27 24/57/27 27/63/27
f 51/124/28 53/129/28 30/72/28 26/61/28
f 54/132/29 52/128/29 27/64/29 31/75/29
f 53/130/30 54/132/30 33/79/30 30/73/30
f 56/138/31 54/132/31 31/75/31 36/86/31
f 54/132/32 55/134/32 37/89/32 33/79/32
f 40/97/33 57/139/33 56/136/33 36/87/33
f 37/90/34 55/133/34 58/141/34 41/99/34
f 44/106/35 59/143/35 57/139/35 40/97/35
f 41/99/36 58/141/36 60/146/36 45/109/36
f 47/115/37 59/144/37 44/107/37 15/35/37
f 45/110/38 60/148/38 47/115/38 17/39/38
f 16/37/39 20/46/39 59/144/39 47/115/39
f 47/115/40 48/117/40 22/52/40 18/41/40
f 20/47/41 23/55/41 57/140/41 59/145/41
f 48/118/42 50/123/42 25/59/42 22/53/42
f 56/137/43 57/140/43 23/55/43 28/66/43
f 50/123/44 52/127/44 29/69/44 25/59/44
f 54/132/45 56/138/45 28/67/45 32/77/45
f 52/128/46 54/132/46 34/81/46 29/70/46
f 35/83/47 55/134/47 54/132/47 32/77/47
f 34/81/48 54/132/48 53/130/48 38/92/48
f 39/95/49 58/142/49 55/135/49 35/84/49
f 38/93/50 53/131/50 51/125/50 42/101/50
f 43/103/51 60/147/51 58/142/51 39/95/51
f 42/101/52 51/125/52 49/120/52 46/112/52
f 47/115/53 60/148/53 43/104/53 16/37/53
f 49/121/54 47/115/54 18/41/54 46/113/54
f 22/54/9 142/351/9 141/349/9 18/42/9
f 19/45/6 110/273/6 111/274/6 24/58/6
f 25/60/9 143/354/9 142/351/9 22/54/9
f 26/62/1 95/234/1 94/231/1 21/51/1
f 27/65/6 24/58/6 111/274/6 112/276/6
f 29/71/9 144/356/9 143/354/9 25/60/9
f 30/74/1 96/236/1 95/234/1 26/62/1
f 27/65/6 112/276/6 113/279/6 31/76/6
f 28/68/5 128/316/5 129/319/5 32/78/5
f 33/80/1 97/239/1 96/236/1 30/74/1
f 29/71/9 34/82/9 145/359/9 144/356/9
f 36/88/6 31/76/6 113/279/6 114/281/6
f 38/94/9 146/361/9 145/359/9 34/82/9
f 35/85/5 130/321/5 131/324/5 39/96/5
f 36/88/6 114/281/6 115/284/6 40/98/6
f 37/91/1 41/100/1 99/244/1 98/241/1
f 40/98/6 115/284/6 116/286/6 44/108/6
f 17/40/1 93/229/1 100/246/1 45/111/1
f 46/114/9 148/366/9 147/364/9 42/102/9
f 41/100/1 45/111/1 100/246/1 99/244/1
f 43/105/5 132/326/5 125/309/5 16/38/5
f 23/56/5 20/48/5 126/311/5 127/314/5
f 3/6/55 64/157/55 65/160/55 1/1/55
f 67/165/56 66/161/56 154/381/56 155/385/56
f 6/13/57 67/163/57 61/149/57 8/18/57
f 4/8/58 66/162/58 67/164/58 6/12/58
f 2/2/15 68/167/15 66/162/15 4/8/15
f 1/1/14 65/160/14 68/168/14 2/4/14
f 76/188/59 72/176/59 104/256/59 108/266/59
f 8/18/60 69/169/60 73/179/60 9/21/60
f 7/16/61 76/186/61 69/169/61 8/18/61
f 5/11/62 72/177/62 76/187/62 7/17/62
f 3/7/63 71/175/63 72/177/63 5/11/63
f 69/170/64 76/188/64 108/266/64 101/250/64
f 1/1/55 80/197/55 82/202/55 14/34/55
f 77/189/65 78/193/65 134/332/65 133/329/65
f 8/18/57 78/192/57 77/190/57 10/24/57
f 10/23/58 77/191/58 84/207/58 11/26/58
f 78/193/66 79/196/66 135/336/66 134/332/66
f 1/1/13 86/212/13 88/217/13 13/31/13
f 92/227/67 90/222/67 122/302/67 124/306/67
f 10/24/60 92/228/60 89/220/60 8/18/60
f 8/18/61 89/220/61 85/210/61 6/13/61
f 6/14/62 85/211/62 87/214/62 4/9/62
f 4/9/63 87/214/63 91/223/63 2/3/63
f 2/4/2 91/224/2 86/212/2 1/1/2
f 103/254/63 94/232/63 95/235/63 104/257/63
f 104/257/62 95/235/62 96/237/62 108/267/62
f 108/268/61 96/238/61 97/240/61 101/249/61
f 101/249/60 97/240/60 98/242/60 105/258/60
f 100/247/13 93/230/13 102/251/13 107/263/13
f 99/245/11 100/248/11 107/264/11 106/261/11
f 98/243/10 99/245/10 106/261/10 105/259/10
f 93/230/2 94/233/2 103/255/2 102/251/2
f 70/172/68 75/185/68 107/265/68 102/252/68
f 75/185/69 74/182/69 106/262/69 107/265/69
f 74/182/70 73/180/70 105/260/70 106/262/70
f 73/180/71 69/170/71 101/250/71 105/260/71
f 123/303/2 110/271/2 109/269/2 118/292/2
f 119/294/63 111/275/63 110/272/63 123/304/63
f 117/290/62 112/277/62 111/275/62 119/294/62
f 121/300/61 113/280/61 112/278/61 117/291/61
f 124/307/60 114/282/60 113/280/60 121/300/60
f 118/292/13 109/269/13 116/287/13 120/296/13
f 116/288/11 115/285/11 122/301/11 120/297/11
f 115/285/10 114/283/10 124/308/10 122/301/10
f 91/225/72 87/215/72 119/295/72 123/305/72
f 86/213/73 91/225/73 123/305/73 118/293/73
f 88/218/74 86/213/74 118/293/74 120/298/74
f 90/222/75 88/218/75 120/298/75 122/302/75
f 133/330/58 128/317/58 127/315/58 140/347/58
f 134/333/57 129/320/57 128/318/57 133/331/57
f 136/337/55 125/310/55 132/327/55 138/341/55
f 132/328/20 131/325/20 137/339/20 138/342/20
f 131/325/19 130/322/19 135/334/19 137/339/19
f 130/323/18 129/320/18 134/333/18 135/335/18
f 126/312/15 139/344/15 140/347/15 127/315/15
f 125/310/14 136/337/14 139/345/14 126/313/14
f 83/206/76 84/208/76 140/348/76 139/346/76
f 80/198/77 83/206/77 139/346/77 136/338/77
f 82/203/78 80/198/78 136/338/78 138/343/78
f 81/200/79 82/203/79 138/343/79 137/340/79
f 79/196/80 81/200/80 137/340/80 135/336/80
f 153/380/14 141/350/14 142/352/14 156/387/14
f 156/388/15 142/353/15 143/355/15 154/382/15
f 154/382/58 143/355/58 144/357/58 155/383/58
f 155/384/57 144/358/57 145/360/57 149/369/57
f 152/376/55 148/367/55 141/350/55 153/380/55
f 147/365/20 148/368/20 152/377/20 151/374/20
f 146/362/19 147/365/19 151/374/19 150/371/19
f 145/360/18 146/363/18 150/372/18 149/369/18
f 64/158/81 63/155/81 151/375/81 152/378/81
f 63/155/82 62/153/82 150/373/82 151/375/82
f 62/153/83 61/150/83 149/370/83 150/373/83
f 61/150/84 67/165/84 155/385/84 149/370/84
f 19/45/6 15/36/6 109/270/6 110/273/6
