# Blender 3.3.1
# www.blender.org
mtllib model.mtl
o Pipe4-1
v 0.000000 -1.000000 0.000000
v 0.707107 0.707107 -0.700000
v 0.707107 0.707107 0.700000
v 0.707107 -0.707107 -0.700000
v 0.707107 -0.707107 0.700000
v 1.000000 0.000000 -1.000000
v 1.000000 -0.000000 1.000000
v -1.000000 -0.000000 0.000000
v -0.707107 0.707107 0.700000
v -0.707107 0.707107 -0.700000
v 0.000000 1.000000 -1.000634
v 0.000000 1.000000 1.000634
v 0.998807 1.000000 0.000000
v 0.000000 4.724000 -1.000044
v 0.707107 4.703791 0.706617
v -1.000000 4.655000 0.000000
v -0.707107 4.703791 0.706617
v -0.707107 4.703791 -0.706616
v 0.000000 4.724000 1.000044
v 0.999918 4.724000 0.000000
v 0.707107 4.703791 -0.706616
v 0.000000 -1.000000 -4.575000
v 0.707107 0.707107 -4.634500
v 0.707107 -0.707107 -4.634500
v 1.000000 0.000000 -4.660000
v -1.000000 0.000000 -4.575000
v -0.707107 0.707107 -4.634500
v 0.000000 1.000000 -4.660054
v 4.635104 0.707107 0.706503
v 4.660000 -0.000000 -1.000000
v 4.575000 -1.000000 -0.000000
v 4.635104 -0.707107 -0.706503
v 4.635104 -0.707107 0.706503
v 4.635104 0.707107 -0.706503
v 4.660000 -0.000000 1.000000
v 4.659899 1.000000 -0.000000
v 0.000000 -1.000000 4.554000
v -0.707107 0.707107 4.616440
v 0.000000 1.000000 4.643257
v 0.707107 0.707107 4.616440
v 0.707107 -0.707107 4.616440
v 1.000000 -0.000000 4.643200
v -1.000000 -0.000000 4.554000
v -0.707107 -0.707107 -4.575000
v -0.707107 -0.707107 4.508250
v 0.000000 0.900000 -5.000000
v 0.000000 0.900000 5.000000
v 0.636396 0.636396 -5.000000
v 0.636396 0.636396 5.000000
v 0.900000 0.000000 -5.000000
v 0.900000 -0.000000 5.000000
v 0.636396 -0.636396 -5.000000
v 0.636396 -0.636396 5.000000
v 0.000000 -0.900000 -5.000000
v 0.000000 -0.900000 5.000000
v -0.636396 -0.636396 -5.000000
v -0.636396 -0.636396 5.000000
v -0.900000 0.000000 -5.000000
v -0.900000 -0.000000 5.000000
v -0.636396 0.636396 -5.000000
v -0.636396 0.636396 5.000000
v 5.000035 0.900000 -0.000000
v 5.000061 0.636409 -0.636383
v 5.000086 -0.000000 -0.900000
v 5.000059 -0.636410 -0.636383
v 0.009493 -0.900452 0.000000
v 5.000031 -0.900000 -0.000000
v 5.000059 -0.636410 0.636383
v 5.000086 -0.000000 0.900000
v 5.000061 0.636409 0.636383
v 0.649421 0.649418 -0.642169
v 0.649421 0.649418 0.642169
v 0.673514 -0.619217 -0.666134
v 0.673514 -0.619217 0.666134
v 0.929085 0.000000 -0.929495
v 0.929085 -0.000000 0.929495
v -0.000000 5.000078 -0.900000
v 0.636408 5.000064 -0.636385
v 0.900000 5.000050 0.000000
v 0.636408 5.000064 0.636385
v -0.000000 5.000078 0.900000
v -0.636410 5.000055 0.636383
v -0.900452 0.009493 0.000000
v -0.900000 5.000031 0.000000
v -0.636410 5.000055 -0.636382
v -0.619213 0.673523 0.666136
v -0.619213 0.673523 -0.666136
v 0.000000 0.929061 -0.930152
v 0.000000 0.929061 0.930153
v 0.928048 0.929337 0.000000
v 1.060662 5.000000 -1.060660
v 0.000002 5.000000 -1.500000
v 0.000002 4.724000 -1.500066
v 1.500002 5.000000 0.000000
v 1.060662 5.000000 1.060660
v 0.000002 5.000000 1.500000
v -1.060658 5.000000 1.060660
v -1.499998 5.000000 0.000000
v -1.060658 5.000000 -1.060660
v 1.060662 4.703791 1.059925
v -1.499998 4.655000 0.000000
v -1.060658 4.703791 1.059925
v -1.060658 4.703791 -1.059925
v 0.000002 4.724000 1.500066
v 1.499878 4.724000 0.000000
v 1.060662 4.703791 -1.059925
v 5.000000 1.060660 -1.060660
v 5.000000 1.500000 -0.000000
v 5.000000 -0.000000 -1.500000
v 5.000000 -1.060660 -1.060660
v 5.000000 -1.500000 -0.000000
v 5.000000 -1.060660 1.060660
v 5.000000 -0.000000 1.500000
v 5.000000 1.060660 1.060660
v 4.635104 1.060660 1.059754
v 4.660000 -0.000000 -1.500000
v 4.575000 -1.500000 -0.000000
v 4.635104 -1.060660 -1.059754
v 4.635104 -1.060660 1.059754
v 4.635104 1.060660 -1.059754
v 4.660000 -0.000000 1.500000
v 4.659899 1.500000 -0.000000
v 0.000000 1.500000 -5.000000
v 1.060660 1.060660 -5.000000
v 1.500000 0.000000 -5.000000
v 1.060660 -1.060660 -5.000000
v 0.000000 -1.500000 -5.000000
v -1.060660 -1.060660 -5.000000
v -1.060660 -1.060660 -4.575000
v -1.500000 0.000000 -5.000000
v -1.060660 1.060660 -5.000000
v 0.000000 -1.500000 -4.575000
v 1.500000 0.000000 -4.660000
v -1.500000 0.000000 -4.575000
v 1.060660 1.060660 -4.634500
v 1.060660 -1.060660 -4.634500
v -1.060660 1.060660 -4.634500
v 0.000000 1.500000 -4.660054
v 1.060660 1.060660 5.000000
v 0.000000 1.500000 5.000000
v 1.500000 -0.000000 5.000000
v 1.060660 -1.060660 5.000000
v 0.000000 -1.500000 5.000000
v -1.060660 -1.060660 5.000000
v -1.500000 -0.000000 5.000000
v -1.060660 1.060660 5.000000
v -1.060660 1.060660 4.616440
v 0.000000 1.500000 4.643257
v 1.060660 1.060660 4.616440
v 1.060660 -1.060660 4.616440
v 0.000000 -1.500000 4.554000
v 1.500000 -0.000000 4.643200
v -1.500000 -0.000000 4.554000
v -1.060660 -1.060660 4.508250
vn -0.0183 0.0441 -0.9989
vn -0.0000 -0.0000 -1.0000
vn 0.0107 0.0258 -0.9996
vn 0.0602 0.0249 -0.9979
vn 0.9239 0.3827 -0.0000
vn 1.0000 -0.0001 0.0001
vn 0.0107 -0.0258 -0.9996
vn 1.0000 0.0001 -0.0000
vn 0.9239 -0.3827 -0.0000
vn 0.3827 -0.9239 -0.0000
vn -0.0008 0.3868 -0.9222
vn 0.3871 -0.0007 -0.9220
vn 0.9235 -0.0005 -0.3836
vn -0.0003 -0.9231 -0.3846
vn 1.0000 0.0001 -0.0001
vn -0.0008 -0.3868 0.9222
vn -0.9997 -0.0240 0.0100
vn 0.3884 -0.0058 0.9215
vn -0.9997 0.0099 -0.0240
vn 0.3827 0.9239 -0.0000
vn -0.3827 0.9239 -0.0000
vn -0.9239 0.3827 -0.0000
vn 0.0195 -0.9987 0.0471
vn -0.3871 -0.0007 0.9220
vn -0.9231 -0.0003 0.3846
vn -0.0001 1.0000 -0.0001
vn -0.0003 0.9232 -0.3844
vn 0.0195 -0.9987 -0.0471
vn -0.3871 -0.0007 -0.9220
vn -0.9231 -0.0003 -0.3846
vn 0.0195 -0.9998 -0.0081
vn 0.0001 1.0000 -0.0000
vn 0.3871 -0.0007 0.9220
vn 0.9235 -0.0005 0.3836
vn -0.0001 1.0000 -0.0000
vn -0.0195 -0.9998 -0.0081
vn -0.0247 0.0102 0.9996
vn -0.0000 -0.0000 1.0000
vn 0.0247 0.0102 0.9996
vn 0.0238 0.0573 0.9981
vn 1.0000 -0.0001 -0.0000
vn -0.0003 0.9232 0.3844
vn -0.0008 0.3868 0.9222
vn 0.0001 1.0000 -0.0001
vn -0.0003 -0.9231 0.3846
vn -0.9997 0.0099 0.0240
vn -0.9997 0.0240 -0.0100
vn -0.0008 -0.3868 -0.9222
vn -0.9239 -0.3827 -0.0000
vn -0.3827 -0.9239 -0.0000
vn 0.3805 0.9248 -0.0000
vn 0.3832 -0.9236 -0.0065
vn 0.9224 -0.3863 -0.0003
vn -0.0049 -0.9199 0.3921
vn -0.9207 -0.3902 -0.0052
vn -0.3902 -0.9207 -0.0052
vn -0.9236 0.3833 -0.0065
vn -0.3863 0.9224 -0.0003
vn -0.9207 -0.3902 0.0052
vn -0.9236 0.3833 0.0065
vn -0.0057 0.3880 0.9217
vn 0.9224 -0.3863 0.0003
vn -0.3951 -0.0045 0.9186
vn -0.0045 -0.3947 0.9188
vn 0.0004 0.9225 0.3861
vn 0.0004 0.9225 -0.3861
vn -0.0057 0.3880 -0.9217
vn -0.9202 -0.0048 0.3913
vn -0.0045 -0.3947 -0.9188
vn -0.3863 0.9224 0.0003
vn -0.3902 -0.9207 0.0052
vn 0.3832 -0.9236 0.0065
vn -0.9202 -0.0048 -0.3913
vn -0.3951 -0.0045 -0.9186
vn 0.3884 -0.0058 -0.9215
vn 0.9225 0.0004 -0.3861
vn -0.0049 -0.9199 -0.3921
vn 0.9225 0.0004 0.3861
vn 0.9248 0.3805 -0.0000
vn 1.0000 -0.0001 -0.0001
vn 1.0000 0.0001 0.0001
vn 0.0001 1.0000 0.0001
vn -0.0001 1.0000 0.0001
vn 0.9239 -0.0007 0.3827
vn 0.3830 -0.0011 0.9238
vn -0.9238 -0.0004 -0.3828
vn -0.3830 -0.0011 -0.9238
vn -0.9238 -0.0004 0.3828
vn -0.3830 -0.0011 0.9238
vn 0.9239 -0.0007 -0.3827
vn 0.3830 -0.0011 -0.9238
vn 0.0195 -0.9998 0.0081
vn -0.0195 -0.9998 0.0081
vn 0.0081 -0.9998 -0.0195
vn 0.0081 -0.9998 0.0195
vn -0.0012 -0.3830 -0.9237
vn -0.0004 -0.9238 0.3828
vn -0.0012 0.3830 0.9237
vn -0.0005 0.9238 0.3828
vn -0.0005 0.9238 -0.3828
vn -0.0012 -0.3830 0.9237
vn -0.0004 -0.9238 -0.3828
vn -0.0012 0.3830 -0.9237
vn -0.9997 0.0240 0.0100
vn -0.9980 0.0240 0.0580
vn -0.9980 0.0240 -0.0580
vn -0.9997 -0.0240 -0.0100
vn 0.0573 0.0238 0.9981
vn 0.0102 0.0246 0.9996
vn 0.0102 -0.0246 0.9996
vn -0.0259 0.0107 -0.9996
vn 0.0441 -0.0183 -0.9989
vn 0.0249 0.0602 -0.9979
vn 0.0259 0.0107 -0.9996
vt 0.635167 0.527608
vt 0.909415 0.153408
vt 0.417811 0.793226
vt 0.908034 0.693150
vt 0.692691 0.879502
vt 0.860480 0.505348
vt 0.909160 0.325851
vt 0.907806 0.742907
vt 0.740161 0.879502
vt 0.861690 0.325851
vt 0.283638 0.793226
vt 0.019135 0.979752
vt 0.199333 0.927078
vt 0.861470 0.153408
vt 0.611022 0.551343
vt 0.369860 0.793227
vt 0.331590 0.793226
vt 0.611022 0.503873
vt 0.067080 0.979752
vt 0.885607 0.143235
vt 0.393794 0.803116
vt 0.307645 0.803127
vt 0.042943 0.969579
vt 0.502723 0.175665
vt 0.859854 0.742908
vt 0.525553 0.151930
vt 0.151387 0.927078
vt 0.908426 0.505348
vt 0.860082 0.693148
vt 0.525553 0.199400
vt 0.884288 0.495155
vt 0.884016 0.683260
vt 0.883799 0.752808
vt 0.175525 0.916884
vt 0.716426 0.869408
vt 0.885425 0.315797
vt 0.884017 0.556990
vt 0.361940 0.694975
vt 0.907806 0.878422
vt 0.740386 0.744004
vt 0.317682 0.739293
vt 0.317608 0.676628
vt 0.659728 0.175665
vt 0.859854 0.878423
vt 0.660354 0.151706
vt 0.299298 0.695013
vt 0.860082 0.557634
vt 0.660354 0.199625
vt 0.343554 0.676639
vt 0.883800 0.879078
vt 0.299306 0.720979
vt 0.716426 0.743154
vt 0.343621 0.739285
vt 0.908034 0.557635
vt 0.692467 0.744004
vt 0.361938 0.720919
vt 0.635167 0.682734
vt 0.211353 0.412140
vt 0.909415 0.020000
vt 0.860480 0.371941
vt 0.211354 0.474800
vt 0.861470 0.020000
vt 0.611022 0.684752
vt 0.229706 0.430499
vt 0.885607 0.019135
vt 0.229706 0.456454
vt 0.167050 0.430490
vt 0.502723 0.330791
vt 0.908426 0.371941
vt 0.525553 0.332808
vt 0.167053 0.456449
vt 0.884288 0.371074
vt 0.185404 0.474803
vt 0.229273 0.694959
vt 0.861470 0.192682
vt 0.283638 0.926412
vt 0.393795 0.927215
vt 0.185176 0.739418
vt 0.480065 0.527608
vt 0.167104 0.695363
vt 0.477854 0.551564
vt 0.369860 0.926412
vt 0.166964 0.721196
vt 0.331590 0.926413
vt 0.477854 0.503653
vt 0.185139 0.676866
vt 0.417811 0.926411
vt 0.909381 0.192682
vt 0.211098 0.739290
vt 0.307644 0.927227
vt 0.210901 0.676672
vt 0.885425 0.191677
vt 0.229246 0.720839
vt 0.635167 0.373195
vt 0.053151 0.412151
vt 0.525553 0.019135
vt 0.151387 0.794282
vt 0.097454 0.456459
vt 0.175525 0.793373
vt 0.079104 0.474816
vt 0.019135 0.846956
vt 0.199333 0.794282
vt 0.053154 0.474814
vt 0.034799 0.430515
vt 0.611022 0.371078
vt 0.067080 0.846956
vt 0.034800 0.456471
vt 0.042943 0.846048
vt 0.502723 0.021252
vt 0.097456 0.430497
vt 0.185401 0.412140
vt 0.477854 0.330791
vt 0.658966 0.682734
vt 0.477854 0.022803
vt 0.658966 0.374746
vt 0.079106 0.412140
vt 0.720354 0.019201
vt 0.358820 0.564036
vt 0.718966 0.704818
vt 0.302434 0.431787
vt 0.821584 0.890669
vt 0.741774 0.019266
vt 0.358820 0.587392
vt 0.602210 0.723135
vt 0.740386 0.704753
vt 0.302434 0.455144
vt 0.799202 0.890729
vt 0.342305 0.603907
vt 0.318949 0.471659
vt 0.579828 0.723076
vt 0.778655 0.890784
vt 0.062286 0.358207
vt 0.318949 0.603908
vt 0.559281 0.723021
vt 0.062286 0.019135
vt 0.342305 0.471659
vt 0.040562 0.358207
vt 0.302434 0.587393
vt 0.040562 0.019135
vt 0.358821 0.455144
vt 0.019135 0.358207
vt 0.248495 0.019135
vt 0.302434 0.564036
vt 0.019135 0.019135
vt 0.248495 0.358207
vt 0.358821 0.431788
vt 0.318949 0.547521
vt 0.269922 0.019135
vt 0.269922 0.358207
vt 0.342305 0.415272
vt 0.291646 0.019135
vt 0.698624 0.019135
vt 0.342305 0.547520
vt 0.697236 0.704884
vt 0.291646 0.358207
vt 0.318949 0.415272
vt 0.719010 0.371078
vt 0.094310 0.587414
vt 0.094312 0.564059
vt 0.697432 0.371233
vt 0.821813 0.557120
vt 0.800261 0.557028
vt 0.077800 0.547543
vt 0.778655 0.556990
vt 0.210225 0.210249
vt 0.054446 0.547543
vt 0.040884 0.188671
vt 0.210076 0.188671
vt 0.037931 0.564058
vt 0.037929 0.587413
vt 0.210225 0.167093
vt 0.780043 0.166781
vt 0.801659 0.166754
vt 0.054441 0.603929
vt 0.823200 0.166651
vt 0.740588 0.371233
vt 0.077795 0.603929
vt 0.697236 0.518721
vt 0.821584 0.742907
vt 0.822211 0.371074
vt 0.821813 0.704638
vt 0.062683 0.807779
vt 0.741774 0.167028
vt 0.602210 0.870898
vt 0.740386 0.556990
vt 0.823200 0.019135
vt 0.019135 0.807779
vt 0.521011 0.870668
vt 0.740784 0.518721
vt 0.778714 0.743834
vt 0.778802 0.703689
vt 0.063554 0.211257
vt 0.559339 0.869971
vt 0.063554 0.166084
vt 0.780191 0.020085
vt 0.798733 0.752710
vt 0.799850 0.695060
vt 0.579359 0.861095
vt 0.801249 0.028724
vt 0.186694 0.603920
vt 0.800659 0.518684
vt 0.210048 0.603917
vt 0.822211 0.518592
vt 0.062487 0.660994
vt 0.040909 0.661912
vt 0.226561 0.587401
vt 0.019331 0.660994
vt 0.521011 0.723151
vt 0.226562 0.564045
vt 0.499470 0.723049
vt 0.210048 0.547531
vt 0.477854 0.723021
vt 0.439585 0.210249
vt 0.186694 0.547534
vt 0.270243 0.188671
vt 0.439435 0.188671
vt 0.170181 0.564050
vt 0.779054 0.518721
vt 0.170181 0.587405
vt 0.439585 0.167093
vt 0.697393 0.557934
vt 0.478002 0.869718
vt 0.292914 0.211258
vt 0.779200 0.372023
vt 0.698781 0.166085
vt 0.292914 0.166084
vt 0.800249 0.380651
vt 0.719952 0.157197
vt 0.718564 0.566822
vt 0.499060 0.861080
vt 0.040909 0.799307
vt 0.719010 0.509110
vt 0.217832 0.622712
vt 0.947897 0.263605
vt 0.487897 0.980865
vt 0.178910 0.622716
vt 0.487836 0.944840
vt 0.377598 0.688474
vt 0.478477 0.944840
vt 0.245355 0.595184
vt 0.947650 0.227641
vt 0.245355 0.556258
vt 0.947897 0.191677
vt 0.957728 0.019135
vt 0.217832 0.528735
vt 0.957684 0.055143
vt 0.178910 0.528739
vt 0.102391 0.732922
vt 0.957728 0.091063
vt 0.151387 0.556267
vt 0.100952 0.696954
vt 0.151387 0.595193
vt 0.102571 0.660994
vt 0.487897 0.908938
vt 0.957940 0.191702
vt 0.947685 0.019135
vt 0.311214 0.754956
vt 0.311108 0.660973
vt 0.112588 0.696983
vt 0.112382 0.732922
vt 0.947685 0.091063
vt 0.283638 0.688536
vt 0.350023 0.660975
vt 0.112561 0.661044
vt 0.477854 0.908938
vt 0.948325 0.055143
vt 0.283648 0.727480
vt 0.957007 0.227641
vt 0.350120 0.754939
vt 0.957940 0.263580
vt 0.477854 0.980865
vt 0.377598 0.727396
vt 0.113106 0.556273
vt 0.640726 0.833209
vt 0.959068 0.371074
vt 0.113102 0.595199
vt 0.640479 0.869173
vt 0.085586 0.528748
vt 0.959006 0.407099
vt 0.046664 0.528748
vt 0.959068 0.443002
vt 0.430553 0.616481
vt 0.019138 0.556273
vt 0.430294 0.652445
vt 0.019135 0.595199
vt 0.430553 0.688409
vt 0.946303 0.628918
vt 0.046654 0.622725
vt 0.946348 0.592999
vt 0.085577 0.622725
vt 0.946303 0.556991
vt 0.640726 0.905137
vt 0.244850 0.688400
vt 0.958675 0.556991
vt 0.653097 0.905106
vt 0.947478 0.407099
vt 0.178745 0.755104
vt 0.415885 0.652445
vt 0.151501 0.688965
vt 0.946695 0.443001
vt 0.418183 0.616512
vt 0.151387 0.727755
vt 0.418183 0.688378
vt 0.958675 0.628918
vt 0.178649 0.661259
vt 0.653097 0.833240
vt 0.946695 0.371074
vt 0.217588 0.754896
vt 0.957876 0.592999
vt 0.217332 0.660985
vt 0.244849 0.727236
vt 0.652009 0.869173
vt 0.958468 0.778619
vt 0.377616 0.556250
vt 0.958468 0.742907
vt 0.958468 0.925013
vt 0.377616 0.595177
vt 0.350090 0.622703
vt 0.958468 0.889301
vt 0.311164 0.622703
vt 0.698623 0.205298
vt 0.958468 0.853095
vt 0.283638 0.595178
vt 0.698623 0.241516
vt 0.283638 0.556251
vt 0.765714 0.276846
vt 0.698623 0.277215
vt 0.178914 0.396477
vt 0.751303 0.276846
vt 0.713034 0.277215
vt 0.311164 0.528725
vt 0.765714 0.239544
vt 0.350090 0.528725
vt 0.765714 0.205298
vt 0.958468 0.814825
vt 0.713034 0.241516
vt 0.217841 0.396478
vt 0.946940 0.889301
vt 0.245369 0.462942
vt 0.151387 0.424001
vt 0.751303 0.239544
vt 0.946075 0.742907
vt 0.946075 0.925013
vt 0.217841 0.490463
vt 0.711017 0.205298
vt 0.946075 0.853095
vt 0.245369 0.424012
vt 0.151389 0.462936
vt 0.753321 0.205298
vt 0.946075 0.814825
vt 0.178915 0.490466
vt 0.946942 0.778619
vt 0.283638 0.462929
vt 0.640479 0.723021
vt 0.803983 0.277216
vt 0.283638 0.424002
vt 0.640479 0.758734
vt 0.311164 0.490455
vt 0.803983 0.241504
vt 0.350091 0.490455
vt 0.803983 0.205298
vt 0.415885 0.468394
vt 0.377616 0.462930
vt 0.415885 0.432176
vt 0.377616 0.424003
vt 0.415885 0.396477
vt 0.415885 0.578212
vt 0.350091 0.396477
vt 0.415885 0.540909
vt 0.311164 0.396477
vt 0.640479 0.794940
vt 0.415885 0.506663
vt 0.653484 0.794940
vt 0.428891 0.506663
vt 0.113118 0.462945
vt 0.652575 0.758734
vt 0.085593 0.490478
vt 0.653484 0.723021
vt 0.816989 0.277216
vt 0.046668 0.490478
vt 0.019135 0.424029
vt 0.816989 0.205298
vt 0.428891 0.468394
vt 0.431008 0.432176
vt 0.046662 0.396489
vt 0.019137 0.462960
vt 0.816082 0.241504
vt 0.431008 0.540909
vt 0.113118 0.424007
vt 0.432559 0.396477
vt 0.432559 0.578212
vt 0.085592 0.396477
s 0
usemtl Material.004
f 43/110/1 45/116/1 154/392/1 153/389/1
f 130/331/2 131/333/2 60/153/2 58/147/2
f 41/104/3 42/107/3 152/386/3 150/381/3
f 37/95/4 41/104/4 150/381/4 151/385/4
f 52/133/2 50/128/2 125/318/2 126/320/2
f 23/59/5 2/2/5 6/20/5 25/65/5
f 69/174/6 113/288/6 112/285/6 68/170/6
f 42/107/7 40/103/7 149/380/7 152/386/7
f 108/276/8 62/158/8 63/159/8 107/273/8
f 130/331/2 58/147/2 56/143/2 128/325/2
f 25/65/9 6/20/9 4/14/9 24/62/9
f 24/63/10 4/15/10 1/1/10 22/57/10
f 30/77/11 6/21/11 2/3/11 34/87/11
f 21/54/12 2/4/12 11/32/12 14/37/12
f 20/52/13 13/35/13 2/5/13 21/55/13
f 31/79/14 1/1/14 4/15/14 32/81/14
f 64/163/15 109/278/15 107/273/15 63/159/15
f 33/84/16 35/90/16 7/22/16 5/17/16
f 29/74/17 35/91/17 121/310/17 115/293/17
f 88/227/18 77/201/18 85/218/18 87/224/18
f 36/93/19 29/74/19 115/293/19 122/311/19
f 28/72/20 11/31/20 2/6/20 23/60/20
f 27/69/21 10/28/21 11/31/21 28/72/21
f 26/68/22 8/24/22 10/30/22 27/70/22
f 16/42/23 17/46/23 102/262/23 101/258/23
f 19/50/24 17/44/24 9/25/24 12/33/24
f 17/45/25 16/43/25 8/24/25 9/26/25
f 85/219/26 77/200/26 92/236/26 99/252/26
f 34/88/27 2/7/27 13/36/27 36/92/27
f 18/49/28 16/42/28 101/258/28 103/263/28
f 11/32/29 10/29/29 18/47/29 14/37/29
f 8/24/30 16/43/30 18/48/30 10/30/30
f 14/38/31 18/49/31 103/263/31 93/238/31
f 79/206/32 94/240/32 91/233/32 78/202/32
f 3/8/33 15/39/33 19/50/33 12/33/33
f 3/9/34 13/35/34 20/52/34 15/40/34
f 98/250/35 84/217/35 85/219/35 99/252/35
f 21/56/36 14/38/36 93/238/36 106/272/36
f 28/73/37 23/61/37 135/344/37 138/351/37
f 53/136/38 142/360/38 141/358/38 51/129/38
f 27/71/39 28/73/39 138/351/39 137/348/39
f 144/365/38 57/146/38 59/150/38 145/368/38
f 26/67/40 27/71/40 137/348/40 134/340/40
f 22/58/38 44/111/38 129/328/38 132/337/38
f 111/283/41 67/169/41 68/170/41 112/285/41
f 13/36/42 3/10/42 29/75/42 36/92/42
f 3/11/43 7/22/43 35/90/43 29/76/43
f 92/236/44 77/200/44 78/202/44 91/233/44
f 1/1/45 31/79/45 33/85/45 5/18/45
f 34/89/46 36/93/46 122/311/46 120/308/46
f 32/83/47 30/78/47 116/297/47 118/302/47
f 6/21/48 30/77/48 32/82/48 4/16/48
f 3/12/5 40/101/5 42/108/5 7/23/5
f 5/18/10 41/105/10 37/94/10 1/1/10
f 7/23/9 42/108/9 41/106/9 5/19/9
f 12/34/20 39/99/20 40/102/20 3/13/20
f 8/24/22 43/109/22 38/96/22 9/26/22
f 9/27/21 38/97/21 39/99/21 12/34/21
f 139/353/38 49/126/38 51/129/38 141/358/38
f 44/111/38 26/67/38 134/340/38 129/328/38
f 44/112/49 45/114/49 43/109/49 8/24/49 26/68/49
f 22/57/50 1/1/50 37/94/50 45/115/50 44/113/50
f 56/141/51 57/144/51 55/139/51 66/167/51 54/137/51
f 86/221/52 89/229/52 47/119/52 61/154/52
f 83/215/53 86/223/53 61/155/53 59/149/53
f 63/160/54 62/157/54 90/232/54 71/178/54
f 72/184/55 76/198/55 51/130/55 49/124/55
f 89/229/56 72/185/56 49/125/56 47/119/56
f 76/198/57 74/193/57 53/134/57 51/130/57
f 74/194/58 66/167/58 55/139/58 53/135/58
f 48/121/59 50/127/59 75/196/59 71/179/59
f 50/127/60 52/131/60 73/190/60 75/196/60
f 75/197/61 73/191/61 65/164/61 64/162/61
f 58/148/62 60/151/62 87/226/62 83/215/62
f 78/203/63 77/201/63 88/227/63 71/180/63
f 64/162/64 63/161/64 71/181/64 75/197/64
f 67/168/65 65/165/65 73/192/65 66/167/65
f 66/167/66 74/194/66 68/171/66 67/168/66
f 68/172/67 74/195/67 76/199/67 69/173/67
f 79/205/68 78/204/68 71/182/68 90/231/68
f 72/186/69 70/175/69 69/173/69 76/199/69
f 52/132/70 54/137/70 66/167/70 73/192/70
f 46/117/71 48/122/71 71/183/71 88/228/71
f 60/152/72 46/117/72 88/228/72 87/225/72
f 72/187/73 80/207/73 79/205/73 90/231/73
f 72/188/74 89/230/74 81/210/74 80/208/74
f 81/210/75 89/230/75 86/222/75 82/212/75
f 82/213/76 86/223/76 83/215/76 84/216/76
f 90/232/77 62/157/77 70/176/77 72/189/77
f 83/215/78 87/226/78 85/220/78 84/216/78
f 58/148/79 83/215/79 59/149/79 57/145/79 56/142/79
f 139/353/38 140/356/38 47/120/38 49/126/38
f 125/318/2 50/128/2 48/123/2 124/317/2
f 52/133/2 126/320/2 127/323/2 54/138/2
f 143/363/38 142/360/38 53/136/38 55/140/38
f 54/138/2 127/323/2 128/325/2 56/143/2
f 143/363/38 55/140/38 57/146/38 144/365/38
f 146/370/38 145/368/38 59/150/38 61/156/38
f 60/153/2 131/333/2 123/314/2 46/118/2
f 146/370/38 61/156/38 47/120/38 140/356/38
f 110/280/80 109/278/80 64/163/80 65/166/80
f 110/280/41 65/166/41 67/169/41 111/283/41
f 114/290/81 113/288/81 69/174/81 70/177/81
f 114/290/8 70/177/8 62/158/8 108/276/8
f 80/209/32 95/242/32 94/240/32 79/206/32
f 81/211/82 96/245/82 95/242/82 80/209/82
f 97/247/83 96/245/83 81/211/83 82/214/83
f 97/247/35 82/214/35 84/217/35 98/250/35
f 100/255/84 105/268/84 94/241/84 95/243/84
f 100/256/85 95/244/85 96/246/85 104/266/85
f 101/259/86 98/251/86 99/253/86 103/264/86
f 93/239/87 103/265/87 99/254/87 92/237/87
f 97/248/88 98/251/88 101/259/88 102/260/88
f 96/246/89 97/249/89 102/261/89 104/266/89
f 94/241/90 105/268/90 106/270/90 91/234/90
f 91/235/91 106/271/91 93/239/91 92/237/91
f 17/46/92 19/51/92 104/267/92 102/262/92
f 19/51/93 15/41/93 100/257/93 104/267/93
f 15/41/94 20/53/94 105/269/94 100/257/94
f 20/53/95 21/56/95 106/272/95 105/269/95
f 116/296/96 109/279/96 110/281/96 118/300/96
f 117/298/97 111/284/97 112/286/97 119/303/97
f 115/294/98 121/309/98 113/289/98 114/291/98
f 122/312/99 115/295/99 114/292/99 108/277/99
f 107/274/100 120/306/100 122/312/100 108/277/100
f 112/287/101 113/289/101 121/309/101 119/304/101
f 111/284/102 117/298/102 118/301/102 110/282/102
f 109/279/103 116/296/103 120/307/103 107/275/103
f 35/91/104 33/86/104 119/305/104 121/310/104
f 33/86/105 31/80/105 117/299/105 119/305/105
f 31/80/106 32/83/106 118/302/106 117/299/106
f 30/78/107 34/89/107 120/308/107 116/297/107
f 130/332/22 134/341/22 137/349/22 131/334/22
f 131/335/21 137/350/21 138/352/21 123/313/21
f 123/313/20 138/352/20 135/342/20 124/315/20
f 126/321/10 136/345/10 132/336/10 127/324/10
f 125/319/9 133/338/9 136/346/9 126/322/9
f 124/316/5 135/343/5 133/338/5 125/319/5
f 128/326/49 129/329/49 134/341/49 130/332/49
f 127/324/50 132/336/50 129/330/50 128/327/50
f 24/64/108 22/58/108 132/337/108 136/347/108
f 25/66/109 24/64/109 136/347/109 133/339/109
f 23/61/110 25/66/110 133/339/110 135/344/110
f 147/373/21 146/371/21 140/357/21 148/376/21
f 154/390/50 151/384/50 143/364/50 144/366/50
f 154/391/49 144/367/49 145/369/49 153/388/49
f 153/388/22 145/369/22 146/372/22 147/374/22
f 148/376/20 140/357/20 139/354/20 149/378/20
f 152/387/9 141/359/9 142/361/9 150/382/9
f 150/383/10 142/362/10 143/364/10 151/384/10
f 149/379/5 139/355/5 141/359/5 152/387/5
f 40/103/111 39/100/111 148/377/111 149/380/111
f 45/116/112 37/95/112 151/385/112 154/392/112
f 38/98/113 43/110/113 153/389/113 147/375/113
f 39/100/114 38/98/114 147/375/114 148/377/114
f 46/118/2 123/314/2 124/317/2 48/123/2
