# Blender 3.3.1
# www.blender.org
mtllib model.mtl
o Pipe3-1
v 1.788742 0.404670 -0.319932
v 1.788742 -0.145438 -0.142293
v 1.788742 -0.323076 0.407814
v 2.081635 0.253229 -1.010631
v 2.081635 -0.645438 -0.642293
v 2.081635 -1.013776 0.256374
v 1.745036 0.101789 -1.745036
v 1.788741 -1.145438 -1.142293
v 1.745036 -1.748180 0.104933
v 0.347230 0.404670 -0.347230
v 0.374528 -0.145438 -0.142294
v 0.347230 -0.350374 0.407814
v 1.081635 0.467399 -0.033835
v 1.081635 0.061669 0.064813
v 1.081635 -0.036979 0.470543
v -0.470542 -0.036979 -1.081634
v -0.064812 0.061668 -1.081634
v 0.033836 0.467398 -1.081634
v -0.407813 -0.350374 -0.347230
v 0.142295 -0.145439 -0.374527
v -0.104932 -1.748180 -1.745036
v 1.142295 -1.145439 -1.788741
v -0.256373 -1.013776 -2.081634
v 0.642295 -0.645439 -2.081634
v 1.010632 0.253229 -2.081634
v 0.319933 0.404669 -1.788741
v 0.142295 -0.145439 -1.788741
v -0.407813 -0.323077 -1.788741
v 1.142295 -1.791885 -1.142294
v 1.010632 -2.084778 0.256374
v 0.642295 -2.084778 -0.642294
v -0.256373 -2.084778 -1.010631
v 0.319933 -1.791885 0.407814
v 0.142295 -1.791885 -0.142294
v -0.407813 -1.791885 -0.319932
v 0.033836 -1.084778 0.470543
v -0.064812 -1.084778 0.064813
v -0.470542 -1.084778 -0.033835
v 0.142295 -0.377671 -0.142294
v -3.558365 -0.084778 -1.081634
v -3.558365 -0.377671 -1.788741
v -3.558365 -1.084778 -2.081634
v -3.558365 -1.791885 -1.788741
v -3.558365 -2.084778 -1.081634
v -3.558365 -1.791885 -0.374527
v -3.558365 -1.084778 -0.081634
v -3.558365 -0.377671 -0.374527
v 1.081635 -0.084778 3.558366
v 1.788742 -0.377671 3.558366
v 2.081635 -1.084778 3.558366
v 1.788742 -1.791885 3.558366
v 1.081635 -2.084778 3.558366
v 0.374528 -1.791885 3.558366
v 0.081635 -1.084778 3.558366
v 0.374528 -0.377672 3.558366
v 1.081635 3.589222 -2.081634
v 1.788742 3.589222 -1.788741
v 2.081635 3.589222 -1.081634
v 1.788742 3.589222 -0.374527
v 1.081635 3.589222 -0.081634
v 0.374528 3.589222 -0.374527
v 0.081635 3.589222 -1.081634
v 0.374528 3.589222 -1.788741
v -3.918365 -0.184778 -1.081634
v -3.918365 -0.448382 -1.718030
v -3.918365 -1.084778 -1.981634
v -3.918365 -1.721174 -1.718030
v -3.918365 -1.984778 -1.081634
v -3.918365 -1.721174 -0.445238
v -3.918365 -1.084778 -0.181634
v -3.918365 -0.448382 -0.445238
v 1.081635 -0.184778 3.918366
v 1.718031 -0.448382 3.918366
v 1.981635 -1.084778 3.918366
v 1.718031 -1.721174 3.918366
v 1.081635 -1.984778 3.918366
v 0.445239 -1.721174 3.918366
v 0.181635 -1.084778 3.918366
v 0.445239 -0.448382 3.918366
v 1.081635 3.915222 -1.981634
v 1.718031 3.915222 -1.718030
v 1.981635 3.915222 -1.081634
v 1.718031 3.915222 -0.445238
v 1.081635 3.915222 -0.181634
v 0.445239 3.915222 -0.445238
v 0.181635 3.915222 -1.081634
v 0.445239 3.915222 -1.718030
v 1.716884 0.392740 -0.388445
v 1.710570 -0.189536 -0.186391
v 1.716884 -0.391589 0.395885
v 1.981764 0.254812 -1.005798
v 1.982165 -0.638165 -0.635020
v 1.981764 -1.008942 0.257957
v 1.674952 0.115072 -1.674952
v 1.709092 -1.103240 -1.098989
v 1.674834 -1.677978 0.116900
v 0.416797 0.386755 -0.416796
v 0.432818 -0.201962 -0.200665
v 0.416947 -0.420090 0.391105
v 1.082153 0.451589 -0.132576
v 1.082226 -0.009041 -0.005896
v 1.082153 -0.135720 0.454733
v -0.454732 -0.135720 -1.082152
v 0.005898 -0.009041 -1.082225
v 0.132577 0.451588 -1.082152
v -0.391104 -0.420091 -0.416946
v 0.200666 -0.201963 -0.432818
v -0.116899 -1.677978 -1.674833
v 1.098990 -1.103240 -1.709091
v -0.257956 -1.008942 -1.981763
v 0.635021 -0.638165 -1.982165
v 1.005799 0.254812 -1.981763
v 0.388447 0.392740 -1.716883
v 0.186392 -0.189536 -1.710569
v -0.395884 -0.391590 -1.716883
v 1.097407 -1.714618 -1.097406
v 1.005799 -1.984908 0.257956
v 0.635021 -1.985309 -0.635020
v -0.257955 -1.984908 -1.005798
v 0.388447 -1.720027 0.395885
v 0.186392 -1.713713 -0.186391
v -0.395884 -1.720027 -0.388446
v 0.132577 -1.085296 0.454733
v 0.005898 -1.085369 -0.005896
v -0.454732 -1.085296 -0.132576
v 0.201842 -0.431600 -0.201841
v 2.142295 3.915222 -2.142294
v 1.081635 3.915222 -2.581634
v 1.081635 3.589222 -2.581634
v 2.581635 3.915222 -1.081634
v 2.142295 3.915222 -0.020974
v 1.081635 3.915222 0.418366
v 0.020975 3.915222 -0.020974
v -0.418365 3.915222 -1.081634
v 0.020975 3.915222 -2.142294
v 2.142295 3.589222 -2.142294
v 2.581635 3.589222 -1.081634
v 2.142295 3.589222 -0.020974
v 1.081635 3.589222 0.418366
v 0.020975 3.589222 -0.020974
v -0.418365 3.589222 -1.081634
v 0.020975 3.589222 -2.142294
v -3.918365 0.415222 -1.081634
v -3.918365 -0.024118 -2.142294
v -3.558365 -0.024118 -2.142294
v -3.918365 -1.084778 -2.581634
v -3.558365 -1.084778 -2.581634
v -3.918365 -2.145438 -2.142294
v -3.558365 -2.145438 -2.142294
v -3.918365 -2.584778 -1.081634
v -3.558365 -2.584778 -1.081634
v -3.918365 -2.145438 -0.020974
v -3.558365 -2.145438 -0.020974
v -3.918365 -1.084778 0.418366
v -3.558365 -1.084778 0.418366
v -3.918365 -0.024118 -0.020974
v -3.558365 -0.024118 -0.020974
v -3.558365 0.415222 -1.081634
v 2.142295 -0.024118 3.918366
v 1.081635 0.415222 3.918366
v 1.081635 0.415222 3.558366
v 2.581635 -1.084778 3.918366
v 2.142295 -2.145438 3.918366
v 1.081635 -2.584778 3.918366
v 0.020975 -2.145438 3.918366
v -0.418365 -1.084778 3.918366
v 0.020975 -0.024118 3.918366
v 2.142295 -0.024118 3.558366
v 2.581635 -1.084778 3.558366
v 2.142295 -2.145438 3.558366
v 1.081635 -2.584778 3.558366
v 0.020975 -2.145438 3.558366
v -0.418365 -1.084778 3.558366
v 0.020975 -0.024118 3.558366
vn -0.0075 0.3858 -0.9226
vn 0.0127 -0.3990 -0.9168
vn 0.0127 -0.9168 -0.3990
vn -0.0075 -0.9226 0.3858
vn -0.0152 -0.3794 0.9251
vn -0.0128 0.3881 0.9215
vn -0.0128 0.9215 0.3881
vn 0.3794 0.9251 0.0152
vn -0.0000 -0.0000 -1.0000
vn -0.0000 -0.0000 1.0000
vn -0.0000 1.0000 -0.0000
vn -0.6894 0.6894 0.2226
vn -0.0000 -1.0000 -0.0000
vn -0.2226 0.6894 0.6894
vn 0.0140 -0.9254 0.3788
vn 0.9168 -0.0126 -0.3991
vn -0.9251 0.0150 -0.3794
vn -0.3858 0.0074 -0.9225
vn 0.3991 -0.0126 -0.9168
vn 0.9225 0.3858 0.0075
vn 0.9168 -0.3990 -0.0127
vn 0.3990 -0.9168 -0.0127
vn 0.9167 0.3739 0.1409
vn 0.9167 0.1409 0.3739
vn 0.3794 0.0150 0.9251
vn 0.9108 -0.3828 -0.1547
vn 0.9108 -0.1547 -0.3828
vn 0.9225 0.0074 0.3858
vn -0.3714 0.8879 0.2714
vn -0.3714 0.2714 0.8879
vn -0.9215 0.0127 0.3881
vn 0.3617 0.8956 0.2589
vn 0.3617 0.2589 0.8956
vn -0.3881 0.0127 0.9215
vn -0.8879 0.2714 0.3714
vn -0.2714 0.8879 0.3714
vn 0.3828 -0.1547 -0.9108
vn 0.1547 -0.3828 -0.9108
vn -0.3739 0.1409 -0.9167
vn -0.1409 0.3739 -0.9167
vn -0.8956 0.2589 -0.3617
vn -0.2589 0.8956 -0.3617
vn 0.1547 -0.9108 -0.3828
vn 0.3828 -0.9108 -0.1547
vn -0.3858 -0.9226 0.0075
vn -0.1409 -0.9167 0.3739
vn -0.3739 -0.9167 0.1409
vn -0.9251 -0.3794 0.0152
vn -0.2589 -0.3617 0.8956
vn -0.8956 -0.3617 0.2589
vn -0.9215 0.3881 0.0128
vn -0.2714 0.3714 0.8879
vn -0.8879 0.3714 0.2714
vn -0.3881 0.9215 0.0128
vn -0.6631 0.3474 0.6631
vn 0.3021 -0.6741 -0.6741
vn 0.6741 -0.6741 -0.3021
vn 0.6448 -0.4105 -0.6448
vn -1.0000 -0.0000 -0.0000
vn 1.0000 -0.0000 -0.0000
vn 0.6858 -0.6886 -0.2354
vn -0.0152 0.9251 -0.3794
vn 0.2354 -0.6886 -0.6858
vn 0.0117 -0.9214 -0.3885
vn 0.0117 -0.3885 -0.9214
vn 0.0140 0.3788 -0.9254
vn 0.0070 0.9217 -0.3878
vn -0.9167 0.0116 0.3993
vn 0.9254 -0.0140 0.3788
vn 0.3878 -0.0070 0.9217
vn -0.3993 0.0116 0.9167
vn -0.9217 -0.3878 -0.0070
vn -0.9167 0.3994 0.0117
vn -0.3994 0.9167 0.0117
vn -0.9135 -0.3805 -0.1441
vn -0.9135 -0.1441 -0.3805
vn -0.3788 -0.0140 -0.9254
vn -0.9107 0.3823 0.1564
vn -0.9106 0.1566 0.3824
vn -0.9217 -0.0070 -0.3878
vn 0.3760 -0.8822 -0.2834
vn 0.3768 -0.2824 -0.8822
vn 0.9214 -0.0118 -0.3884
vn -0.3603 -0.8903 -0.2785
vn -0.3603 -0.2785 -0.8903
vn 0.3884 -0.0118 -0.9214
vn 0.8822 -0.2824 -0.3768
vn 0.2834 -0.8822 -0.3760
vn -0.3788 -0.9254 -0.0140
vn -0.3824 0.1566 0.9106
vn -0.1564 0.3823 0.9107
vn -0.0117 0.9167 0.3994
vn 0.3805 -0.1441 0.9135
vn 0.1441 -0.3805 0.9135
vn -0.0117 0.3994 0.9167
vn 0.8903 -0.2785 0.3603
vn 0.2785 -0.8903 0.3603
vn 0.0070 -0.3878 0.9217
vn -0.1558 0.9110 0.3819
vn -0.3819 0.9110 0.1558
vn 0.3878 0.9217 -0.0070
vn 0.1441 0.9135 -0.3805
vn 0.3805 0.9135 -0.1441
vn 0.9254 0.3788 -0.0140
vn 0.2785 0.3603 -0.8903
vn 0.8903 0.3603 -0.2785
vn 0.9214 -0.3885 -0.0117
vn 0.2821 -0.3768 -0.8823
vn 0.8823 -0.3768 -0.2821
vn 0.3885 -0.9214 -0.0117
vn 0.6629 -0.3482 -0.6628
vn -0.3001 0.6751 0.6740
vn -0.6740 0.6751 0.3001
vn -0.6457 0.4076 0.6457
vn 0.3827 -0.0000 -0.9239
vn 0.9239 -0.0000 -0.3827
vn 0.9239 -0.0000 0.3827
vn 0.3827 -0.0000 0.9239
vn -0.3827 -0.0000 0.9239
vn -0.9239 -0.0000 0.3827
vn -0.9239 -0.0000 -0.3827
vn -0.3827 -0.0000 -0.9239
vn -0.0000 0.9239 0.3827
vn -0.0000 0.3827 0.9239
vn -0.0000 -0.3827 0.9239
vn -0.0000 -0.9239 0.3827
vn -0.0000 -0.9239 -0.3827
vn -0.0000 -0.3827 -0.9239
vn -0.0000 0.3827 -0.9239
vn -0.0000 0.9239 -0.3827
vn 0.3827 0.9239 -0.0000
vn 0.9239 0.3827 -0.0000
vn 0.9239 -0.3827 -0.0000
vn 0.3827 -0.9239 -0.0000
vn -0.3827 -0.9239 -0.0000
vn -0.9239 -0.3827 -0.0000
vn -0.9239 0.3827 -0.0000
vn -0.3827 0.9239 -0.0000
vt 0.603991 0.605699
vt 0.032743 0.614676
vt 0.597293 0.584251
vt 0.838018 0.483074
vt 0.017469 0.629863
vt 0.575981 0.577130
vt 0.837468 0.504214
vt 0.630602 0.600368
vt 0.616623 0.565299
vt 0.581838 0.550629
vt 0.659527 0.594452
vt 0.658790 0.408093
vt 0.636526 0.545787
vt 0.547112 0.018715
vt 0.664568 0.458522
vt 0.588325 0.521827
vt 0.596185 0.020495
vt 0.694821 0.928478
vt 0.072551 0.654130
vt 0.892653 0.482310
vt 0.056490 0.668570
vt 0.926955 0.293324
vt 0.893040 0.503399
vt 0.053606 0.632299
vt 0.866310 0.491008
vt 0.042382 0.643500
vt 0.866044 0.506642
vt 0.934367 0.041736
vt 0.722798 0.939833
vt 0.934242 0.026484
vt 0.722923 0.924581
vt 0.906265 0.037839
vt 0.072730 0.695639
vt 0.695614 0.948848
vt 0.907059 0.017469
vt 0.063192 0.674925
vt 0.524983 0.093121
vt 0.587780 0.480612
vt 0.635224 0.456506
vt 0.579708 0.451046
vt 0.614107 0.436344
vt 0.628341 0.401380
vt 0.604087 0.396922
vt 0.750787 0.928110
vt 0.597201 0.418301
vt 0.750557 0.948601
vt 0.962002 0.017716
vt 0.576153 0.425449
vt 0.962232 0.038208
vt 0.547984 0.044455
vt 0.639754 0.483863
vt 0.602672 0.049297
vt 0.567887 0.063968
vt 0.553908 0.099037
vt 0.608529 0.075798
vt 0.982531 0.293683
vt 0.587217 0.082919
vt 0.017859 0.720379
vt 0.981808 0.272549
vt 0.580519 0.104367
vt 0.033262 0.735435
vt 0.953976 0.296346
vt 0.042653 0.706528
vt 0.953581 0.280715
vt 0.053973 0.717632
vt 0.900623 0.481881
vt 0.927168 0.272232
vt 0.056545 0.681337
vt 0.784579 0.557794
vt 0.934359 0.160833
vt 0.455781 0.429129
vt 0.763560 0.536757
vt 0.962232 0.159699
vt 0.453547 0.455437
vt 0.733823 0.536757
vt 0.455525 0.483863
vt 0.524614 0.227383
vt 0.712786 0.557794
vt 0.552379 0.227383
vt 0.712773 0.587545
vt 0.579571 0.226822
vt 0.120261 0.821665
vt 0.733791 0.608582
vt 0.139233 0.802145
vt 0.763529 0.608582
vt 0.158947 0.782623
vt 0.907289 0.159452
vt 0.784566 0.587545
vt 0.804058 0.035547
vt 0.867051 0.626538
vt 0.838470 0.626538
vt 0.833171 0.035449
vt 0.453569 0.573759
vt 0.853756 0.056416
vt 0.453547 0.546560
vt 0.454096 0.518801
vt 0.730413 0.017469
vt 0.853756 0.086165
vt 0.730963 0.045228
vt 0.833170 0.107271
vt 0.730940 0.072426
vt 0.982531 0.416012
vt 0.804058 0.107369
vt 0.953951 0.416246
vt 0.783472 0.086403
vt 0.927892 0.415695
vt 0.893105 0.625773
vt 0.783472 0.056653
vt 0.631657 0.272232
vt 0.763535 0.679448
vt 0.784562 0.700494
vt 0.659883 0.730036
vt 0.660777 0.272940
vt 0.784562 0.730245
vt 0.632119 0.730036
vt 0.763535 0.751273
vt 0.119927 0.526761
vt 0.604926 0.729475
vt 0.139065 0.546116
vt 0.733797 0.751260
vt 0.695844 0.805552
vt 0.158947 0.565468
vt 0.712770 0.730214
vt 0.722915 0.804170
vt 0.712770 0.700463
vt 0.750787 0.805305
vt 0.606748 0.273643
vt 0.733797 0.679435
vt 0.479616 0.765242
vt 0.293313 0.799642
vt 0.504093 0.764974
vt 0.236758 0.187594
vt 0.312121 0.780686
vt 0.236969 0.212090
vt 0.338720 0.780655
vt 0.489676 0.017469
vt 0.236708 0.237060
vt 0.357528 0.799567
vt 0.488543 0.041838
vt 0.357528 0.826344
vt 0.338720 0.845300
vt 0.306208 0.581465
vt 0.489676 0.066918
vt 0.291079 0.563142
vt 0.312121 0.845331
vt 0.454629 0.765001
vt 0.271908 0.546107
vt 0.293313 0.826419
vt 0.871529 0.821606
vt 0.312373 0.702597
vt 0.066645 0.272189
vt 0.896005 0.821929
vt 0.339139 0.702607
vt 0.040923 0.272449
vt 0.358066 0.683681
vt 0.017469 0.271998
vt 0.271908 0.237294
vt 0.358066 0.656905
vt 0.295362 0.236843
vt 0.339139 0.637965
vt 0.321084 0.237103
vt 0.892016 0.272232
vt 0.312373 0.637955
vt 0.867539 0.272501
vt 0.293447 0.656881
vt 0.842552 0.272259
vt 0.846542 0.821791
vt 0.293447 0.683657
vt 0.042846 0.017469
vt 0.766318 0.358466
vt 0.785127 0.339554
vt 0.235237 0.491823
vt 0.017876 0.017667
vt 0.234104 0.467454
vt 0.785127 0.312778
vt 0.306208 0.272232
vt 0.235237 0.442374
vt 0.766318 0.293822
vt 0.291079 0.288824
vt 0.739720 0.293791
vt 0.540120 0.925215
vt 0.271908 0.306705
vt 0.720911 0.312703
vt 0.565107 0.924974
vt 0.720911 0.339479
vt 0.589584 0.925242
vt 0.067342 0.017744
vt 0.739719 0.358435
vt 0.099147 0.439637
vt 0.401538 0.369978
vt 0.076678 0.431691
vt 0.896315 0.662158
vt 0.418609 0.385830
vt 0.068844 0.409048
vt 0.896315 0.684982
vt 0.092679 0.463959
vt 0.058177 0.449420
vt 0.043853 0.414671
vt 0.088600 0.489521
vt 0.019361 0.165398
vt 0.041382 0.467008
vt 0.274910 0.043198
vt 0.017469 0.213261
vt 0.019324 0.419637
vt 0.273763 0.089656
vt 0.539032 0.788062
vt 0.366447 0.405425
vt 0.846648 0.661476
vt 0.384400 0.420817
vt 0.841470 0.409366
vt 0.845769 0.684682
vt 0.384809 0.384908
vt 0.872056 0.668930
vt 0.398195 0.397393
vt 0.871891 0.686953
vt 0.479674 0.899895
vt 0.565288 0.772297
vt 0.479798 0.917919
vt 0.565164 0.790321
vt 0.453547 0.902107
vt 0.366417 0.449720
vt 0.539862 0.764974
vt 0.454373 0.925315
vt 0.376364 0.427672
vt 0.342988 0.019776
vt 0.088930 0.235191
vt 0.041728 0.212751
vt 0.094714 0.208923
vt 0.060024 0.194459
vt 0.045649 0.159732
vt 0.069409 0.154646
vt 0.589584 0.788294
vt 0.077233 0.177294
vt 0.589532 0.765470
vt 0.504042 0.924746
vt 0.504093 0.901922
vt 0.099861 0.185176
vt 0.295915 0.042343
vt 0.041216 0.237060
vt 0.298292 0.094621
vt 0.312616 0.059872
vt 0.347118 0.045334
vt 0.323283 0.100245
vt 0.892016 0.409180
vt 0.331117 0.077601
vt 0.418609 0.469452
vt 0.891965 0.432004
vt 0.353586 0.069655
vt 0.401538 0.485892
vt 0.867597 0.407154
vt 0.398195 0.456444
vt 0.867721 0.425177
vt 0.384809 0.469227
vt 0.837449 0.661627
vt 0.842123 0.432616
vt 0.384355 0.433455
vt 0.806532 0.348505
vt 0.888402 0.856867
vt 0.931678 0.743924
vt 0.775185 0.380025
vt 0.886772 0.900529
vt 0.899388 0.900753
vt 0.770969 0.661496
vt 0.806532 0.303877
vt 0.931253 0.702279
vt 0.775185 0.272284
vt 0.931678 0.661484
vt 0.948626 0.481881
vt 0.730853 0.272232
vt 0.948231 0.522708
vt 0.699506 0.303752
vt 0.948626 0.564324
vt 0.195775 0.843868
vt 0.699506 0.348380
vt 0.193885 0.803253
vt 0.730853 0.379973
vt 0.195775 0.761452
vt 0.888402 0.937916
vt 0.802510 0.693065
vt 0.901017 0.857090
vt 0.944347 0.743916
vt 0.802510 0.737691
vt 0.943923 0.702272
vt 0.770969 0.769232
vt 0.944347 0.661476
vt 0.935956 0.481888
vt 0.935561 0.522715
vt 0.726363 0.769213
vt 0.935956 0.564331
vt 0.208370 0.843917
vt 0.694821 0.737643
vt 0.206481 0.803302
vt 0.694821 0.693017
vt 0.208370 0.761501
vt 0.901017 0.938139
vt 0.726363 0.661476
vt 0.193886 0.684714
vt 0.271908 0.790742
vt 0.197052 0.527005
vt 0.195775 0.726514
vt 0.303255 0.759148
vt 0.771003 0.518801
vt 0.210804 0.526762
vt 0.209684 0.726460
vt 0.347586 0.759097
vt 0.193886 0.566482
vt 0.207638 0.566239
vt 0.726396 0.518801
vt 0.378933 0.790617
vt 0.624947 0.764974
vt 0.197052 0.609107
vt 0.638938 0.764983
vt 0.210804 0.608863
vt 0.694841 0.550357
vt 0.378933 0.835244
vt 0.624522 0.806619
vt 0.638513 0.806628
vt 0.694821 0.594982
vt 0.347586 0.866837
vt 0.851834 0.939319
vt 0.624947 0.847414
vt 0.837843 0.939311
vt 0.638938 0.847423
vt 0.726349 0.626538
vt 0.303255 0.866889
vt 0.851440 0.898491
vt 0.837449 0.898484
vt 0.770955 0.626538
vt 0.271908 0.835369
vt 0.195775 0.644099
vt 0.851834 0.856875
vt 0.802511 0.594982
vt 0.209684 0.644045
vt 0.837843 0.856868
vt 0.802530 0.550357
vt 0.207795 0.684660
vt 0.348061 0.724158
vt 0.067423 0.856603
vt 0.017894 0.939043
vt 0.303452 0.724142
vt 0.066823 0.899470
vt 0.796780 0.017617
vt 0.080809 0.899524
vt 0.379605 0.692615
vt 0.017469 0.898248
vt 0.379605 0.647988
vt 0.017894 0.856603
vt 0.786151 0.886619
vt 0.348061 0.616420
vt 0.785726 0.844974
vt 0.303452 0.616404
vt 0.786151 0.804179
vt 0.116947 0.938618
vt 0.271908 0.647947
vt 0.116347 0.895751
vt 0.271908 0.692574
vt 0.116947 0.856658
vt 0.067423 0.938563
vt 0.840449 0.017469
vt 0.081409 0.856658
vt 0.031884 0.939052
vt 0.871327 0.048919
vt 0.031460 0.898257
vt 0.031884 0.856612
vt 0.800141 0.886610
vt 0.871327 0.093543
vt 0.799716 0.844965
vt 0.840449 0.125202
vt 0.800141 0.804170
vt 0.130933 0.938563
vt 0.796780 0.125349
vt 0.130333 0.895696
vt 0.765901 0.093899
vt 0.130933 0.856603
vt 0.081409 0.938618
vt 0.765901 0.049275
s 0
usemtl Material.003
f 28/48/1 23/40/1 42/74/1 41/71/1
f 23/40/2 21/38/2 43/76/2 42/74/2
f 21/37/3 32/54/3 44/79/3 43/77/3
f 32/54/4 35/60/4 45/81/4 44/79/4
f 35/61/5 38/65/5 46/84/5 45/82/5
f 38/65/6 19/33/6 47/86/6 46/84/6
f 19/32/7 16/28/7 40/70/7 47/87/7
f 15/27/8 48/90/8 49/91/8 3/7/8
f 48/89/9 55/108/9 174/376/9 161/342/9
f 49/92/9 48/89/9 161/342/9 168/359/9
f 167/356/10 166/354/10 78/165/10 79/168/10
f 50/94/9 49/92/9 168/359/9 169/362/9
f 162/344/10 159/337/10 73/153/10 74/155/10
f 128/260/11 80/170/11 81/171/11 127/257/11
f 11/20/12 39/66/12 12/23/12
f 51/98/9 50/94/9 169/362/9 170/366/9
f 76/160/10 164/349/10 163/346/10 75/158/10
f 57/111/13 56/110/13 129/263/13 136/279/13
f 58/114/13 57/111/13 136/279/13 137/282/13
f 130/264/11 127/257/11 81/171/11 82/175/11
f 132/269/11 131/266/11 83/178/11 84/180/11
f 59/116/13 58/114/13 137/282/13 138/284/13
f 19/33/14 39/68/14 20/36/14
f 60/120/13 59/116/13 138/284/13 139/288/13
f 86/185/11 134/274/11 133/271/11 85/183/11
f 64/129/15 65/131/15 115/236/15 103/216/15
f 57/112/16 58/115/16 4/8/16 7/11/16
f 62/124/17 63/126/17 26/44/17 18/31/17
f 63/127/18 56/109/18 25/42/18 26/43/18
f 25/42/19 56/109/19 57/113/19 7/12/19
f 49/93/20 50/95/20 6/10/20 3/6/20
f 50/95/21 51/96/21 9/16/21 6/10/21
f 51/97/22 52/99/22 30/52/22 9/17/22
f 3/6/23 6/10/23 5/9/23 2/3/23
f 2/3/24 5/9/24 4/8/24 1/1/24
f 59/117/25 60/119/25 13/24/25 1/2/25
f 6/10/26 9/16/26 8/13/26 5/9/26
f 5/9/27 8/13/27 7/11/27 4/8/27
f 58/115/28 59/118/28 1/1/28 4/8/28
f 12/23/29 15/27/29 14/25/29 11/20/29
f 11/21/30 14/26/30 13/24/30 10/19/30
f 61/121/31 62/124/31 18/31/31 10/18/31
f 15/27/32 3/7/32 2/4/32 14/25/32
f 14/26/33 2/5/33 1/2/33 13/24/33
f 60/119/34 61/122/34 10/19/34 13/24/34
f 10/18/35 18/31/35 17/29/35 20/34/35
f 20/35/36 17/30/36 16/28/36 19/32/36
f 25/42/37 7/12/37 22/39/37 24/41/37
f 24/41/38 22/39/38 21/38/38 23/40/38
f 26/43/39 25/42/39 24/41/39 27/45/39
f 27/45/40 24/41/40 23/40/40 28/48/40
f 18/31/41 26/44/41 27/46/41 17/29/41
f 17/30/42 27/47/42 28/49/42 16/28/42
f 32/54/43 21/37/43 29/50/43 31/53/43
f 31/53/44 29/50/44 9/17/44 30/52/44
f 52/99/45 53/101/45 33/55/45 30/52/45
f 35/60/46 32/54/46 31/53/46 34/57/46
f 34/57/47 31/53/47 30/52/47 33/55/47
f 53/102/48 54/104/48 36/62/48 33/56/48
f 38/65/49 35/61/49 34/58/49 37/63/49
f 37/64/50 34/59/50 33/56/50 36/62/50
f 54/104/51 55/106/51 12/22/51 36/62/51
f 19/33/52 38/65/52 37/63/52 39/68/52
f 39/67/53 37/64/53 36/62/53 12/22/53
f 55/107/54 48/90/54 15/27/54 12/23/54
f 10/19/55 20/36/55 39/68/55 11/21/55
f 21/38/56 22/39/56 29/51/56
f 8/14/57 9/17/57 29/50/57
f 7/12/58 8/15/58 29/51/58 22/39/58
f 69/141/59 152/319/59 154/325/59 70/145/59
f 46/85/60 47/88/60 157/332/60 155/328/60
f 71/148/59 156/329/59 143/298/59 64/130/59
f 146/305/59 148/309/59 67/138/59 66/135/59
f 47/88/60 40/69/60 158/335/60 157/332/60
f 40/69/60 41/72/60 145/302/60 158/335/60
f 69/141/59 68/140/59 150/315/59 152/319/59
f 41/72/60 42/75/60 147/308/60 145/302/60
f 98/208/61 99/211/61 126/254/61
f 16/28/62 28/49/62 41/73/62 40/70/62
f 106/221/63 107/224/63 126/256/63
f 71/146/64 64/129/64 103/216/64 106/220/64
f 70/144/65 71/147/65 106/221/65 125/253/65
f 69/142/66 70/144/66 125/253/66 122/249/66
f 68/139/67 69/143/67 122/248/67 119/242/67
f 91/196/68 82/174/68 81/172/68 94/199/68
f 113/232/69 87/186/69 86/184/69 105/219/69
f 112/230/70 80/169/70 87/187/70 113/231/70
f 94/200/71 81/173/71 80/169/71 112/230/71
f 93/198/72 74/154/72 73/151/72 90/194/72
f 96/204/73 75/156/73 74/154/73 93/198/73
f 117/240/74 76/159/74 75/157/74 96/205/74
f 90/194/75 89/191/75 92/197/75 93/198/75
f 89/191/76 88/189/76 91/196/76 92/197/76
f 100/212/77 84/179/77 83/176/77 88/190/77
f 93/198/78 92/197/78 95/201/78 96/204/78
f 92/197/79 91/196/79 94/199/79 95/201/79
f 88/189/80 83/177/80 82/174/80 91/196/80
f 99/211/81 98/208/81 101/213/81 102/215/81
f 98/209/82 97/207/82 100/212/82 101/214/82
f 105/219/83 86/184/83 85/181/83 97/206/83
f 102/215/84 101/213/84 89/192/84 90/195/84
f 101/214/85 100/212/85 88/190/85 89/193/85
f 97/207/86 85/182/86 84/179/86 100/212/86
f 97/206/87 107/222/87 104/217/87 105/219/87
f 107/223/88 106/220/88 103/216/88 104/218/88
f 90/195/89 73/152/89 72/149/89 102/215/89
f 112/230/90 111/229/90 109/227/90 94/200/90
f 111/229/91 110/228/91 108/226/91 109/227/91
f 67/136/92 68/139/92 119/242/92 108/225/92
f 113/231/93 114/233/93 111/229/93 112/230/93
f 114/233/94 115/237/94 110/228/94 111/229/94
f 66/134/95 67/137/95 108/226/95 110/228/95
f 105/219/96 104/217/96 114/234/96 113/232/96
f 104/218/97 103/216/97 115/236/97 114/235/97
f 65/132/98 66/134/98 110/228/98 115/237/98
f 119/242/99 118/241/99 116/238/99 108/225/99
f 118/241/100 117/240/100 96/205/100 116/238/100
f 120/243/101 77/161/101 76/159/101 117/240/101
f 122/248/102 121/245/102 118/241/102 119/242/102
f 121/245/103 120/243/103 117/240/103 118/241/103
f 123/250/104 78/164/104 77/162/104 120/244/104
f 125/253/105 124/251/105 121/246/105 122/249/105
f 124/252/106 123/250/106 120/244/106 121/247/106
f 99/210/107 79/166/107 78/164/107 123/250/107
f 106/221/108 126/256/108 124/251/108 125/253/108
f 126/255/109 99/210/109 123/250/109 124/252/109
f 102/215/110 72/149/110 79/167/110 99/211/110
f 97/207/111 98/209/111 126/256/111 107/224/111
f 108/226/112 116/239/112 109/227/112
f 95/202/113 116/238/113 96/205/113
f 94/200/114 109/227/114 116/239/114 95/203/114
f 146/305/59 66/135/59 65/133/59 144/301/59
f 150/315/59 68/140/59 67/138/59 148/309/59
f 71/148/59 70/145/59 154/325/59 156/329/59
f 160/340/10 72/150/10 73/153/10 159/337/10
f 162/344/10 74/155/10 75/158/10 163/346/10
f 77/163/10 165/351/10 164/349/10 76/160/10
f 77/163/10 78/165/10 166/354/10 165/351/10
f 167/356/10 79/168/10 72/150/10 160/340/10
f 130/264/11 82/175/11 83/178/11 131/266/11
f 132/269/11 84/180/11 85/183/11 133/271/11
f 87/188/11 135/276/11 134/274/11 86/185/11
f 87/188/11 80/170/11 128/260/11 135/276/11
f 129/262/115 128/261/115 127/258/115 136/280/115
f 136/281/116 127/259/116 130/265/116 137/283/116
f 137/283/117 130/265/117 131/267/117 138/285/117
f 138/286/118 131/268/118 132/270/118 139/287/118
f 139/287/119 132/270/119 133/272/119 140/289/119
f 140/290/120 133/273/120 134/275/120 141/292/120
f 141/292/121 134/275/121 135/277/121 142/294/121
f 142/295/122 135/278/122 128/261/122 129/262/122
f 56/110/13 63/128/13 142/296/13 129/263/13
f 63/128/13 62/125/13 141/293/13 142/296/13
f 62/125/13 61/123/13 140/291/13 141/293/13
f 61/123/13 60/120/13 139/288/13 140/291/13
f 156/330/123 157/333/123 158/336/123 143/297/123
f 154/326/124 155/327/124 157/334/124 156/331/124
f 152/320/125 153/322/125 155/327/125 154/326/125
f 150/316/126 151/317/126 153/323/126 152/321/126
f 148/310/127 149/312/127 151/317/127 150/316/127
f 146/306/128 147/307/128 149/313/128 148/311/128
f 144/299/129 145/303/129 147/307/129 146/306/129
f 143/297/130 158/336/130 145/304/130 144/300/130
f 45/83/60 46/85/60 155/328/60 153/324/60
f 44/80/60 45/83/60 153/324/60 151/318/60
f 43/78/60 44/80/60 151/318/60 149/314/60
f 42/75/60 43/78/60 149/314/60 147/308/60
f 161/343/131 160/341/131 159/338/131 168/360/131
f 168/361/132 159/339/132 162/345/132 169/363/132
f 169/363/133 162/345/133 163/347/133 170/364/133
f 170/365/134 163/348/134 164/350/134 171/367/134
f 171/367/135 164/350/135 165/352/135 172/369/135
f 172/370/136 165/353/136 166/355/136 173/372/136
f 173/372/137 166/355/137 167/357/137 174/374/137
f 174/375/138 167/358/138 160/341/138 161/343/138
f 55/108/9 54/105/9 173/373/9 174/376/9
f 54/105/9 53/103/9 172/371/9 173/373/9
f 53/103/9 52/100/9 171/368/9 172/371/9
f 52/100/9 51/98/9 170/366/9 171/368/9
f 64/130/59 143/298/59 144/301/59 65/133/59
